<svg width="289" height="286" viewBox="0 0 289 286" fill="none" xmlns="http://www.w3.org/2000/svg">
<g clip-path="url(#clip0_819_1037)">
<path d="M0.019928 276.736H288.98" stroke="#263238" stroke-linecap="round" stroke-linejoin="round"/>
<path d="M175.446 127.398V18.9561H182.163" stroke="#263238" stroke-linecap="round" stroke-linejoin="round"/>
<path d="M175.446 140.303V137.429" stroke="#263238" stroke-linecap="round" stroke-linejoin="round"/>
<path d="M199.439 18.9561H268.755V150.414H175.446" stroke="#263238" stroke-linecap="round" stroke-linejoin="round"/>
<path d="M190.945 18.9561H197.035" stroke="#263238" stroke-linecap="round" stroke-linejoin="round"/>
<path d="M265.245 22.457H178.956V146.914H265.245V22.457Z" stroke="#263238" stroke-linecap="round" stroke-linejoin="round"/>
<path d="M261.234 29.1191V80.8048H182.967V77.4294" stroke="#263238" stroke-linecap="round" stroke-linejoin="round"/>
<path d="M182.967 69.5288V26.127H261.234" stroke="#263238" stroke-linecap="round" stroke-linejoin="round"/>
<path d="M182.967 74.8431V71.5635" stroke="#263238" stroke-linecap="round" stroke-linejoin="round"/>
<path d="M248.014 84.6816H265.245" stroke="#263238" stroke-linecap="round" stroke-linejoin="round"/>
<path d="M241.887 84.6816H244.327" stroke="#263238" stroke-linecap="round" stroke-linejoin="round"/>
<path d="M178.956 84.6816H238.982" stroke="#263238" stroke-linecap="round" stroke-linejoin="round"/>
<path d="M217.761 80.805V79.0215H224.98V80.0312H222.104V80.805" stroke="#263238" stroke-linecap="round" stroke-linejoin="round"/>
<path d="M179.103 131.23C179.103 131.23 180.305 132.137 181.145 137.62C181.145 137.62 182.62 128.864 184.345 128.732C186.071 128.599 185.746 134.421 185.746 134.421C185.746 134.421 186.041 131.554 187.413 131.687C188.784 131.82 187.413 137.583 187.413 137.583C187.413 137.583 189.064 133.058 190.627 133.161C192.191 133.264 189.595 141.356 189.595 141.356C189.595 141.356 193.606 138.453 195.228 139.883C196.851 141.312 194.329 144.879 194.329 144.879C194.329 144.879 200.08 143.634 200.965 147.009" stroke="#263238" stroke-linecap="round" stroke-linejoin="round"/>
<path d="M200.972 143.76C200.972 143.76 203.479 142.116 205.455 142.883C205.455 142.883 204.202 140.974 205.455 139.809C206.709 138.645 208.316 142.883 208.316 142.883C208.316 142.883 208.5 135.77 211.007 136.132C213.514 136.493 211.007 142.883 211.007 142.883C211.007 142.883 215.483 138.917 216.559 140.296C217.636 141.674 215.822 143.76 215.822 143.76C216.631 143.53 217.486 143.514 218.303 143.715C219.12 143.915 219.871 144.324 220.482 144.902C220.482 144.902 223.483 141.843 226.816 141.401C226.816 141.401 224.604 134.967 225.673 133.67C226.742 132.373 228.703 139.286 228.703 139.286C228.703 139.286 229.559 134.79 232.39 134.437C232.39 134.437 230.053 133.169 230.746 131.245C231.439 129.322 234.661 131.702 234.661 131.702C234.661 131.702 233.334 128.319 235.435 127.391C237.536 126.462 238.384 130.221 238.384 130.221C238.384 130.221 238.974 126.285 241.437 126.536C243.9 126.786 243.103 131.282 243.103 131.282C243.103 131.282 245.426 127.686 246.672 128.047C249.157 128.784 248.405 134.473 248.405 134.473C248.405 134.473 251.87 132.063 252.77 133.176C253.669 134.289 249.157 137.458 249.157 137.458C249.157 137.458 252.6 137.834 254.746 139.846" stroke="#263238" stroke-linecap="round" stroke-linejoin="round"/>
<path d="M265.245 132.556C265.245 132.556 264.847 128.945 261.234 128.753C257.621 128.562 262.23 136.676 262.23 136.676C262.23 136.676 259.244 134.207 258.174 134.966C257.105 135.725 261.234 139.911 261.234 139.911C261.234 139.911 259.251 138.076 257.164 138.644C255.078 139.211 258.351 145.026 258.351 145.026C255.264 144.408 252.06 144.785 249.201 146.102" stroke="#263238" stroke-linecap="round" stroke-linejoin="round"/>
<path d="M142.059 244.47V276.544" stroke="#263238" stroke-linecap="round" stroke-linejoin="round"/>
<path d="M142.059 233.976V240.844" stroke="#263238" stroke-linecap="round" stroke-linejoin="round"/>
<path d="M6.98032 276.735V216.965H142.059V230.083" stroke="#263238" stroke-linecap="round" stroke-linejoin="round"/>
<path d="M26.6597 223.502H14.9361V271.252" stroke="#263238" stroke-linecap="round" stroke-linejoin="round"/>
<path d="M134.104 276.544V223.502H33.4652" stroke="#263238" stroke-linecap="round" stroke-linejoin="round"/>
<path d="M128.485 210.774H124.762" stroke="#263238" stroke-linecap="round" stroke-linejoin="round"/>
<path d="M119.416 210.774H3.62546V216.921H145.414V210.774H130.859" stroke="#263238" stroke-linecap="round" stroke-linejoin="round"/>
<path d="M11.6107 171.39C11.6107 171.39 22.6707 172.267 23.1721 180.447C23.1721 180.447 11.9278 185.621 11.6107 171.39Z" stroke="#263238" stroke-linecap="round" stroke-linejoin="round"/>
<path d="M33.5611 173.423C33.5611 173.423 39.7621 165.043 49.7824 169.34C49.7824 169.34 43.6625 179.466 33.5611 173.423Z" stroke="#263238" stroke-linecap="round" stroke-linejoin="round"/>
<path d="M48.9345 146.965C48.9345 146.965 50.7188 163.083 36.0385 158.646C36.0385 158.646 40.6985 146.795 48.9345 146.965Z" stroke="#263238" stroke-linecap="round" stroke-linejoin="round"/>
<path d="M30.9067 137.988C30.9067 137.988 42.5197 144.253 33.9814 153.745C33.9814 153.745 25.8412 146.965 30.9067 137.988Z" stroke="#263238" stroke-linecap="round" stroke-linejoin="round"/>
<path d="M16.6246 152.396C16.6246 152.396 29.2477 151.128 29.2477 162.802C29.2477 162.802 16.6246 163.303 16.6246 152.396Z" stroke="#263238" stroke-linecap="round" stroke-linejoin="round"/>
<path d="M26.0846 187.043C25.9002 183.122 25.9002 178.081 28.2966 172.753C33.8192 160.46 35.6699 150.105 32.8017 142.809" stroke="#263238" stroke-linecap="round" stroke-linejoin="round"/>
<path d="M20.7684 155.551C20.7684 155.551 28.3334 158.558 30.9067 166.348" stroke="#263238" stroke-linecap="round" stroke-linejoin="round"/>
<path d="M44.9603 153.413C44.9603 153.413 40.5879 159.368 33.163 158.727" stroke="#263238" stroke-linecap="round" stroke-linejoin="round"/>
<path d="M44.9603 171.028C44.9603 171.028 32.8459 174.514 28.0016 173.372" stroke="#263238" stroke-linecap="round" stroke-linejoin="round"/>
<path d="M15.2237 175.074C15.2237 175.074 20.6431 181.014 26.0846 180.919" stroke="#263238" stroke-linecap="round" stroke-linejoin="round"/>
<path d="M40.4846 187.043H14.1693C13.9991 187.043 13.836 187.111 13.7157 187.231C13.5954 187.351 13.5278 187.514 13.5278 187.684V189.681C13.5278 189.765 13.5444 189.848 13.5768 189.926C13.6091 190.003 13.6565 190.073 13.7161 190.132C13.7758 190.191 13.8466 190.238 13.9244 190.269C14.0021 190.301 14.0854 190.316 14.1693 190.315H14.9066L17.2513 210.774H37.3657L39.7104 190.315H40.4846C40.5682 190.316 40.6511 190.301 40.7285 190.269C40.8058 190.237 40.8761 190.191 40.9352 190.132C40.9943 190.073 41.041 190.002 41.0725 189.925C41.104 189.848 41.1197 189.765 41.1187 189.681V187.684C41.1197 187.6 41.104 187.517 41.0726 187.439C41.0412 187.362 40.9946 187.291 40.9356 187.231C40.8767 187.172 40.8064 187.124 40.729 187.092C40.6516 187.06 40.5685 187.043 40.4846 187.043Z" stroke="#263238" stroke-miterlimit="10"/>
<path d="M16.6246 190.315H31.9316" stroke="#263238" stroke-linecap="round" stroke-linejoin="round"/>
<path d="M34.8146 190.315H37.1151" stroke="#263238" stroke-linecap="round" stroke-linejoin="round"/>
<path d="M202.535 105.502L199.586 121.524L175.534 136.132L178.86 142.234C178.86 142.234 206.664 133.758 207.343 131.776C208.021 129.793 214.429 108.796 214.429 108.796L202.535 105.502Z" fill="#263238"/>
<path d="M213.072 78.4102L211.464 97.8374L210.617 108.03C205.979 110.285 201.444 106.895 201.164 106.674C202.425 102.974 203.892 82.0951 213.072 78.4102Z" fill="#999999" stroke="#263238" stroke-linecap="round" stroke-linejoin="round"/>
<path d="M211.435 97.8367L210.587 108.029C205.949 110.285 201.415 106.894 201.134 106.673C201.334 106.762 203.774 107.794 205.359 106.673C204.805 106.075 204.311 105.423 203.885 104.728C203.789 104.344 205.359 104.241 205.359 104.241C205.359 104.241 204.327 95.9795 207.077 92.4492C208.154 91.1079 209.835 93.9085 211.435 97.8367Z" fill="#263238"/>
<path d="M229.728 258.318L230.465 260.485C229.348 262.329 228.096 264.088 226.72 265.747C226.72 265.747 225.982 265.511 224.773 266.58C224.028 267.323 223.569 268.304 223.476 269.351C223.476 269.351 217.842 276.102 210.698 276.198C203.553 276.294 205.706 272.697 205.706 272.697L229.728 258.318Z" fill="#3370FF" stroke="#263238" stroke-linecap="round" stroke-linejoin="round"/>
<path d="M223.011 241.139C223.011 241.139 213.426 237.609 211.553 244.67C211.553 244.67 213.264 252.445 212.239 256.697C211.214 260.95 206.052 269.072 205.735 270.612C205.109 273.634 205.581 273.84 205.581 273.84C205.581 273.84 209.334 276.007 214.377 273.685C219.42 271.364 228.15 261.37 229.514 259.314C230.878 257.258 225.238 249.151 225.238 249.151L223.011 241.139Z" fill="white"/>
<mask id="mask0_819_1037" style="mask-type:luminance" maskUnits="userSpaceOnUse" x="205" y="240" width="25" height="35">
<path d="M223.011 241.139C223.011 241.139 213.426 237.609 211.553 244.67C211.553 244.67 213.264 252.445 212.239 256.697C211.214 260.95 206.052 269.072 205.735 270.612C205.109 273.634 205.581 273.84 205.581 273.84C205.581 273.84 209.334 276.007 214.377 273.685C219.42 271.364 228.15 261.37 229.514 259.314C230.878 257.258 225.238 249.151 225.238 249.151L223.011 241.139Z" fill="white"/>
</mask>
<g mask="url(#mask0_819_1037)">
<path opacity="0.4" d="M223.011 241.139C223.011 241.139 213.426 237.609 211.553 244.67C211.553 244.67 213.264 252.445 212.239 256.697C211.214 260.95 206.052 269.072 205.735 270.612C205.109 273.634 205.581 273.84 205.581 273.84C205.581 273.84 209.334 276.007 214.377 273.685C219.42 271.364 228.15 261.37 229.514 259.314C230.878 257.258 225.238 249.151 225.238 249.151L223.011 241.139Z" fill="#3370FF"/>
</g>
<path d="M223.011 241.139C223.011 241.139 213.426 237.609 211.553 244.67C211.553 244.67 213.264 252.445 212.239 256.697C211.214 260.95 206.052 269.072 205.735 270.612C205.109 273.634 205.581 273.84 205.581 273.84C205.581 273.84 209.334 276.007 214.377 273.685C219.42 271.364 228.15 261.37 229.514 259.314C230.878 257.258 225.238 249.151 225.238 249.151L223.011 241.139Z" stroke="#263238" stroke-linecap="round" stroke-linejoin="round"/>
<path d="M218.108 251.125C218.942 255.882 218.095 260.78 215.711 264.981" stroke="#263238" stroke-linecap="round" stroke-linejoin="round"/>
<path d="M215.711 266.837C215.355 267.735 214.801 268.541 214.092 269.197C213.382 269.852 212.535 270.34 211.612 270.626C209.68 271.143 207.645 271.143 205.713 270.626L208.014 265.968C210.456 266.94 213.114 267.241 215.711 266.837Z" fill="#3370FF" stroke="#263238" stroke-linecap="round" stroke-linejoin="round"/>
<path d="M217.068 264.015C217.068 264.015 212.054 264.317 209.437 263.278" stroke="#263238" stroke-linecap="round" stroke-linejoin="round"/>
<path d="M217.997 261.252C217.997 261.252 213.308 261.989 210.69 260.515" stroke="#263238" stroke-linecap="round" stroke-linejoin="round"/>
<path d="M218.794 258.178C218.794 258.178 214.687 258.775 212.003 257.508" stroke="#263238" stroke-linecap="round" stroke-linejoin="round"/>
<path d="M219.251 254.699C219.251 254.699 214.679 256.129 212.519 254.699" stroke="#263238" stroke-linecap="round" stroke-linejoin="round"/>
<path d="M219.936 246.106L220.733 251.125C220.733 251.125 214.687 255.104 210.69 250.13V244.89C210.69 244.89 212.194 248.412 219.936 246.106Z" fill="#3370FF" stroke="#263238" stroke-linecap="round" stroke-linejoin="round"/>
<path d="M214.687 133.441C208.559 152.847 189.544 183.97 191.468 191.937C192.522 196.285 198.797 220.923 203.708 231.735C205.573 235.869 209.606 238.633 209.606 238.633L212.519 244.876C219.619 247.964 222.163 241.684 222.163 241.684L220.733 234.609C224.537 227.696 222.945 227.696 217.997 191.863C217.415 187.64 227.214 174.588 227.214 174.588L232.242 207.429L233.061 234.329L235.671 242.642C235.671 242.642 236.32 250.447 236.261 250.919H247.933L249.201 242.34C249.201 242.34 254.62 237.233 254.62 231.337C254.62 225.441 253.455 195.408 254.62 186.66C255.785 177.912 251.892 137.126 251.892 137.126L214.687 133.441Z" fill="#263238"/>
<path d="M135.339 116.151L151.561 117.61C151.928 117.643 152.268 117.821 152.504 118.104C152.741 118.388 152.855 118.753 152.822 119.121L151.78 130.691L132.787 128.983L133.828 117.412C133.862 117.044 134.039 116.705 134.323 116.469C134.606 116.232 134.972 116.118 135.339 116.151Z" fill="#3370FF"/>
<mask id="mask1_819_1037" style="mask-type:luminance" maskUnits="userSpaceOnUse" x="132" y="116" width="21" height="15">
<path d="M135.339 116.151L151.561 117.61C151.928 117.643 152.268 117.821 152.504 118.104C152.741 118.388 152.855 118.753 152.822 119.121L151.78 130.691L132.787 128.983L133.828 117.412C133.862 117.044 134.039 116.705 134.323 116.469C134.606 116.232 134.972 116.118 135.339 116.151Z" fill="white"/>
</mask>
<g mask="url(#mask1_819_1037)">
<path opacity="0.3" d="M135.339 116.151L151.561 117.61C151.928 117.643 152.268 117.821 152.504 118.104C152.741 118.388 152.855 118.753 152.822 119.121L151.78 130.691L132.787 128.983L133.828 117.412C133.862 117.044 134.039 116.705 134.323 116.469C134.606 116.232 134.972 116.118 135.339 116.151Z" fill="black" fill-opacity="0.7"/>
<path opacity="0.3" d="M151.816 117.409L147.165 117.01L146.366 126.306L151.017 126.705L151.816 117.409Z" fill="white" fill-opacity="0.7"/>
</g>
<path d="M135.339 116.151L151.561 117.61C151.928 117.643 152.268 117.821 152.504 118.104C152.741 118.388 152.855 118.753 152.822 119.121L151.78 130.691L132.787 128.983L133.828 117.412C133.862 117.044 134.039 116.705 134.323 116.469C134.606 116.232 134.972 116.118 135.339 116.151Z" stroke="#263238" stroke-width="1.00404" stroke-linecap="round" stroke-linejoin="round"/>
<path d="M163.338 117.175L179.5 118.563C179.866 118.594 180.205 118.77 180.442 119.051C180.678 119.332 180.794 119.696 180.762 120.062L179.772 131.59L160.848 129.966L161.838 118.437C161.87 118.071 162.046 117.732 162.327 117.496C162.608 117.259 162.972 117.144 163.338 117.175Z" fill="#3370FF"/>
<mask id="mask2_819_1037" style="mask-type:luminance" maskUnits="userSpaceOnUse" x="160" y="117" width="21" height="15">
<path d="M163.338 117.175L179.5 118.563C179.866 118.594 180.205 118.77 180.442 119.051C180.678 119.332 180.794 119.696 180.762 120.062L179.772 131.59L160.848 129.966L161.838 118.437C161.87 118.071 162.046 117.732 162.327 117.496C162.608 117.259 162.972 117.144 163.338 117.175Z" fill="white"/>
</mask>
<g mask="url(#mask2_819_1037)">
<path opacity="0.3" d="M163.338 117.175L179.5 118.563C179.866 118.594 180.205 118.77 180.442 119.051C180.678 119.332 180.794 119.696 180.762 120.062L179.772 131.59L160.848 129.966L161.838 118.437C161.87 118.071 162.046 117.732 162.327 117.496C162.608 117.259 162.972 117.144 163.338 117.175Z" fill="black" fill-opacity="0.7"/>
<path opacity="0.3" d="M179.412 119.784L176.606 119.543L175.807 128.839L178.613 129.08L179.412 119.784Z" fill="white" fill-opacity="0.7"/>
</g>
<path d="M163.338 117.175L179.5 118.563C179.866 118.594 180.205 118.77 180.442 119.051C180.678 119.332 180.794 119.696 180.762 120.062L179.772 131.59L160.848 129.966L161.838 118.437C161.87 118.071 162.046 117.732 162.327 117.496C162.608 117.259 162.972 117.144 163.338 117.175Z" stroke="#263238" stroke-linecap="round" stroke-linejoin="round"/>
<path d="M157.468 116.666L173.629 118.054C173.996 118.086 174.335 118.261 174.571 118.542C174.808 118.824 174.923 119.187 174.892 119.553L173.901 131.082L154.977 129.457L155.968 117.928C155.999 117.562 156.175 117.224 156.456 116.987C156.738 116.75 157.101 116.635 157.468 116.666Z" fill="#3370FF" stroke="#263238" stroke-linecap="round" stroke-linejoin="round"/>
<path d="M185.377 119.068L201.539 120.456C201.905 120.487 202.244 120.663 202.481 120.944C202.718 121.225 202.833 121.589 202.801 121.955L201.811 133.476L182.887 131.851L183.878 120.322C183.911 119.958 184.088 119.621 184.369 119.386C184.65 119.151 185.012 119.036 185.377 119.068Z" fill="#3370FF" stroke="#263238" stroke-linecap="round" stroke-linejoin="round"/>
<path opacity="0.3" d="M173.855 119.302L169.204 118.902L168.405 128.199L173.056 128.598L173.855 119.302Z" fill="white" fill-opacity="0.7"/>
<path opacity="0.3" d="M201.458 121.67L196.808 121.271L196.009 130.567L200.659 130.966L201.458 121.67Z" fill="white" fill-opacity="0.7"/>
<path d="M210.263 131.517L205.699 184.53L120.249 177.16L124.813 124.155C124.85 123.716 124.974 123.289 125.176 122.898C125.379 122.507 125.657 122.16 125.994 121.877C126.331 121.593 126.72 121.379 127.14 121.246C127.56 121.114 128.002 121.065 128.441 121.104L207.203 127.869C207.644 127.905 208.074 128.029 208.468 128.232C208.861 128.436 209.21 128.715 209.495 129.054C209.78 129.394 209.994 129.786 210.126 130.209C210.258 130.632 210.304 131.076 210.263 131.517Z" fill="#3370FF"/>
<mask id="mask3_819_1037" style="mask-type:luminance" maskUnits="userSpaceOnUse" x="120" y="121" width="91" height="64">
<path d="M210.263 131.517L205.699 184.53L120.249 177.16L124.813 124.155C124.85 123.716 124.974 123.289 125.176 122.898C125.379 122.507 125.657 122.16 125.994 121.877C126.331 121.593 126.72 121.379 127.14 121.246C127.56 121.114 128.002 121.065 128.441 121.104L207.203 127.869C207.644 127.905 208.074 128.029 208.468 128.232C208.861 128.436 209.21 128.715 209.495 129.054C209.78 129.394 209.994 129.786 210.126 130.209C210.258 130.632 210.304 131.076 210.263 131.517Z" fill="white"/>
</mask>
<g mask="url(#mask3_819_1037)">
<path opacity="0.3" d="M210.263 131.517L205.699 184.53L120.249 177.16L124.813 124.155C124.85 123.716 124.974 123.289 125.176 122.898C125.379 122.507 125.657 122.16 125.994 121.877C126.331 121.593 126.72 121.379 127.14 121.246C127.56 121.114 128.002 121.065 128.441 121.104L207.203 127.869C207.644 127.905 208.074 128.029 208.468 128.232C208.861 128.436 209.21 128.715 209.495 129.054C209.78 129.394 209.994 129.786 210.126 130.209C210.258 130.632 210.304 131.076 210.263 131.517Z" fill="black" fill-opacity="0.7"/>
</g>
<path d="M210.263 131.517L205.699 184.53L120.249 177.16L124.813 124.155C124.85 123.716 124.974 123.289 125.176 122.898C125.379 122.507 125.657 122.16 125.994 121.877C126.331 121.593 126.72 121.379 127.14 121.246C127.56 121.114 128.002 121.065 128.441 121.104L207.203 127.869C207.644 127.905 208.074 128.029 208.468 128.232C208.861 128.436 209.21 128.715 209.495 129.054C209.78 129.394 209.994 129.786 210.126 130.209C210.258 130.632 210.304 131.076 210.263 131.517Z" stroke="#263238" stroke-linecap="round" stroke-linejoin="round"/>
<path d="M210.263 131.518L205.699 184.53L142.288 179.077L146.859 126.072C146.897 125.633 147.02 125.206 147.222 124.815C147.425 124.424 147.703 124.077 148.04 123.794C148.377 123.51 148.766 123.296 149.186 123.163C149.606 123.031 150.048 122.982 150.487 123.021L207.21 127.892C207.649 127.929 208.076 128.053 208.467 128.255C208.858 128.457 209.206 128.735 209.489 129.072C209.773 129.409 209.987 129.798 210.12 130.218C210.252 130.638 210.301 131.08 210.263 131.518Z" fill="#3370FF" stroke="#263238" stroke-linecap="round" stroke-linejoin="round"/>
<path opacity="0.3" d="M205.809 133.035L151.608 128.377C151.247 128.345 150.912 128.173 150.676 127.897C150.441 127.622 150.322 127.265 150.347 126.903C150.379 126.542 150.551 126.208 150.827 125.972C151.103 125.736 151.46 125.618 151.822 125.643L206.023 130.301C206.384 130.333 206.719 130.505 206.954 130.78C207.19 131.056 207.308 131.413 207.284 131.775C207.252 132.136 207.079 132.47 206.804 132.706C206.528 132.941 206.171 133.059 205.809 133.035Z" fill="white" fill-opacity="0.7"/>
<path d="M248.316 251.22C248.316 251.22 244.231 248.309 235.782 248.891C235.782 248.891 235.162 259.025 234.012 261.973C232.862 264.921 226.801 270.029 225.673 270.906C224.545 271.783 224.545 274.841 224.545 274.841H250.219C249.889 270.455 249.206 266.102 248.176 261.826L248.316 251.22Z" fill="white"/>
<mask id="mask4_819_1037" style="mask-type:luminance" maskUnits="userSpaceOnUse" x="224" y="248" width="27" height="27">
<path d="M248.316 251.22C248.316 251.22 244.231 248.309 235.782 248.891C235.782 248.891 235.162 259.025 234.012 261.973C232.862 264.921 226.801 270.029 225.673 270.906C224.545 271.783 224.545 274.841 224.545 274.841H250.219C249.889 270.455 249.206 266.102 248.176 261.826L248.316 251.22Z" fill="white"/>
</mask>
<g mask="url(#mask4_819_1037)">
<path opacity="0.4" d="M248.316 251.22C248.316 251.22 244.231 248.309 235.782 248.891C235.782 248.891 235.162 259.025 234.012 261.973C232.862 264.921 226.801 270.029 225.673 270.906C224.545 271.783 224.545 274.841 224.545 274.841H250.219C249.889 270.455 249.206 266.102 248.176 261.826L248.316 251.22Z" fill="#3370FF"/>
</g>
<path d="M248.316 251.22C248.316 251.22 244.231 248.309 235.782 248.891C235.782 248.891 235.162 259.025 234.012 261.973C232.862 264.921 226.801 270.029 225.673 270.906C224.545 271.783 224.545 274.841 224.545 274.841H250.219C249.889 270.455 249.206 266.102 248.176 261.826L248.316 251.22Z" stroke="#263238" stroke-linecap="round" stroke-linejoin="round"/>
<path d="M243.015 252.533C243.015 252.533 242.41 261.864 240.958 264.325C240.182 265.678 239.224 266.918 238.112 268.01" stroke="#263238" stroke-linecap="round" stroke-linejoin="round"/>
<path d="M237.404 269.299C237.404 269.299 236.113 270.906 234.683 271.12C233.253 271.334 225.695 270.906 225.695 270.906L228.777 268.238C228.777 268.238 235.044 267.184 237.404 269.299Z" fill="#3370FF" stroke="#263238" stroke-linecap="round" stroke-linejoin="round"/>
<path d="M240.073 267.11C240.073 267.11 234.602 263.971 230.701 266.373" stroke="#263238" stroke-linecap="round" stroke-linejoin="round"/>
<path d="M241.393 264.98C241.393 264.98 237.573 261.996 233.068 263.632" stroke="#263238" stroke-linecap="round" stroke-linejoin="round"/>
<path d="M243.015 261.73C243.015 261.73 238.901 258.531 234.565 260.566" stroke="#263238" stroke-linecap="round" stroke-linejoin="round"/>
<path d="M243.575 257.669C243.575 257.669 238.583 254.987 234.956 257.021" stroke="#263238" stroke-linecap="round" stroke-linejoin="round"/>
<path d="M250.211 274.842V276.736H247.262C247.262 276.736 244.733 275.262 242.329 276.736H228.482C227.019 276.731 225.574 276.406 224.25 275.785L224.537 274.842H250.211Z" fill="#3370FF" stroke="#263238" stroke-linecap="round" stroke-linejoin="round"/>
<path d="M246.532 250.624L245.876 254.759C245.876 254.759 238.171 252.26 233.916 253.882V248.796C233.916 248.796 241.828 246.025 246.532 250.624Z" fill="#3370FF" stroke="#263238" stroke-linecap="round" stroke-linejoin="round"/>
<path d="M254.864 147.614C254.864 147.614 238.488 150.819 222.421 145.616C218.763 144.451 215.263 142.837 212.003 140.811C212.003 140.811 212.047 139.779 212.076 138.091C212.209 131.503 212.172 114.928 208.699 110.823C206.487 108.236 204.755 92.2428 209.024 84.1579L222.082 73.6631C240.161 77.1933 243.981 81.9764 246.967 92.2944C247.52 94.1811 248.036 96.2521 248.611 98.5368C249.238 101.028 249.828 104.072 250.388 107.381C253.102 123.86 254.864 147.614 254.864 147.614Z" fill="#999999"/>
<mask id="mask5_819_1037" style="mask-type:luminance" maskUnits="userSpaceOnUse" x="206" y="73" width="49" height="76">
<path d="M254.864 147.614C254.864 147.614 238.488 150.819 222.421 145.616C218.763 144.451 215.263 142.837 212.003 140.811C212.003 140.811 212.047 139.779 212.076 138.091C212.209 131.503 212.172 114.928 208.699 110.823C206.487 108.236 204.755 92.2428 209.024 84.1579L222.082 73.6631C240.161 77.1933 243.981 81.9764 246.967 92.2944C247.52 94.1811 248.036 96.2521 248.611 98.5368C249.238 101.028 249.828 104.072 250.388 107.381C253.102 123.86 254.864 147.614 254.864 147.614Z" fill="white"/>
</mask>
<g mask="url(#mask5_819_1037)">
<path opacity="0.2" d="M250.388 107.381L243.015 140.303C243.015 140.303 232.36 143.251 222.429 145.616C218.768 144.452 215.266 142.838 212.003 140.811C212.003 140.811 212.047 139.779 212.076 138.092C220.998 133.53 234.019 126.823 233.916 126.506C233.747 126.012 233.916 108.818 233.916 108.818C233.916 108.818 245.713 106.084 246.967 92.2725C247.52 94.1592 248.036 96.2301 248.611 98.5148C249.238 101.013 249.828 104.035 250.388 107.381Z" fill="black"/>
</g>
<path d="M254.864 147.614C254.864 147.614 238.488 150.819 222.421 145.616C218.763 144.451 215.263 142.837 212.003 140.811C212.003 140.811 212.047 139.779 212.076 138.091C212.209 131.503 212.172 114.928 208.699 110.823C206.487 108.236 204.755 92.2428 209.024 84.1579L222.082 73.6631C240.161 77.1933 243.981 81.9764 246.967 92.2944C247.52 94.1811 248.036 96.2521 248.611 98.5368C249.238 101.028 249.828 104.072 250.388 107.381C253.102 123.86 254.864 147.614 254.864 147.614Z" stroke="#263238" stroke-linecap="round" stroke-linejoin="round"/>
<path d="M222.657 59.8887C222.657 59.8887 216.891 68.1431 224.559 74.5844C224.559 74.5844 215.254 85.0203 212.194 83.5832C210.904 82.9788 212.194 79.2128 212.194 79.2128L206.797 69.2338L222.657 59.8887Z" fill="white" stroke="#263238" stroke-linecap="round" stroke-linejoin="round"/>
<path d="M220.777 64.1627C222.576 56.2989 221.713 44.588 210.69 45.6272C202.963 46.3642 197.455 50.6388 199.63 61.001C200.537 65.3714 201.282 71.5622 205.293 77.1486C206.406 78.6963 218.056 73.2204 217.348 68.791" fill="white"/>
<path d="M220.777 64.1627C222.576 56.2989 221.713 44.588 210.69 45.6272C202.963 46.3642 197.455 50.6388 199.63 61.001C200.537 65.3714 201.282 71.5622 205.293 77.1486C206.406 78.6963 218.056 73.2204 217.348 68.791" stroke="#263238" stroke-linecap="round" stroke-linejoin="round"/>
<path d="M205.005 59.2477C205.783 58.9468 206.62 58.8321 207.45 58.9127C208.279 58.9934 209.079 59.2671 209.783 59.712" stroke="#263238" stroke-linecap="round" stroke-linejoin="round"/>
<path d="M199.461 60.2132C199.602 59.9114 199.848 59.6708 200.153 59.5354C200.457 59.4001 200.801 59.379 201.12 59.4762" stroke="#263238" stroke-linecap="round" stroke-linejoin="round"/>
<path d="M202.218 61.8496C202.218 61.8496 199.947 65.9842 199.94 66.5738C199.933 67.1634 202.734 67.3624 202.734 67.3624" fill="white"/>
<path d="M202.218 61.8496C202.218 61.8496 199.947 65.9842 199.94 66.5738C199.933 67.1634 202.734 67.3624 202.734 67.3624" stroke="#263238" stroke-linecap="round" stroke-linejoin="round"/>
<path d="M207.099 62.6896C207.099 63.1392 206.9 63.5077 206.62 63.5224C206.34 63.5372 206.104 63.1687 206.089 62.7191C206.075 62.2695 206.288 61.901 206.569 61.8937C206.849 61.8863 207.085 62.2548 207.099 62.6896Z" fill="#263238"/>
<path d="M203.892 70.3686C203.892 70.3686 208.25 69.5505 209.053 68.0176" stroke="#263238" stroke-linecap="round" stroke-linejoin="round"/>
<path d="M199.431 53.8454L202.823 52.8578C202.823 52.8578 207.579 50.6468 208.589 50.9563C209.599 51.2659 211.649 54.4129 211.582 56.2111C211.582 56.2111 214.782 59.0265 215.188 63.1095L216.161 62.6672C216.161 62.6672 216.11 58.9823 218.204 59.0781C220.298 59.1739 221.241 61.6797 221.101 62.4683C220.961 63.2568 218.668 66.5291 218.668 66.5291C218.668 66.5291 223.918 65.7479 224.088 55.4741C224.257 45.2004 212.991 43.5274 207.512 43.9475C204.739 44.2131 201.952 44.3165 199.166 44.257L199.475 47.205L197.263 47.7873L198.93 49.8287L197.101 50.6615L199.431 53.8454Z" fill="#263238"/>
<path d="M218.425 165.869C218.425 165.869 231.771 169.399 235.383 179.334" stroke="white" stroke-linecap="round" stroke-linejoin="round"/>
<path d="M224.537 171.213C224.537 171.213 217.326 183.219 206.288 189.454" stroke="white" stroke-linecap="round" stroke-linejoin="round"/>
<path d="M214.399 238.728C214.399 238.728 218.499 237.807 219.619 236.215" stroke="white" stroke-linecap="round" stroke-linejoin="round"/>
<path d="M237.227 240.255C237.227 240.255 241.238 238.176 245.234 240.255" stroke="white" stroke-linecap="round" stroke-linejoin="round"/>
<path d="M250.211 184.36C250.211 184.36 243.479 201.79 240.073 203.404" stroke="white" stroke-linecap="round" stroke-linejoin="round"/>
<path d="M220.733 157.062C220.917 158.956 228.843 167.733 235.383 171.212" stroke="white" stroke-linecap="round" stroke-linejoin="round"/>
<path d="M227.494 149.655C228.448 152.005 228.647 154.594 228.062 157.062C227.426 159.192 227.426 161.462 228.062 163.592" stroke="white" stroke-linecap="round" stroke-linejoin="round"/>
<path d="M213.072 113.41C213.072 113.41 225.481 129.462 238.819 134.732" stroke="#263238" stroke-linecap="round" stroke-linejoin="round"/>
<path d="M225.916 87.46C225.916 87.46 225.872 98.3749 233.747 103.298" stroke="#263238" stroke-linecap="round" stroke-linejoin="round"/>
<path d="M230.348 103.386C228.681 105.022 230.495 125.555 230.495 125.555C230.495 125.555 220.814 129.343 217.783 131.783C214.753 134.222 200.397 139.823 200.397 139.823C200.397 139.823 198.185 147.356 200.943 147.614C203.7 147.872 232.257 138.143 238.79 134.731C238.79 134.731 243.044 109.673 243.015 103.298" fill="white"/>
<path d="M230.348 103.386C228.681 105.022 230.495 125.555 230.495 125.555C230.495 125.555 220.814 129.343 217.783 131.783C214.753 134.222 200.397 139.823 200.397 139.823C200.397 139.823 198.185 147.356 200.943 147.614C203.7 147.872 232.257 138.143 238.79 134.731C238.79 134.731 243.044 109.673 243.015 103.298" stroke="#263238" stroke-linecap="round" stroke-linejoin="round"/>
<path d="M201.533 139.374C200.205 139.123 197.846 138.254 196.607 138.541C195.369 138.828 193.105 140.192 190.775 140.752C188.445 141.312 189.411 142.226 190.775 142.499C191.773 142.665 192.792 142.665 193.791 142.499L191.896 144.348C190.811 144.936 189.69 145.455 188.541 145.904C187.855 145.904 185.429 146.56 185.592 147.591C185.754 148.623 187.147 148.505 188.703 148.564C188.703 148.564 186.226 149.058 186.491 150.466C186.653 151.431 189.44 150.561 190.863 150.561C190.863 150.561 189.698 151.829 190.568 152.22C191.439 152.61 193.37 151.637 193.37 151.637C193.37 151.637 193.297 152.684 194.167 152.787C195.037 152.89 197.227 152.05 198.716 151.151C200.183 150.206 201.587 149.167 202.919 148.041C203.483 147.526 204.128 147.107 204.828 146.803" fill="white"/>
<path d="M201.533 139.374C200.205 139.123 197.846 138.254 196.607 138.541C195.369 138.828 193.105 140.192 190.775 140.752C188.445 141.312 189.411 142.226 190.775 142.499C191.773 142.665 192.792 142.665 193.791 142.499L191.896 144.348C190.811 144.936 189.69 145.455 188.541 145.904C187.855 145.904 185.429 146.56 185.592 147.591C185.754 148.623 187.147 148.505 188.703 148.564C188.703 148.564 186.226 149.058 186.491 150.466C186.653 151.431 189.44 150.561 190.863 150.561C190.863 150.561 189.698 151.829 190.568 152.22C191.439 152.61 193.37 151.637 193.37 151.637C193.37 151.637 193.297 152.684 194.167 152.787C195.037 152.89 197.227 152.05 198.716 151.151C200.183 150.206 201.587 149.167 202.919 148.041C203.483 147.526 204.128 147.107 204.828 146.803" stroke="#263238" stroke-linecap="round" stroke-linejoin="round"/>
<path d="M188.74 148.593C189.425 148.556 190.107 148.478 190.782 148.358C191.365 148.21 191.947 148.019 191.947 148.019" stroke="#263238" stroke-linecap="round" stroke-linejoin="round"/>
<path d="M190.871 150.591C191.762 150.466 192.62 150.171 193.4 149.722" stroke="#263238" stroke-linecap="round" stroke-linejoin="round"/>
<path d="M193.378 151.667C194.037 151.584 194.668 151.349 195.221 150.981" stroke="#263238" stroke-linecap="round" stroke-linejoin="round"/>
<path d="M192.132 144.909C192.132 144.909 191.601 146.125 192.132 146.803C192.662 147.481 193.304 147.54 193.4 148.277C193.496 149.014 194.764 149.014 195.221 149.493C195.678 149.972 196.025 150.894 197.485 150.967" stroke="#263238" stroke-linecap="round" stroke-linejoin="round"/>
<path d="M229.728 82.0947C224.707 93.4519 229.728 109.209 229.728 109.209C229.728 109.209 241.879 113.336 243 111.56C244.121 109.784 246.171 101.072 246.517 97.0484" fill="#999999"/>
<path d="M229.728 82.0947C224.707 93.4519 229.728 109.209 229.728 109.209C229.728 109.209 241.879 113.336 243 111.56C244.121 109.784 246.171 101.072 246.517 97.0484" stroke="#263238" stroke-linecap="round" stroke-linejoin="round"/>
<path d="M243.015 98.3086C243.015 98.3086 237.854 105.406 233.747 105.502" stroke="#263238" stroke-linecap="round" stroke-linejoin="round"/>
<path d="M58.5345 276.735C58.5345 276.735 57.2737 271.923 58.7484 270.139C61.388 266.941 58.4239 264.243 61.0783 263.145L62.1917 264.435C62.4055 263.13 61.7862 259.143 66.7115 258.627C72.6692 258.001 72.7798 262.312 73.1042 263.786L73.001 261.789C75.5448 261.789 74.225 264.324 78.0738 268.466C79.0828 269.584 79.8509 270.898 80.3304 272.326C80.8099 273.753 80.9905 275.264 80.8609 276.765L58.5345 276.735Z" fill="#263238"/>
<path d="M103.947 276.736C101.55 275.667 103.748 266.632 103.748 266.632C103.748 266.632 100.526 264.472 103.748 262.21C104.994 263.265 106.505 263.96 108.117 264.22C109.73 264.48 111.383 264.294 112.898 263.684C112.898 263.684 113.525 257.64 117.322 258.414C117.322 258.414 118.295 262.247 120.515 264.435C126.524 270.331 134.288 271.068 135.586 273.898C135.976 274.753 135.505 276.706 135.505 276.706L103.947 276.736Z" fill="#263238"/>
<path d="M93.7052 132.638L96.6546 138.887C96.6546 138.887 108.85 164.078 116.319 192.924C116.496 193.61 120.36 207.273 117.263 241.301L119.033 247.27L117.101 257.131C117.101 257.131 120.006 261.325 119.903 262.696C119.903 262.696 112.736 264.03 110.317 265.312C108.459 266.314 102.878 271.82 102.878 271.82C101.292 271.496 101.152 265.098 101.152 265.098C101.152 265.098 97.8416 208.298 96.8905 205.851C95.9393 203.404 90.1292 192.85 81.06 168.699C81.06 168.699 80.8535 202.431 78.4351 210.966C76.2747 218.557 78.8333 239.805 78.8333 239.805L77.3586 263.455C77.3586 263.455 82.4609 268.754 78.3245 270.176C78.3245 270.176 75.5595 264.863 67.6848 263.654C63.6811 263.035 58.6967 270.139 58.6967 270.139C56.9419 269.579 59.4341 260.654 59.4341 260.654C53.8525 218.557 57.9594 226.178 56.8534 205.601C56.1161 192.393 52.3925 135.895 56.787 131.304L93.7052 132.638Z" fill="#BFBFBF"/>
<mask id="mask6_819_1037" style="mask-type:luminance" maskUnits="userSpaceOnUse" x="54" y="131" width="66" height="141">
<path d="M93.7052 132.638L96.6546 138.887C96.6546 138.887 108.85 164.078 116.319 192.924C116.496 193.61 120.36 207.273 117.263 241.301L119.033 247.27L117.101 257.131C117.101 257.131 120.006 261.325 119.903 262.696C119.903 262.696 112.736 264.03 110.317 265.312C108.459 266.314 102.878 271.82 102.878 271.82C101.292 271.496 101.152 265.098 101.152 265.098C101.152 265.098 97.8416 208.298 96.8905 205.851C95.9393 203.404 90.1292 192.85 81.06 168.699C81.06 168.699 80.8535 202.431 78.4351 210.966C76.2747 218.557 78.8333 239.805 78.8333 239.805L77.3586 263.455C77.3586 263.455 82.4609 268.754 78.3245 270.176C78.3245 270.176 75.5595 264.863 67.6848 263.654C63.6811 263.035 58.6967 270.139 58.6967 270.139C56.9419 269.579 59.4341 260.654 59.4341 260.654C53.8525 218.557 57.9594 226.178 56.8534 205.601C56.1161 192.393 52.3925 135.895 56.787 131.304L93.7052 132.638Z" fill="white"/>
</mask>
<g mask="url(#mask6_819_1037)">
<path opacity="0.2" d="M54.7373 152.094C74.4535 153.642 91.5227 147.193 98.9329 143.825C97.5246 140.671 96.6619 138.887 96.6619 138.887L93.7126 132.645L56.846 131.304C55.2829 132.962 54.7299 141.386 54.7373 152.094Z" fill="black"/>
<path opacity="0.2" d="M81.2591 169.134C90.2324 192.976 96.0057 203.412 96.9347 205.844C97.473 207.259 98.7928 226.546 99.8251 242.73C101.005 227.99 102.221 212.462 102.325 209.418C102.546 203.345 98.1587 195.025 97.5025 192.872C96.8462 190.72 98.3283 188.392 98.3283 188.392L90.4388 178.442C90.7043 175.067 86.5236 160.334 86.5236 160.334C84.0388 162.685 81.8268 167.689 81.2591 169.134Z" fill="black"/>
</g>
<path d="M93.7052 132.638L96.6546 138.887C96.6546 138.887 108.85 164.078 116.319 192.924C116.496 193.61 120.36 207.273 117.263 241.301L119.033 247.27L117.101 257.131C117.101 257.131 120.006 261.325 119.903 262.696C119.903 262.696 112.736 264.03 110.317 265.312C108.459 266.314 102.878 271.82 102.878 271.82C101.292 271.496 101.152 265.098 101.152 265.098C101.152 265.098 97.8416 208.298 96.8905 205.851C95.9393 203.404 90.1292 192.85 81.06 168.699C81.06 168.699 80.8535 202.431 78.4351 210.966C76.2747 218.557 78.8333 239.805 78.8333 239.805L77.3586 263.455C77.3586 263.455 82.4609 268.754 78.3245 270.176C78.3245 270.176 75.5595 264.863 67.6848 263.654C63.6811 263.035 58.6967 270.139 58.6967 270.139C56.9419 269.579 59.4341 260.654 59.4341 260.654C53.8525 218.557 57.9594 226.178 56.8534 205.601C56.1161 192.393 52.3925 135.895 56.787 131.304L93.7052 132.638Z" stroke="#263238" stroke-linecap="round" stroke-linejoin="round"/>
<path d="M81.0895 168.699C81.0895 168.699 85.5946 160.01 89.4361 157.585" stroke="#263238" stroke-linecap="round" stroke-linejoin="round"/>
<path d="M91.1319 154.77C91.1319 154.77 77.4471 158.934 72.6987 159.737" stroke="#263238" stroke-linecap="round" stroke-linejoin="round"/>
<path d="M84.1273 140.812C84.7172 152.198 88.7356 154.136 84.8646 156.62C84.8646 156.62 84.9752 161.949 83.0434 165.324" stroke="#263238" stroke-linecap="round" stroke-linejoin="round"/>
<path d="M60.1493 136.455C60.1493 136.455 61.764 153.959 56.3741 157.253" stroke="#263238" stroke-linecap="round" stroke-linejoin="round"/>
<path d="M56.3741 142.102C56.3741 142.102 55.9686 153.753 56.3741 163.143C56.3741 163.143 57.7235 202.83 59.0728 207.812C60.4221 212.794 56.9935 220.341 57.2884 241.876" stroke="#263238" stroke-linecap="round" stroke-linejoin="round"/>
<path d="M69.2922 258.73C68.0163 258.453 66.6834 258.63 65.5244 259.232" stroke="#263238" stroke-linecap="round" stroke-linejoin="round"/>
<path d="M77.4028 263.455C75.7119 261.81 73.7518 260.466 71.6074 259.482" stroke="#263238" stroke-linecap="round" stroke-linejoin="round"/>
<path d="M75.1908 171.448C72.1678 174.838 67.3751 181.228 62.4645 181.766" stroke="#263238" stroke-linecap="round" stroke-linejoin="round"/>
<path d="M79.8139 165.936C78.8849 167.107 77.9263 168.257 76.9531 169.399" stroke="#263238" stroke-linecap="round" stroke-linejoin="round"/>
<path d="M75.5079 205.6C75.5079 205.6 68.636 214.952 64.8682 215.49" stroke="#263238" stroke-linecap="round" stroke-linejoin="round"/>
<path d="M83.589 167.012C83.589 167.012 95.8287 201.083 100.083 204.444C100.083 204.444 100.562 229.502 100.703 238.25C100.843 246.998 102.856 258.628 102.856 258.628" stroke="#263238" stroke-linecap="round" stroke-linejoin="round"/>
<path d="M115.921 258.377C115.921 258.377 111.209 260.006 108.916 261.045C107.508 261.732 106.405 262.916 105.82 264.369" stroke="#263238" stroke-linecap="round" stroke-linejoin="round"/>
<path d="M103.998 192.158C97.4288 188.038 88.7651 182.886 85.2702 175.627" stroke="#263238" stroke-linecap="round" stroke-linejoin="round"/>
<path d="M109.727 195.555C108.481 194.87 107.257 194.155 106.041 193.418" stroke="#263238" stroke-linecap="round" stroke-linejoin="round"/>
<path d="M89.0232 145.417C85.4914 145.366 81.6499 144.902 78.6047 142.904" stroke="#263238" stroke-linecap="round" stroke-linejoin="round"/>
<path d="M94.6343 145.086C93.6241 145.226 92.6066 145.314 91.5891 145.366" stroke="#263238" stroke-linecap="round" stroke-linejoin="round"/>
<path d="M101.189 66.8456C98.4905 62.7627 84.7393 61.7235 75.9134 61.7235C67.0876 61.7235 56.3741 60.2495 51.5372 70.199C47.8506 77.7974 56.3447 117.979 56.3447 117.979L54.2654 135.328C70.2507 140.339 97.6352 139.234 97.6352 139.234L93.9486 123.55C93.9486 123.55 103.888 70.9212 101.189 66.8456Z" fill="#263238"/>
<path d="M70.671 51.6348C70.671 51.6348 71.8581 61.0905 68.2599 63.1319C68.2599 63.1319 70.059 70.0671 76.3706 70.5019C82.6822 70.9368 85.4693 64.1637 85.4693 64.1637L70.671 51.6348Z" fill="white" stroke="#263238" stroke-linecap="round" stroke-linejoin="round"/>
<path d="M104.119 27.3559L120.272 25.8667C120.638 25.8329 121.002 25.9459 121.285 26.1808C121.568 26.4157 121.746 26.7532 121.78 27.1191L122.843 38.6411L103.959 40.3821L102.896 28.8602C102.862 28.4993 102.972 28.1397 103.2 27.8585C103.429 27.5773 103.759 27.3969 104.119 27.3559Z" fill="#3370FF"/>
<mask id="mask7_819_1037" style="mask-type:luminance" maskUnits="userSpaceOnUse" x="102" y="25" width="21" height="16">
<path d="M104.119 27.3559L120.272 25.8667C120.638 25.8329 121.002 25.9459 121.285 26.1808C121.568 26.4157 121.746 26.7532 121.78 27.1191L122.843 38.6411L103.959 40.3821L102.896 28.8602C102.862 28.4993 102.972 28.1397 103.2 27.8585C103.429 27.5773 103.759 27.3969 104.119 27.3559Z" fill="white"/>
</mask>
<g mask="url(#mask7_819_1037)">
<path opacity="0.3" d="M104.119 27.3559L120.272 25.8667C120.638 25.8329 121.002 25.9459 121.285 26.1808C121.568 26.4157 121.746 26.7532 121.78 27.1191L122.843 38.6411L103.959 40.3821L102.896 28.8602C102.862 28.4993 102.972 28.1397 103.2 27.8585C103.429 27.5773 103.759 27.3969 104.119 27.3559Z" fill="black" fill-opacity="0.7"/>
<path opacity="0.3" d="M120.743 27.0324L116.095 27.4609L116.952 36.7519L121.6 36.3234L120.743 27.0324Z" fill="white" fill-opacity="0.7"/>
</g>
<path d="M104.119 27.3559L120.272 25.8667C120.638 25.8329 121.002 25.9459 121.285 26.1808C121.568 26.4157 121.746 26.7532 121.78 27.1191L122.843 38.6411L103.959 40.3821L102.896 28.8602C102.862 28.4993 102.972 28.1397 103.2 27.8585C103.429 27.5773 103.759 27.3969 104.119 27.3559Z" stroke="#263238" stroke-linecap="round" stroke-linejoin="round"/>
<path d="M132.047 24.7663L148.2 23.2771C148.566 23.2433 148.931 23.3563 149.213 23.5912C149.496 23.8261 149.674 24.1636 149.708 24.5295L150.771 36.0515L131.858 37.7952L130.794 26.2733C130.761 25.9073 130.874 25.543 131.109 25.2604C131.344 24.9778 131.681 24.8 132.047 24.7663Z" fill="#3370FF"/>
<mask id="mask8_819_1037" style="mask-type:luminance" maskUnits="userSpaceOnUse" x="130" y="23" width="21" height="15">
<path d="M132.047 24.7663L148.2 23.2771C148.566 23.2433 148.931 23.3563 149.213 23.5912C149.496 23.8261 149.674 24.1636 149.708 24.5295L150.771 36.0515L131.858 37.7952L130.794 26.2733C130.761 25.9073 130.874 25.543 131.109 25.2604C131.344 24.9778 131.681 24.8 132.047 24.7663Z" fill="white"/>
</mask>
<g mask="url(#mask8_819_1037)">
<path opacity="0.3" d="M132.047 24.7663L148.2 23.2771C148.566 23.2433 148.931 23.3563 149.213 23.5912C149.496 23.8261 149.674 24.1636 149.708 24.5295L150.771 36.0515L131.858 37.7952L130.794 26.2733C130.761 25.9073 130.874 25.543 131.109 25.2604C131.344 24.9778 131.681 24.8 132.047 24.7663Z" fill="black" fill-opacity="0.7"/>
<path opacity="0.3" d="M148.337 24.4963L145.532 24.7549L146.39 34.0458L149.194 33.7873L148.337 24.4963Z" fill="white" fill-opacity="0.7"/>
</g>
<path d="M132.047 24.7663L148.2 23.2771C148.566 23.2433 148.931 23.3563 149.213 23.5912C149.496 23.8261 149.674 24.1636 149.708 24.5295L150.771 36.0515L131.858 37.7952L130.794 26.2733C130.761 25.9073 130.874 25.543 131.109 25.2604C131.344 24.9778 131.681 24.8 132.047 24.7663Z" stroke="#263238" stroke-linecap="round" stroke-linejoin="round"/>
<path d="M126.179 25.303L142.331 23.8137C142.698 23.78 143.062 23.893 143.345 24.1278C143.628 24.3627 143.805 24.7002 143.839 25.0662L144.902 36.5881L125.96 38.3346L124.896 26.8126C124.879 26.6289 124.899 26.4437 124.955 26.2678C125.01 26.0919 125.101 25.9289 125.22 25.7883C125.339 25.6477 125.486 25.5323 125.65 25.449C125.815 25.3656 125.995 25.316 126.179 25.303Z" fill="#3370FF" stroke="#263238" stroke-linecap="round" stroke-linejoin="round"/>
<path d="M154.079 22.7302L170.232 21.2409C170.598 21.2072 170.962 21.3202 171.245 21.555C171.528 21.7899 171.706 22.1274 171.739 22.4934L172.803 34.0153L153.889 35.7591L152.826 24.2371C152.792 23.8712 152.905 23.5069 153.14 23.2243C153.375 22.9416 153.713 22.7639 154.079 22.7302Z" fill="#3370FF" stroke="#263238" stroke-linecap="round" stroke-linejoin="round"/>
<path opacity="0.3" d="M142.775 25.0031L138.127 25.4316L138.985 34.7226L143.632 34.2941L142.775 25.0031Z" fill="white" fill-opacity="0.7"/>
<path opacity="0.3" d="M170.369 22.4514L165.721 22.8799L166.579 32.1708L171.226 31.7423L170.369 22.4514Z" fill="white" fill-opacity="0.7"/>
<path d="M180.784 30.5711L185.68 83.5466L100.26 91.4324L95.3937 38.4423C95.3117 37.5568 95.5849 36.6751 96.1532 35.991C96.7215 35.3068 97.5383 34.8763 98.4241 34.7941L177.142 27.5347C177.58 27.4942 178.023 27.5406 178.444 27.6714C178.864 27.8022 179.255 28.0148 179.594 28.2969C179.932 28.579 180.211 28.9251 180.416 29.3154C180.62 29.7057 180.745 30.1324 180.784 30.5711Z" fill="#3370FF"/>
<mask id="mask9_819_1037" style="mask-type:luminance" maskUnits="userSpaceOnUse" x="95" y="27" width="91" height="65">
<path d="M180.784 30.5711L185.68 83.5466L100.26 91.4324L95.3937 38.4423C95.3117 37.5568 95.5849 36.6751 96.1532 35.991C96.7215 35.3068 97.5383 34.8763 98.4241 34.7941L177.142 27.5347C177.58 27.4942 178.023 27.5406 178.444 27.6714C178.864 27.8022 179.255 28.0148 179.594 28.2969C179.932 28.579 180.211 28.9251 180.416 29.3154C180.62 29.7057 180.745 30.1324 180.784 30.5711Z" fill="white"/>
</mask>
<g mask="url(#mask9_819_1037)">
<path opacity="0.3" d="M180.784 30.5711L185.68 83.5466L100.26 91.4324L95.3937 38.4423C95.3117 37.5568 95.5849 36.6751 96.1532 35.991C96.7215 35.3068 97.5383 34.8763 98.4241 34.7941L177.142 27.5347C177.58 27.4942 178.023 27.5406 178.444 27.6714C178.864 27.8022 179.255 28.0148 179.594 28.2969C179.932 28.579 180.211 28.9251 180.416 29.3154C180.62 29.7057 180.745 30.1324 180.784 30.5711Z" fill="black" fill-opacity="0.7"/>
</g>
<path d="M180.784 30.5711L185.68 83.5466L100.26 91.4324L95.3937 38.4423C95.3117 37.5568 95.5849 36.6751 96.1532 35.991C96.7215 35.3068 97.5383 34.8763 98.4241 34.7941L177.142 27.5347C177.58 27.4942 178.023 27.5406 178.444 27.6714C178.864 27.8022 179.255 28.0148 179.594 28.2969C179.932 28.579 180.211 28.9251 180.416 29.3154C180.62 29.7057 180.745 30.1324 180.784 30.5711Z" stroke="#263238" stroke-linecap="round" stroke-linejoin="round"/>
<path d="M180.784 30.5708L185.68 83.5462L122.269 89.3906L117.381 36.4152C117.299 35.5298 117.572 34.648 118.14 33.9639C118.709 33.2798 119.526 32.8493 120.411 32.7671L177.105 27.5344C177.546 27.4887 177.993 27.5313 178.418 27.6597C178.843 27.7881 179.238 27.9998 179.581 28.2824C179.923 28.565 180.206 28.9129 180.412 29.3057C180.619 29.6986 180.745 30.1286 180.784 30.5708Z" fill="#3370FF" stroke="#263238" stroke-linecap="round" stroke-linejoin="round"/>
<path opacity="0.3" d="M176.677 32.8483L122.505 37.8451C122.145 37.8698 121.789 37.7526 121.513 37.5185C121.238 37.2845 121.065 36.9521 121.031 36.5922C121.004 36.2324 121.12 35.8765 121.353 35.6009C121.586 35.3253 121.917 35.152 122.277 35.1182L176.449 30.1214C176.809 30.0967 177.165 30.214 177.441 30.448C177.716 30.6821 177.889 31.0145 177.923 31.3743C177.946 31.7333 177.829 32.0872 177.597 32.3619C177.365 32.6367 177.035 32.811 176.677 32.8483Z" fill="white" fill-opacity="0.7"/>
<path d="M81.4877 32.885C81.4877 32.885 68.9899 30.3793 67.589 38.4199C66.188 46.4606 70.7669 49.8802 70.7669 49.8802L81.4877 32.885Z" fill="#263238"/>
<path d="M70.7669 54.2945C69.3388 50.2974 69.1157 45.9693 70.1254 41.8466C71.3494 36.6876 77.4987 29.5903 86.8259 36.0391C91.626 39.3629 91.9209 46.5782 90.4241 53.1817C90.0702 54.7588 90.3356 56.2992 89.8121 57.7511C87.9688 62.8363 84.5992 66.7498 82.7559 66.8382C79.6812 66.993 73.5319 63.2712 73.7825 60.0284" fill="white"/>
<path d="M70.7669 54.2945C69.3388 50.2974 69.1157 45.9693 70.1254 41.8466C71.3494 36.6876 77.4987 29.5903 86.8259 36.0391C91.626 39.3629 91.9209 46.5782 90.4241 53.1817C90.0702 54.7588 90.3356 56.2992 89.8121 57.7511C87.9688 62.8363 84.5992 66.7498 82.7559 66.8382C79.6812 66.993 73.5319 63.2712 73.7825 60.0284" stroke="#263238" stroke-linecap="round" stroke-linejoin="round"/>
<path d="M83.2204 51.9584C83.2204 51.9584 80.7356 50.1602 78.3466 51.6342" stroke="#263238" stroke-linecap="round" stroke-linejoin="round"/>
<path d="M87.9098 51.6346C87.9098 51.6346 89.79 49.91 91.014 50.1606" stroke="#263238" stroke-linecap="round" stroke-linejoin="round"/>
<path d="M79.7107 54.7151C79.7107 55.172 79.9393 55.5479 80.2268 55.5479C80.5144 55.5479 80.7503 55.172 80.7503 54.7151C80.7503 54.2581 80.5144 53.8896 80.2268 53.8896C79.9393 53.8896 79.7107 54.2581 79.7107 54.7151Z" fill="#263238"/>
<path d="M87.9098 55.0835C88.1989 55.0835 88.4333 54.7139 88.4333 54.2581C88.4333 53.8022 88.1989 53.4326 87.9098 53.4326C87.6207 53.4326 87.3863 53.8022 87.3863 54.2581C87.3863 54.7139 87.6207 55.0835 87.9098 55.0835Z" fill="#263238"/>
<path d="M86.8554 53.373C85.9411 54.567 87.2241 59.1143 86.8554 59.4385C86.4868 59.7628 84.142 58.8416 84.142 58.8416C84.142 58.8416 83.5964 58.1488 84.7393 57.7803" stroke="#263238" stroke-linecap="round" stroke-linejoin="round"/>
<path d="M84.7762 61.7239C84.7762 61.7239 81.6277 61.7239 80.7872 60.5742" stroke="#263238" stroke-linecap="round" stroke-linejoin="round"/>
<path d="M77.2406 44.6916L76.9973 48.4945C76.9973 48.4945 74.2987 49.8874 73.6203 51.3024C73.2166 52.2292 73.069 53.2472 73.1927 54.2504C73.1927 54.2504 71.5558 51.3909 70.671 51.6267C70.3539 51.7078 70.354 52.9091 70.354 52.9091C70.354 52.9091 66.6673 44.6842 70 40.3359C73.3328 35.9876 77.2406 44.6916 77.2406 44.6916Z" fill="#757575" stroke="#263238" stroke-linecap="round" stroke-linejoin="round"/>
<path d="M72.0424 53.4332C72.0424 53.4332 71.3051 50.6694 68.8203 49.9398C66.3355 49.2102 68.0387 55.8358 70.1549 56.6981C72.271 57.5604 72.8019 58.1721 72.9272 57.3835" fill="white"/>
<path d="M72.0424 53.4332C72.0424 53.4332 71.3051 50.6694 68.8203 49.9398C66.3355 49.2102 68.0387 55.8358 70.1549 56.6981C72.271 57.5604 72.8019 58.1721 72.9272 57.3835" stroke="#263238" stroke-linecap="round" stroke-linejoin="round"/>
<path d="M68.6581 44.2129C68.4516 43.9328 67.5373 36.8429 72.2194 33.6591C76.9015 30.4752 84.813 30.8142 89.849 35.2215C94.885 39.6287 93.4545 47.2714 89.849 49.8804V46.6892C89.849 46.6892 88.19 49.8878 83.213 50.1531L84.7319 47.8094C84.7319 47.8094 82.284 49.2834 77.9706 49.1581C77.9706 49.1581 79.9982 47.5441 79.7033 46.107C79.7107 46.107 72.8609 49.9615 68.6581 44.2129Z" fill="#263238"/>
<path d="M69.5355 69.7713C66.0848 70.184 61.1742 74.6871 64.3742 82.6835C66.4166 87.754 83.1983 84.7397 83.1983 84.7397C89.4213 82.175 98.5126 72.9477 105.185 68.6658C105.185 68.6658 103.777 59.8218 102.155 61.0747C94.6122 66.8454 88.4112 67.2434 77.8895 72.2992C77.9116 72.2697 71.7033 69.5133 69.5355 69.7713Z" fill="white" stroke="#263238" stroke-linecap="round" stroke-linejoin="round"/>
<path d="M77.2406 79.5879C77.1374 82.8896 78.4941 83.4719 80.7798 84.2531Z" fill="white"/>
<path d="M77.2406 79.5879C77.1374 82.8896 78.4941 83.4719 80.7798 84.2531" stroke="#263238" stroke-linecap="round" stroke-linejoin="round"/>
<path d="M101.654 61.7232C101.808 61.2441 104.603 56.3357 105.392 55.0902C106.181 53.8446 109.705 52.717 111.069 51.9653C112.433 51.2136 112.544 50.0712 113.281 50.8893C114.019 51.7073 113.281 53.572 109.197 55.5545C110.648 55.6347 112.103 55.6347 113.554 55.5545C114.645 55.3923 115.619 54.4048 116.105 55.0902C116.592 55.7756 116.688 57.0064 114.255 57.7581C113.098 58.1774 111.885 58.4257 110.656 58.4951C111.847 58.7493 113.017 59.0892 114.159 59.5122C114.55 59.7996 115.132 60.4703 115.715 60.5734C116.297 60.6766 116.931 61.3104 115.862 62.0474C115.483 62.2569 115.058 62.3705 114.625 62.3782C114.192 62.3859 113.764 62.2875 113.377 62.0917C113.377 62.0917 116.201 63.4551 115.324 64.3026C114.446 65.1502 111.637 64.9807 111.637 64.9807C111.637 64.9807 107.471 70.0586 103.947 68.9973" fill="white"/>
<path d="M101.654 61.7232C101.808 61.2441 104.603 56.3357 105.392 55.0902C106.181 53.8446 109.705 52.717 111.069 51.9653C112.433 51.2136 112.544 50.0712 113.281 50.8893C114.019 51.7073 113.281 53.572 109.197 55.5545C110.648 55.6347 112.103 55.6347 113.554 55.5545C114.645 55.3923 115.619 54.4048 116.105 55.0902C116.592 55.7756 116.688 57.0064 114.255 57.7581C113.098 58.1774 111.885 58.4257 110.656 58.4951C111.847 58.7493 113.017 59.0892 114.159 59.5122C114.55 59.7996 115.132 60.4703 115.715 60.5734C116.297 60.6766 116.931 61.3104 115.862 62.0474C115.483 62.2569 115.058 62.3705 114.625 62.3782C114.192 62.3859 113.764 62.2875 113.377 62.0917C113.377 62.0917 116.201 63.4551 115.324 64.3026C114.446 65.1502 111.637 64.9807 111.637 64.9807C111.637 64.9807 107.471 70.0586 103.947 68.9973" stroke="#263238" stroke-linecap="round" stroke-linejoin="round"/>
<path d="M106.645 55.083C106.884 55.1383 107.102 55.2585 107.277 55.4302C107.451 55.6019 107.574 55.8184 107.633 56.0559C107.877 56.9255 108.592 56.9771 109.027 57.9499C109.462 58.9228 109.337 60.4263 109.764 60.9422C110.192 61.4581 109.764 63.6322 109.764 63.6322" stroke="#263238" stroke-linecap="round" stroke-linejoin="round"/>
<path d="M70.2581 69.1449C68.4516 66.8454 64.3963 67.8846 64.3963 67.8846" stroke="white" stroke-linecap="round" stroke-linejoin="round"/>
<path d="M62.1843 63.6475C62.1843 63.6475 66.3576 64.2592 67.5889 67.7304" stroke="white" stroke-linecap="round" stroke-linejoin="round"/>
<path d="M69.5355 85.6247C69.5355 85.6247 65.4655 88.7717 59.2719 84.2539" stroke="white" stroke-linecap="round" stroke-linejoin="round"/>
<path d="M64.3963 86.5752C64.3963 86.5752 62.3318 89.4274 57.3032 89.3905" stroke="white" stroke-linecap="round" stroke-linejoin="round"/>
<path d="M90.2619 122.46C90.2619 122.46 79.6148 130.943 68.7982 129.83" stroke="white" stroke-linecap="round" stroke-linejoin="round"/>
<path d="M61.4839 103.82C61.4839 103.82 78.0075 115.937 90.2398 116.71" stroke="white" stroke-linecap="round" stroke-linejoin="round"/>
<path d="M61.9189 193.514C64.7613 191.938 68.1032 191.521 71.2461 192.349C76.636 193.705 90.6379 213.722 92.5845 215.675C94.531 217.628 98.1735 218.623 101.528 222.154C106.837 227.688 114.557 232.582 115.339 232.582C116.12 232.582 116.747 232.096 117.72 231.904C118.693 231.712 126.229 231.027 126.229 231.027C126.229 231.027 128.758 231.587 126.229 232.671C123.7 233.754 123.892 234.719 123.892 234.719C123.892 234.719 123.383 235.537 124.4 236.319C125.418 237.1 126.015 236.672 127.468 238.729C128.92 240.785 125.418 239.62 125.418 239.62C125.418 239.62 126.192 241.831 124.636 241.61C123.081 241.389 124.445 243.77 121.916 243.445C119.386 243.121 113.974 239.709 112.618 236.134C112.618 236.134 90.5421 225.588 87.2388 222.868C83.9356 220.149 70.0295 205.564 69.0784 205.372" fill="#263238"/>
<path d="M119.674 213.266H135.895C136.263 213.266 136.616 213.412 136.876 213.671C137.135 213.931 137.282 214.284 137.282 214.651V226.222H118.288V214.651C118.288 214.284 118.434 213.931 118.694 213.671C118.954 213.412 119.306 213.266 119.674 213.266Z" fill="#3370FF"/>
<mask id="mask10_819_1037" style="mask-type:luminance" maskUnits="userSpaceOnUse" x="118" y="213" width="20" height="14">
<path d="M119.674 213.266H135.895C136.263 213.266 136.616 213.412 136.876 213.671C137.135 213.931 137.282 214.284 137.282 214.651V226.222H118.288V214.651C118.288 214.284 118.434 213.931 118.694 213.671C118.954 213.412 119.306 213.266 119.674 213.266Z" fill="white"/>
</mask>
<g mask="url(#mask10_819_1037)">
<path opacity="0.3" d="M119.674 213.266H135.895C136.263 213.266 136.616 213.412 136.876 213.671C137.135 213.931 137.282 214.284 137.282 214.651V226.222H118.288V214.651C118.288 214.284 118.434 213.931 118.694 213.671C118.954 213.412 119.306 213.266 119.674 213.266Z" fill="black" fill-opacity="0.7"/>
<path opacity="0.3" d="M136.227 214.489H131.56V223.82H136.227V214.489Z" fill="white" fill-opacity="0.7"/>
</g>
<path d="M119.674 213.266H135.895C136.263 213.266 136.616 213.412 136.876 213.671C137.135 213.931 137.282 214.284 137.282 214.651V226.222H118.288V214.651C118.288 214.284 118.434 213.931 118.694 213.671C118.954 213.412 119.306 213.266 119.674 213.266Z" stroke="#263238" stroke-linecap="round" stroke-linejoin="round"/>
<path d="M147.693 213.266H163.914C164.282 213.266 164.634 213.412 164.894 213.671C165.154 213.931 165.3 214.284 165.3 214.651V226.222H146.306V214.651C146.306 214.469 146.342 214.289 146.412 214.121C146.482 213.953 146.584 213.8 146.712 213.671C146.841 213.543 146.994 213.441 147.162 213.371C147.33 213.301 147.511 213.266 147.693 213.266Z" fill="#3370FF"/>
<mask id="mask11_819_1037" style="mask-type:luminance" maskUnits="userSpaceOnUse" x="146" y="213" width="20" height="14">
<path d="M147.693 213.266H163.914C164.282 213.266 164.634 213.412 164.894 213.671C165.154 213.931 165.3 214.284 165.3 214.651V226.222H146.306V214.651C146.306 214.469 146.342 214.289 146.412 214.121C146.482 213.953 146.584 213.8 146.712 213.671C146.841 213.543 146.994 213.441 147.162 213.371C147.33 213.301 147.511 213.266 147.693 213.266Z" fill="white"/>
</mask>
<g mask="url(#mask11_819_1037)">
<path opacity="0.3" d="M147.693 213.266H163.914C164.282 213.266 164.634 213.412 164.894 213.671C165.154 213.931 165.3 214.284 165.3 214.651V226.222H146.306V214.651C146.306 214.469 146.342 214.289 146.412 214.121C146.482 213.953 146.584 213.8 146.712 213.671C146.841 213.543 146.994 213.441 147.162 213.371C147.33 213.301 147.511 213.266 147.693 213.266Z" fill="black" fill-opacity="0.7"/>
<path opacity="0.3" d="M163.936 214.489H161.119V223.82H163.936V214.489Z" fill="white" fill-opacity="0.7"/>
</g>
<path d="M147.693 213.266H163.914C164.282 213.266 164.634 213.412 164.894 213.671C165.154 213.931 165.3 214.284 165.3 214.651V226.222H146.306V214.651C146.306 214.469 146.342 214.289 146.412 214.121C146.482 213.953 146.584 213.8 146.712 213.671C146.841 213.543 146.994 213.441 147.162 213.371C147.33 213.301 147.511 213.266 147.693 213.266Z" stroke="#263238" stroke-linecap="round" stroke-linejoin="round"/>
<path d="M141.794 213.266H158.015C158.383 213.266 158.736 213.412 158.995 213.671C159.255 213.931 159.401 214.284 159.401 214.651V226.222H140.408V214.651C140.408 214.469 140.444 214.289 140.513 214.121C140.583 213.953 140.685 213.8 140.814 213.671C140.943 213.543 141.095 213.441 141.264 213.371C141.432 213.301 141.612 213.266 141.794 213.266Z" fill="#3370FF" stroke="#263238" stroke-linecap="round" stroke-linejoin="round"/>
<path d="M169.813 213.266H186.034C186.402 213.266 186.754 213.412 187.014 213.671C187.274 213.931 187.42 214.284 187.42 214.651V226.222H168.426V214.651C168.426 214.284 168.572 213.931 168.832 213.671C169.092 213.412 169.445 213.266 169.813 213.266Z" fill="#3370FF" stroke="#263238" stroke-linecap="round" stroke-linejoin="round"/>
<path opacity="0.3" d="M158.347 214.489H153.68V223.82H158.347V214.489Z" fill="white" fill-opacity="0.7"/>
<path opacity="0.3" d="M186.056 214.489H181.389V223.82H186.056V214.489Z" fill="white" fill-opacity="0.7"/>
<path d="M195.686 223.524V276.728H109.927V223.524C109.927 222.635 110.28 221.782 110.909 221.153C111.538 220.524 112.392 220.171 113.281 220.171H192.331C193.22 220.171 194.074 220.524 194.703 221.153C195.332 221.782 195.686 222.635 195.686 223.524Z" fill="#3370FF"/>
<mask id="mask12_819_1037" style="mask-type:luminance" maskUnits="userSpaceOnUse" x="109" y="220" width="87" height="57">
<path d="M195.686 223.524V276.728H109.927V223.524C109.927 222.635 110.28 221.782 110.909 221.153C111.538 220.524 112.392 220.171 113.281 220.171H192.331C193.22 220.171 194.074 220.524 194.703 221.153C195.332 221.782 195.686 222.635 195.686 223.524Z" fill="white"/>
</mask>
<g mask="url(#mask12_819_1037)">
<path opacity="0.3" d="M195.686 223.524V276.728H109.927V223.524C109.927 222.635 110.28 221.782 110.909 221.153C111.538 220.524 112.392 220.171 113.281 220.171H192.331C193.22 220.171 194.074 220.524 194.703 221.153C195.332 221.782 195.686 222.635 195.686 223.524Z" fill="black" fill-opacity="0.7"/>
</g>
<path d="M195.686 223.524V276.728H109.927V223.524C109.927 222.635 110.28 221.782 110.909 221.153C111.538 220.524 112.392 220.171 113.281 220.171H192.331C193.22 220.171 194.074 220.524 194.703 221.153C195.332 221.782 195.686 222.635 195.686 223.524Z" stroke="#263238" stroke-linecap="round" stroke-linejoin="round"/>
<path d="M195.686 223.524V276.728H132.046V223.524C132.046 222.635 132.4 221.782 133.029 221.153C133.658 220.524 134.512 220.171 135.401 220.171H192.331C193.22 220.171 194.074 220.524 194.703 221.153C195.332 221.782 195.686 222.635 195.686 223.524Z" fill="#3370FF" stroke="#263238" stroke-linecap="round" stroke-linejoin="round"/>
<path opacity="0.3" d="M191.38 225.419H136.979C136.612 225.419 136.259 225.273 135.999 225.013C135.739 224.753 135.593 224.401 135.593 224.033C135.589 223.849 135.622 223.665 135.69 223.494C135.758 223.322 135.859 223.166 135.988 223.034C136.118 222.903 136.272 222.798 136.442 222.726C136.612 222.655 136.795 222.618 136.979 222.618H191.38C191.747 222.618 192.1 222.764 192.36 223.024C192.62 223.284 192.766 223.636 192.766 224.004C192.77 224.188 192.737 224.371 192.669 224.543C192.601 224.715 192.499 224.871 192.37 225.003C192.241 225.134 192.087 225.239 191.917 225.311C191.747 225.382 191.564 225.419 191.38 225.419Z" fill="white" fill-opacity="0.7"/>
<path d="M90.6748 276.728C86.2508 276.728 80.0351 273.883 72.8756 270.876C65.4507 267.751 56.9935 264.45 48.411 263.956C45.211 263.772 47.1501 276.728 47.1501 276.728H40.1455C40.1455 276.728 33.2293 267.501 32.4256 259.239C32.4256 259.239 38.0736 255.753 39.4303 255.554C39.8981 255.505 40.3683 255.483 40.8386 255.488C42.3575 255.488 44.3851 255.554 44.3851 255.554C44.0607 255.363 38.892 252.252 36.0386 249.091C33.6865 246.482 32.61 242.362 32.5289 239.9C32.62 238.27 32.7997 236.647 33.0671 235.036L69.8747 235.648C69.8747 235.648 70.2728 235.928 70.9807 236.451C75.2498 239.561 90.8518 251.147 98.6527 259.88C101.174 262.703 102.878 265.224 103.128 267.066C104.301 275.564 97.3477 276.728 90.6748 276.728Z" fill="#757575" stroke="#263238" stroke-linecap="round" stroke-linejoin="round"/>
<path d="M98.6601 259.866L80.7577 263.956C77.6884 265.711 75.003 268.065 72.8609 270.877C65.4359 267.752 56.9788 264.45 48.3962 263.956C45.1962 263.772 47.1354 276.728 47.1354 276.728H40.1307C40.1307 276.728 33.2293 267.501 32.4256 259.24C32.4256 259.24 38.9436 268.526 40.5363 273.242C40.5363 273.242 43.0653 264.516 47.1723 261.016C45.3173 258.927 43.2096 257.078 40.8976 255.51C42.4165 255.51 44.4441 255.577 44.4441 255.577C44.1197 255.385 38.951 252.275 36.0975 249.113C33.7455 246.504 32.7943 242.377 32.5878 239.923C32.4846 238.714 32.6321 235.059 32.6321 235.059C32.6321 235.059 60.0829 238.972 71.0397 236.474C75.2572 239.569 90.8591 251.133 98.6601 259.866Z" fill="#263238"/>
<path d="M69.882 259.239C69.882 259.239 84.4665 266.543 88.3596 269.402C92.2527 272.262 93.4103 271.488 93.4103 271.488" stroke="#263238" stroke-linecap="round" stroke-linejoin="round"/>
<path d="M36.0459 258.466C36.0459 258.466 39.5483 263.809 39.7326 265.408" stroke="#263238" stroke-linecap="round" stroke-linejoin="round"/>
<path d="M94.708 155.905C94.708 155.905 102.472 152.529 101.735 166.886C100.997 181.243 103.63 181.98 103.63 181.98C103.63 181.98 84.0904 189.998 79.1282 183.144C74.166 176.29 78.8775 157.534 94.708 155.905Z" fill="#263238"/>
<path d="M93.6241 181.98C93.6241 181.98 85.5872 185.769 84.8573 189.269C84.1273 192.77 74.0627 187.501 74.0627 187.501L81.355 177.021L93.6241 181.98Z" fill="white" stroke="#263238" stroke-linecap="round" stroke-linejoin="round"/>
<path d="M40.9271 220.407C22.4938 243.873 37.4542 255.193 58.3502 253.321L54.1622 259.954L64.6765 261.774C64.6765 261.774 72.7355 256.512 83.7218 250.889C102.42 241.308 109.978 241.883 108.054 232.294C106.129 222.706 83.213 216.486 60.2378 226.59C60.2156 226.583 47.74 211.769 40.9271 220.407Z" fill="#757575" stroke="#263238" stroke-linecap="round" stroke-linejoin="round"/>
<path d="M47.3566 271.488C47.3566 271.488 52.1566 258.222 54.1621 257.485C56.1677 256.748 63.7475 259.622 64.6765 261.76C64.6765 261.76 67.235 257.839 68.282 259.504C69.3291 261.17 67.8175 263.926 68.282 266.034C68.7466 268.142 73.93 271.09 76.0019 271.481C78.0738 271.871 79.2535 273.036 79.2535 274.2V276.728H47.3566C47.0027 275.9 46.8202 275.009 46.8202 274.108C46.8202 273.208 47.0027 272.316 47.3566 271.488Z" fill="white" stroke="#263238" stroke-linecap="round" stroke-linejoin="round"/>
<path d="M68.2821 263.956C68.2821 263.956 64.0571 266.042 62.5161 265.43C60.9751 264.818 63.3051 268.931 63.8876 269.321C64.47 269.712 68.3115 267.958 68.3115 267.958" stroke="#263238" stroke-linecap="round" stroke-linejoin="round"/>
<path d="M51.3456 261.768C51.3456 261.768 57.082 261.878 58.8295 263.979" stroke="#263238" stroke-linecap="round" stroke-linejoin="round"/>
<path d="M47.3566 271.488C47.3566 271.488 56.4995 273.626 57.2737 273.626C58.5311 273.376 59.7645 273.019 60.9603 272.557C60.9603 272.557 63.4673 273.817 65.1336 274.598C66.8 275.38 77.6683 274.598 77.6683 274.598" stroke="#263238" stroke-linecap="round" stroke-linejoin="round"/>
<path d="M58.3502 253.335C67.0802 252.392 84.0388 241.639 89.9375 237.903C95.8361 234.166 97.3108 235.146 97.3108 235.146" stroke="#263238" stroke-linecap="round" stroke-linejoin="round"/>
<path d="M32.5805 235.021L33.974 224.446L37.3363 221.91C42.7851 208.696 67.471 184.014 74.2028 184.095C84.3116 184.213 86.096 194.818 87.3421 206.426C88.5882 218.034 72.8388 216.287 72.8388 216.287V219.198L63.8802 223.834L69.307 223.664C69.307 223.664 53.6976 238.832 32.5805 235.021Z" fill="#3370FF" stroke="#263238" stroke-linecap="round" stroke-linejoin="round"/>
<path d="M76.3337 163.658C78.4498 157.025 88.131 155.257 91.6112 156.34C94.468 157.455 96.8091 159.59 98.1808 162.332C99.0656 164.241 97.2149 167.616 98.5348 169.584C100.422 172.407 100.26 178.362 99.5818 182.113C99.2131 184.103 90.9329 185.282 84.1642 180.639C76.8941 175.613 74.2839 170.041 76.3337 163.658Z" fill="white" stroke="#263238" stroke-linecap="round" stroke-linejoin="round"/>
<path d="M86.1181 154.357C86.1181 154.357 94.6417 152.972 94.7006 155.161C95.0767 169.702 86.354 172.753 86.354 172.753C86.354 172.753 82.7927 169.915 81.9964 171.861C81.2001 173.807 83.2499 179.187 85.7716 179.297C85.1904 180.2 84.8729 181.246 84.8546 182.319C84.8364 183.392 85.1182 184.449 85.6683 185.37C85.6683 185.37 71.2314 187.78 70.0369 181.096C70.595 178.772 70.9941 176.413 71.2314 174.035C72.1678 164.668 69.9779 158.367 86.1181 154.357Z" fill="#263238"/>
<path d="M97.5025 169.179C99.2795 170.778 100.555 170.778 100.533 171.353C100.467 173.144 98.3209 174.036 98.3209 174.036" fill="white"/>
<path d="M97.5025 169.179C99.2795 170.778 100.555 170.778 100.533 171.353C100.467 173.144 98.3209 174.036 98.3209 174.036" stroke="#263238" stroke-linecap="round" stroke-linejoin="round"/>
<path d="M98.2767 177.021C97.0211 177.445 95.666 177.479 94.3909 177.116" stroke="#263238" stroke-linecap="round" stroke-linejoin="round"/>
<path d="M93.5504 160.253C93.5504 160.253 99.2205 158.61 98.1808 167.807C98.1808 167.807 100.54 164.601 100.533 160.998C100.533 154.755 92.179 156.008 92.179 156.008L93.2702 160.43" fill="#263238"/>
<path d="M98.7043 164.756C98.4897 164.614 98.2483 164.516 97.9949 164.469C97.7415 164.422 97.4812 164.427 97.2297 164.484" stroke="#263238" stroke-linecap="round" stroke-linejoin="round"/>
<path d="M94.885 164.653C94.885 164.653 91.8398 164.83 90.52 166.864" stroke="#263238" stroke-linecap="round" stroke-linejoin="round"/>
<path d="M94.155 169.495C94.1993 169.981 93.9928 170.401 93.6905 170.431C93.3882 170.46 93.108 170.084 93.0564 169.598C93.0048 169.111 93.2186 168.691 93.5209 168.662C93.8232 168.632 94.1108 169.008 94.155 169.495Z" fill="#263238"/>
<path d="M58.8295 255.548C58.8295 255.548 65.6129 256.285 67.0876 259.233" stroke="#263238" stroke-linecap="round" stroke-linejoin="round"/>
<path d="M76.0019 189.07C78.8444 187.493 82.1862 187.076 85.3292 187.905C90.7264 189.268 104.721 209.278 106.668 211.231C108.614 213.184 112.257 214.179 115.611 217.709C120.92 223.244 128.64 228.138 129.422 228.138C130.203 228.138 130.83 227.651 131.803 227.46C132.776 227.268 140.312 226.583 140.312 226.583C140.312 226.583 142.841 227.15 140.312 228.226C137.783 229.302 137.975 230.282 137.975 230.282C137.975 230.282 137.473 231.093 138.483 231.874C139.494 232.656 140.098 232.228 141.551 234.284C143.003 236.341 139.501 235.176 139.501 235.176C139.501 235.176 140.275 237.387 138.719 237.166C137.164 236.945 138.528 239.325 135.999 239.001C133.47 238.677 128.058 235.265 126.701 231.69C126.701 231.69 104.625 221.144 101.322 218.424C98.0186 215.705 84.1273 201.119 83.1467 200.928" fill="white"/>
<path d="M76.0019 189.07C78.8444 187.493 82.1862 187.076 85.3292 187.905C90.7264 189.268 104.721 209.278 106.668 211.231C108.614 213.184 112.257 214.179 115.611 217.709C120.92 223.244 128.64 228.138 129.422 228.138C130.203 228.138 130.83 227.651 131.803 227.46C132.776 227.268 140.312 226.583 140.312 226.583C140.312 226.583 142.841 227.15 140.312 228.226C137.783 229.302 137.975 230.282 137.975 230.282C137.975 230.282 137.473 231.093 138.483 231.874C139.494 232.656 140.098 232.228 141.551 234.284C143.003 236.341 139.501 235.176 139.501 235.176C139.501 235.176 140.275 237.387 138.719 237.166C137.164 236.945 138.528 239.325 135.999 239.001C133.47 238.677 128.058 235.265 126.701 231.69C126.701 231.69 104.625 221.144 101.322 218.424C98.0186 215.705 84.1273 201.119 83.1467 200.928" stroke="#263238" stroke-linecap="round" stroke-linejoin="round"/>
<path d="M72.8314 186.932C72.8314 186.932 83.7144 184.021 87.5117 186.158C91.3089 188.295 98.5053 198.208 98.5053 198.208C98.5053 198.208 89.731 206.057 87.0176 205.342C84.3043 204.627 76.0019 203.455 76.0019 203.455" fill="#3370FF"/>
<path d="M72.8314 186.932C72.8314 186.932 83.7144 184.021 87.5117 186.158C91.3089 188.295 98.5053 198.208 98.5053 198.208C98.5053 198.208 89.731 206.057 87.0176 205.342C84.3043 204.627 76.0019 203.455 76.0019 203.455" stroke="#263238" stroke-linecap="round" stroke-linejoin="round"/>
<path d="M82.2692 204.415C82.2692 204.415 78.3245 206.582 76.872 206.582" stroke="#263238" stroke-linecap="round" stroke-linejoin="round"/>
<path d="M76.0019 193.544C76.3337 194.126 76.2231 200.501 83.1467 202.484" stroke="#263238" stroke-linecap="round" stroke-linejoin="round"/>
<path d="M38.9952 222.117C38.9952 222.117 53.7419 224.644 58.8294 220.171" stroke="#263238" stroke-linecap="round" stroke-linejoin="round"/>
<path d="M63.8728 223.834C63.8728 223.834 60.1862 223.185 58.8295 225.079C57.4728 226.973 50.0847 228.764 50.0847 228.764" stroke="#263238" stroke-linecap="round" stroke-linejoin="round"/>
<path d="M34.2321 237.903C34.2321 237.903 32.1012 247.086 41.1925 251.169" stroke="#263238" stroke-linecap="round" stroke-linejoin="round"/>
<path d="M38.9953 238.537C38.9953 238.537 39.0469 243.063 40.4699 245.539L44.9898 247.013L50.0479 244.197C50.0479 244.197 48.9714 238.412 48.8755 237.24" stroke="#263238" stroke-linecap="round" stroke-linejoin="round"/>
</g>
<defs>
<clipPath id="clip0_819_1037">
<rect width="289" height="286" fill="white"/>
</clipPath>
</defs>
</svg>
