<svg width="1538" height="525" viewBox="0 0 1538 525" fill="none" xmlns="http://www.w3.org/2000/svg">
<g clip-path="url(#clip0_352_868)">
<rect width="1538" height="525" rx="40" fill="#171717"/>
<g opacity="0.6" filter="url(#filter0_f_352_868)">
<ellipse cx="607.5" cy="387.21" rx="578.5" ry="386" fill="#2F72E3" fill-opacity="0.5"/>
</g>
<g opacity="0.6" filter="url(#filter1_f_352_868)">
<circle cx="160" cy="537.21" r="386" fill="#2F72E3" fill-opacity="0.5"/>
</g>
<g filter="url(#filter2_f_352_868)">
<path d="M405.341 261.826C216.705 260.637 -32.2636 322.499 -0.187891 682.965C525.752 707.155 1585.58 755.058 1617.35 753.155C1657.06 750.776 1961.78 432.542 1973.23 423.62C1984.69 414.697 2035.86 333.801 1707.46 125.61C1379.07 -82.5796 1101.84 77.5778 909.389 182.714C716.934 287.85 593.977 263.016 405.341 261.826Z" fill="#2F72E3" fill-opacity="0.5"/>
</g>
<mask id="mask0_352_868" style="mask-type:alpha" maskUnits="userSpaceOnUse" x="893" y="8" width="854" height="741">
<ellipse cx="1319.81" cy="378.343" rx="484.544" ry="289.781" transform="rotate(-36.2854 1319.81 378.343)" fill="url(#paint0_radial_352_868)"/>
</mask>
<g mask="url(#mask0_352_868)">
<path d="M895.485 637.45C835.037 660.65 821.756 684.417 785.999 740.119L1367.84 956.282C1516.09 730.72 1773.05 298.772 1671.02 257.937C1564.25 215.207 1401.49 233.004 1301.67 281.917C1201.85 330.829 1121.4 494.131 1083.61 552.25C1048.6 606.095 955.933 614.249 895.485 637.45Z" fill="#2F72E3" fill-opacity="0.3"/>
<g filter="url(#filter3_f_352_868)">
<path d="M895.485 636.45C835.037 659.65 821.756 683.417 785.999 739.119L1367.84 955.282C1516.09 729.72 1736.53 232.044 1634.5 191.209C1553.82 158.919 1407.17 236.533 1332 281.131C1307.7 295.549 1324.89 311.889 1309.67 312.917C1198.76 320.403 1121.4 493.131 1083.61 551.25C1048.6 605.095 955.933 613.249 895.485 636.45Z" fill="#2F72E3" fill-opacity="0.3"/>
</g>
<g filter="url(#filter4_f_352_868)">
<path d="M879.485 629.45C819.037 652.65 805.756 676.417 769.999 732.119L1367.84 956.282C1516.09 730.72 1645.05 274.772 1543.02 233.937C1447.31 195.633 1391.89 241.111 1314.5 285.555C1305.56 290.69 1320 292.851 1309.67 297.917C1209.85 346.829 1105.4 486.131 1067.61 544.25C1032.6 598.095 939.933 606.249 879.485 629.45Z" fill="#2F72E3" fill-opacity="0.3"/>
</g>
<g filter="url(#filter5_f_352_868)">
<path d="M863.485 621.45C803.037 644.65 789.756 668.417 753.999 724.119L1367.84 956.282C1516.09 730.72 1797.05 218.772 1695.02 177.937C1608.9 143.471 1456.55 227.204 1362 264.115C1339.33 272.965 1325.97 290.458 1306.67 299.917C1206.85 348.829 1089.4 478.131 1051.61 536.25C1016.6 590.095 923.933 598.249 863.485 621.45Z" fill="#2F72E3" fill-opacity="0.3"/>
</g>
<g filter="url(#filter6_f_352_868)">
<path d="M804.485 599.6C744.037 622.801 730.756 646.567 694.999 702.27L1324.84 950.432C1473.09 724.87 1602.05 268.923 1500.02 228.088C1420.88 196.417 1360.71 261.581 1323 285.01C1309.83 293.191 1347.6 307.209 1319 307.209C1208.5 307.209 1229.39 423.519 1047.5 500.209C988.316 525.163 864.933 576.399 804.485 599.6Z" fill="#2F72E3" fill-opacity="0.3"/>
</g>
</g>
<g opacity="0.6" filter="url(#filter7_f_352_868)">
<circle cx="1467.5" cy="522.711" r="164.5" fill="#2F72E3" fill-opacity="0.5"/>
</g>
<g opacity="0.6" filter="url(#filter8_f_352_868)">
<ellipse cx="1059.81" cy="479.291" rx="164.5" ry="48.7174" transform="rotate(-41.2443 1059.81 479.291)" fill="#28009B" fill-opacity="0.5"/>
</g>
<mask id="mask1_352_868" style="mask-type:alpha" maskUnits="userSpaceOnUse" x="-597" y="63" width="1469" height="839">
<path d="M-409.898 901.983C-454.609 643.381 -593.498 256.58 -597 243.924L871.741 63.2704L778.071 694.126L-409.898 901.983Z" fill="url(#paint1_linear_352_868)"/>
</mask>
<g mask="url(#mask1_352_868)">
<path d="M32.3942 330.598C166.382 307.155 292.422 363.96 304.425 432.558C316.427 501.156 277.94 600.668 134.183 625.821C62.9443 638.286 -15.5293 699.276 -106.144 679.925C-198.386 660.225 -195.165 563.238 -201.219 528.634C-213.222 460.036 -101.593 354.042 32.3942 330.598Z" fill="#2F72E3" fill-opacity="0.3"/>
<g filter="url(#filter9_f_352_868)">
<path d="M31.8172 336.754C175.515 311.612 289.864 359.388 300.181 418.353C310.498 477.317 269.821 564.184 126.123 589.327C54.9134 601.786 -24.3833 657.864 -114.124 643.303C-205.476 628.482 -199.964 544.635 -205.169 514.89C-215.486 455.925 -111.881 361.897 31.8172 336.754Z" fill="#2F72E3" fill-opacity="0.3"/>
</g>
<g filter="url(#filter10_f_352_868)">
<path d="M36.1705 335.994C197.228 307.814 326.681 368.733 339.4 441.429C352.12 514.125 308.046 620.158 146.988 648.338C67.1763 662.303 -19.7119 736.516 -120.869 716.906C-223.844 696.944 -220.319 587.807 -226.735 551.135C-239.455 478.439 -124.887 364.174 36.1705 335.994Z" fill="#2F72E3" fill-opacity="0.3"/>
</g>
<g filter="url(#filter11_f_352_868)">
<path d="M56.2646 341.351C258.233 324.391 439.441 389.858 454.328 474.94C469.214 560.021 384.381 669.657 191.225 703.454C95.506 720.201 -11.3169 834.46 -132.452 811.989C-255.763 789.114 -249.743 668.468 -257.253 625.549C-272.139 540.468 -177.704 360.999 56.2646 341.351Z" fill="#2F72E3" fill-opacity="0.3"/>
</g>
<g filter="url(#filter12_f_352_868)">
<path d="M129.285 364.061C337.264 327.672 535.492 405.963 550.046 489.148C564.601 572.332 471.664 681.273 263.685 717.663C160.621 735.696 41.0367 789.338 -88.6597 769.338C-220.686 748.979 -212.194 630.567 -219.536 588.604C-234.091 505.42 -78.6947 400.451 129.285 364.061Z" fill="#2F72E3" fill-opacity="0.3"/>
</g>
<g filter="url(#filter13_f_352_868)">
<path d="M216.043 383.103C430.97 345.497 635.616 425.242 650.503 510.323C665.389 595.404 569.181 707.031 354.254 744.636C247.747 763.272 124.109 818.369 -9.84394 798.141C-146.203 777.549 -137.216 656.384 -144.726 613.464C-159.612 528.383 1.11514 420.708 216.043 383.103Z" fill="#2F72E3" fill-opacity="0.3"/>
</g>
<g filter="url(#filter14_f_352_868)">
<path d="M52.0216 397.856C240.083 364.952 421.601 448.743 436.487 533.824C451.374 618.905 369.203 728.076 181.142 760.981C87.948 777.287 -21.2465 819.717 -139.382 796.721C-259.639 773.312 -254.314 652.788 -261.823 609.868C-276.71 524.787 -136.04 430.761 52.0216 397.856Z" fill="#2F72E3" fill-opacity="0.3"/>
</g>
</g>
</g>
<defs>
<filter id="filter0_f_352_868" x="-383" y="-410.79" width="1981" height="1596" filterUnits="userSpaceOnUse" color-interpolation-filters="sRGB">
<feFlood flood-opacity="0" result="BackgroundImageFix"/>
<feBlend mode="normal" in="SourceGraphic" in2="BackgroundImageFix" result="shape"/>
<feGaussianBlur stdDeviation="206" result="effect1_foregroundBlur_352_868"/>
</filter>
<filter id="filter1_f_352_868" x="-638" y="-260.79" width="1596" height="1596" filterUnits="userSpaceOnUse" color-interpolation-filters="sRGB">
<feFlood flood-opacity="0" result="BackgroundImageFix"/>
<feBlend mode="normal" in="SourceGraphic" in2="BackgroundImageFix" result="shape"/>
<feGaussianBlur stdDeviation="206" result="effect1_foregroundBlur_352_868"/>
</filter>
<filter id="filter2_f_352_868" x="-159" y="-131.79" width="2298" height="1041" filterUnits="userSpaceOnUse" color-interpolation-filters="sRGB">
<feFlood flood-opacity="0" result="BackgroundImageFix"/>
<feBlend mode="normal" in="SourceGraphic" in2="BackgroundImageFix" result="shape"/>
<feGaussianBlur stdDeviation="78" result="effect1_foregroundBlur_352_868"/>
</filter>
<filter id="filter3_f_352_868" x="765.999" y="163.56" width="914.56" height="811.721" filterUnits="userSpaceOnUse" color-interpolation-filters="sRGB">
<feFlood flood-opacity="0" result="BackgroundImageFix"/>
<feBlend mode="normal" in="SourceGraphic" in2="BackgroundImageFix" result="shape"/>
<feGaussianBlur stdDeviation="10" result="effect1_foregroundBlur_352_868"/>
</filter>
<filter id="filter4_f_352_868" x="741.999" y="191.557" width="865.542" height="792.724" filterUnits="userSpaceOnUse" color-interpolation-filters="sRGB">
<feFlood flood-opacity="0" result="BackgroundImageFix"/>
<feBlend mode="normal" in="SourceGraphic" in2="BackgroundImageFix" result="shape"/>
<feGaussianBlur stdDeviation="14" result="effect1_foregroundBlur_352_868"/>
</filter>
<filter id="filter5_f_352_868" x="717.999" y="133.789" width="1034.83" height="858.493" filterUnits="userSpaceOnUse" color-interpolation-filters="sRGB">
<feFlood flood-opacity="0" result="BackgroundImageFix"/>
<feBlend mode="normal" in="SourceGraphic" in2="BackgroundImageFix" result="shape"/>
<feGaussianBlur stdDeviation="18" result="effect1_foregroundBlur_352_868"/>
</filter>
<filter id="filter6_f_352_868" x="642.999" y="167.572" width="945.541" height="834.859" filterUnits="userSpaceOnUse" color-interpolation-filters="sRGB">
<feFlood flood-opacity="0" result="BackgroundImageFix"/>
<feBlend mode="normal" in="SourceGraphic" in2="BackgroundImageFix" result="shape"/>
<feGaussianBlur stdDeviation="26" result="effect1_foregroundBlur_352_868"/>
</filter>
<filter id="filter7_f_352_868" x="1091" y="146.211" width="753" height="753" filterUnits="userSpaceOnUse" color-interpolation-filters="sRGB">
<feFlood flood-opacity="0" result="BackgroundImageFix"/>
<feBlend mode="normal" in="SourceGraphic" in2="BackgroundImageFix" result="shape"/>
<feGaussianBlur stdDeviation="106" result="effect1_foregroundBlur_352_868"/>
</filter>
<filter id="filter8_f_352_868" x="719.984" y="152.791" width="679.643" height="653.001" filterUnits="userSpaceOnUse" color-interpolation-filters="sRGB">
<feFlood flood-opacity="0" result="BackgroundImageFix"/>
<feBlend mode="normal" in="SourceGraphic" in2="BackgroundImageFix" result="shape"/>
<feGaussianBlur stdDeviation="106" result="effect1_foregroundBlur_352_868"/>
</filter>
<filter id="filter9_f_352_868" x="-213.417" y="322.355" width="522.653" height="330.883" filterUnits="userSpaceOnUse" color-interpolation-filters="sRGB">
<feFlood flood-opacity="0" result="BackgroundImageFix"/>
<feBlend mode="normal" in="SourceGraphic" in2="BackgroundImageFix" result="shape"/>
<feGaussianBlur stdDeviation="3.76999" result="effect1_foregroundBlur_352_868"/>
</filter>
<filter id="filter10_f_352_868" x="-254.089" y="302.577" width="621.938" height="443.996" filterUnits="userSpaceOnUse" color-interpolation-filters="sRGB">
<feFlood flood-opacity="0" result="BackgroundImageFix"/>
<feBlend mode="normal" in="SourceGraphic" in2="BackgroundImageFix" result="shape"/>
<feGaussianBlur stdDeviation="13.195" result="effect1_foregroundBlur_352_868"/>
</filter>
<filter id="filter11_f_352_868" x="-296.463" y="300.961" width="790.155" height="551.644" filterUnits="userSpaceOnUse" color-interpolation-filters="sRGB">
<feFlood flood-opacity="0" result="BackgroundImageFix"/>
<feBlend mode="normal" in="SourceGraphic" in2="BackgroundImageFix" result="shape"/>
<feGaussianBlur stdDeviation="18.8499" result="effect1_foregroundBlur_352_868"/>
</filter>
<filter id="filter12_f_352_868" x="-322.27" y="253.114" width="975.582" height="622.413" filterUnits="userSpaceOnUse" color-interpolation-filters="sRGB">
<feFlood flood-opacity="0" result="BackgroundImageFix"/>
<feBlend mode="normal" in="SourceGraphic" in2="BackgroundImageFix" result="shape"/>
<feGaussianBlur stdDeviation="50.8948" result="effect1_foregroundBlur_352_868"/>
</filter>
<filter id="filter13_f_352_868" x="-398.271" y="120.952" width="1302.86" height="934.174" filterUnits="userSpaceOnUse" color-interpolation-filters="sRGB">
<feFlood flood-opacity="0" result="BackgroundImageFix"/>
<feBlend mode="normal" in="SourceGraphic" in2="BackgroundImageFix" result="shape"/>
<feGaussianBlur stdDeviation="126.295" result="effect1_foregroundBlur_352_868"/>
</filter>
<filter id="filter14_f_352_868" x="-379.773" y="273.665" width="934.839" height="646.609" filterUnits="userSpaceOnUse" color-interpolation-filters="sRGB">
<feFlood flood-opacity="0" result="BackgroundImageFix"/>
<feBlend mode="normal" in="SourceGraphic" in2="BackgroundImageFix" result="shape"/>
<feGaussianBlur stdDeviation="58.4348" result="effect1_foregroundBlur_352_868"/>
</filter>
<radialGradient id="paint0_radial_352_868" cx="0" cy="0" r="1" gradientUnits="userSpaceOnUse" gradientTransform="translate(1402.85 331.94) rotate(103.875) scale(346.288 557.278)">
<stop offset="0.120131" stop-color="#C4C4C4"/>
<stop offset="0.692585" stop-color="#C4C4C4" stop-opacity="0"/>
</radialGradient>
<linearGradient id="paint1_linear_352_868" x1="-1.72409" y1="309.151" x2="83.6759" y2="733.205" gradientUnits="userSpaceOnUse">
<stop stop-color="#C4C4C4"/>
<stop offset="1" stop-color="#C4C4C4" stop-opacity="0"/>
</linearGradient>
<clipPath id="clip0_352_868">
<rect width="1538" height="525" rx="40" fill="white"/>
</clipPath>
</defs>
</svg>
