<svg width="841" height="874" viewBox="0 0 841 874" fill="none" xmlns="http://www.w3.org/2000/svg">
<path d="M841 0H0V874H841V0Z" fill="white" fill-opacity="0.01"/>
<path d="M420.5 309.542C614.03 309.542 770.917 260.629 770.917 200.292C770.917 139.955 614.03 91.042 420.5 91.042C226.97 91.042 70.0834 139.955 70.0834 200.292C70.0834 260.629 226.97 309.542 420.5 309.542Z" stroke="white" stroke-width="66.6667" stroke-linecap="round" stroke-linejoin="round"/>
<path d="M188.715 282.229C115.967 302.248 70.0834 331.538 70.0834 364.167C70.0834 424.504 226.97 473.417 420.5 473.417C614.03 473.417 770.917 424.504 770.917 364.167C770.917 331.538 725.033 302.248 652.285 282.229" stroke="white" stroke-width="66.6667" stroke-linecap="round" stroke-linejoin="round"/>
<path d="M188.715 446.104C115.967 466.123 70.0834 495.413 70.0834 528.042C70.0834 588.379 226.97 637.292 420.5 637.292C614.03 637.292 770.917 588.379 770.917 528.042C770.917 495.413 725.033 466.123 652.285 446.104" stroke="white" stroke-width="66.6667" stroke-linecap="round" stroke-linejoin="round"/>
<path d="M188.715 609.979C115.967 629.998 70.0834 659.288 70.0834 691.917C70.0834 752.254 226.97 801.167 420.5 801.167C614.03 801.167 770.917 752.254 770.917 691.917C770.917 659.288 725.033 629.998 652.285 609.979C590.513 626.977 509.369 637.292 420.5 637.292C331.631 637.292 250.487 626.977 188.715 609.979Z" stroke="white" stroke-width="66.6667" stroke-linecap="round" stroke-linejoin="round"/>
</svg>
