<svg width="717" height="717" viewBox="0 0 717 717" fill="none" xmlns="http://www.w3.org/2000/svg">
<path fill-rule="evenodd" clip-rule="evenodd" d="M272.39 615.293C279.244 628.14 286.107 639.715 292.667 649.972C222.965 634.298 162.483 594.262 120.63 539.276C148.252 523.721 183.63 507.596 226.16 495.798C238.248 543.207 255.301 583.252 272.39 615.293ZM325.112 587.175C310.266 559.344 295.388 524.585 284.669 483.401C307.744 479.976 332.377 478 358.504 478C384.627 478 409.26 479.976 432.331 483.397C421.612 524.585 406.734 559.344 391.888 587.175C379.986 609.494 368.128 627.311 358.5 640.349C348.872 627.311 337.014 609.494 325.112 587.175ZM268.875 358.5C268.875 381.767 270.44 403.85 273.201 424.699C299.821 420.616 328.282 418.25 358.504 418.25C388.722 418.25 417.182 420.612 443.799 424.699C446.56 403.846 448.125 381.767 448.125 358.5C448.125 335.233 446.56 313.154 443.799 292.301C417.182 296.384 388.722 298.75 358.504 298.75C328.282 298.75 299.821 296.384 273.201 292.301C270.44 313.15 268.875 335.233 268.875 358.5ZM214.577 279.981C211.107 304.637 209.125 330.832 209.125 358.5C209.125 386.168 211.107 412.363 214.577 437.019C163.85 450.638 121.843 469.842 89.3557 488.321C70.3847 449.065 59.75 405.025 59.75 358.5C59.75 311.975 70.3847 267.937 89.3553 228.678C121.839 247.155 163.846 266.36 214.577 279.981ZM284.669 233.601C307.744 237.025 332.377 239 358.504 239C384.627 239 409.26 237.025 432.331 233.601C421.612 192.417 406.734 157.658 391.888 129.825C379.986 107.508 368.128 89.6871 358.5 76.6521C348.872 89.6871 337.014 107.508 325.112 129.824C310.266 157.657 295.388 192.416 284.669 233.601ZM502.422 279.985C505.891 304.641 507.875 330.836 507.875 358.5C507.875 386.168 505.891 412.359 502.422 437.015C553.15 450.638 595.158 469.842 627.646 488.321C646.614 449.061 657.25 405.021 657.25 358.5C657.25 311.979 646.614 267.938 627.646 228.68C595.162 247.157 553.154 266.362 502.422 279.985ZM596.369 177.728C568.744 193.284 533.368 209.406 490.842 221.206C478.753 173.794 461.7 133.748 444.612 101.707C437.756 88.859 430.893 77.2866 424.333 67.0276C494.037 82.7032 554.52 122.741 596.369 177.728ZM226.16 221.204C183.632 209.404 148.256 193.282 120.631 177.726C162.483 122.74 222.965 82.7032 292.663 67.0276C286.107 77.2866 279.244 88.8586 272.389 101.706C255.301 133.747 238.248 173.793 226.16 221.204ZM490.842 495.794C478.753 543.207 461.7 583.252 444.612 615.293C437.756 628.14 430.893 639.715 424.333 649.972C494.037 634.298 554.52 594.258 596.373 539.272C568.748 523.717 533.372 507.596 490.842 495.794ZM358.5 717C556.496 717 717 556.496 717 358.5C717 160.506 556.496 0 358.5 0C160.506 0 0 160.506 0 358.5C0 556.496 160.506 717 358.5 717Z" fill="#3370FF"/>
</svg>
