<svg width="409" height="409" viewBox="0 0 409 409" fill="none" xmlns="http://www.w3.org/2000/svg">
<path d="M271.993 52.2134C254.144 62.422 241.555 79.5919 226.3 93.3752C207.325 110.451 184.23 122.292 159.289 127.731C138.839 132.157 117.473 132.222 97.7673 139.183C59.3213 152.672 32.9899 192.705 32.3273 233.409C31.6648 274.112 54.8223 313.573 88.8593 335.888C100.451 343.491 113.142 349.271 126.487 353.025C151.518 360.068 178.062 359.757 203.927 357.066C248.607 352.411 295.445 327.037 323.609 291.266C336.163 275.278 346.773 257.855 355.216 239.364C369.165 208.958 377.087 176.137 378.546 142.717C379.732 114.087 378.546 82.3485 355.83 61.4813C333.114 40.6142 298.619 36.9741 271.993 52.2134Z" fill="#2F72E3"/>
<path opacity="0.7" d="M271.993 52.2134C254.144 62.422 241.555 79.5919 226.3 93.3752C207.325 110.451 184.23 122.292 159.289 127.731C138.839 132.157 117.473 132.222 97.7673 139.183C59.3213 152.672 32.9899 192.705 32.3273 233.409C31.6648 274.112 54.8223 313.573 88.8593 335.888C100.451 343.491 113.142 349.271 126.487 353.025C151.518 360.068 178.062 359.757 203.927 357.066C248.607 352.411 295.445 327.037 323.609 291.266C336.163 275.278 346.773 257.855 355.216 239.364C369.165 208.958 377.087 176.137 378.546 142.717C379.732 114.087 378.546 82.3485 355.83 61.4813C333.114 40.6142 298.619 36.9741 271.993 52.2134Z" fill="white"/>
<path d="M300.291 378.147C332.547 378.147 358.695 371.104 358.695 362.417C358.695 353.729 332.547 346.687 300.291 346.687C268.036 346.687 241.888 353.729 241.888 362.417C241.888 371.104 268.036 378.147 300.291 378.147Z" fill="#ECECEC"/>
<path d="M242.913 55.8691H70.4545C66.4112 55.8691 63.1334 59.1469 63.1334 63.1902V159.87C63.1334 163.913 66.4112 167.191 70.4545 167.191H242.913C246.957 167.191 250.235 163.913 250.235 159.87V63.1902C250.235 59.1469 246.957 55.8691 242.913 55.8691Z" fill="white"/>
<path d="M250.235 63.1901V66.0858H63.1334V63.1901C63.1334 61.2447 63.9034 59.3783 65.2752 57.9988C66.647 56.6193 68.5091 55.8389 70.4545 55.8281H242.946C243.909 55.8313 244.861 56.0245 245.749 56.3965C246.636 56.7685 247.442 57.3121 248.119 57.996C248.796 58.68 249.331 59.4909 249.694 60.3822C250.057 61.2735 250.241 62.2277 250.235 63.1901Z" fill="#2F72E3"/>
<path d="M242.913 55.8691H70.4545C66.4112 55.8691 63.1334 59.1469 63.1334 63.1902V159.87C63.1334 163.913 66.4112 167.191 70.4545 167.191H242.913C246.957 167.191 250.235 163.913 250.235 159.87V63.1902C250.235 59.1469 246.957 55.8691 242.913 55.8691Z" stroke="#263238" stroke-width="1.52" stroke-linecap="round" stroke-linejoin="round"/>
<path d="M250.235 63.1901V66.0858H63.1334V63.1901C63.1334 61.2447 63.9034 59.3783 65.2752 57.9988C66.647 56.6193 68.5091 55.8389 70.4545 55.8281H242.946C243.909 55.8313 244.861 56.0245 245.749 56.3965C246.636 56.7685 247.442 57.3121 248.119 57.996C248.796 58.68 249.331 59.4909 249.694 60.3822C250.057 61.2735 250.241 62.2277 250.235 63.1901V63.1901Z" stroke="#263238" stroke-width="1.52" stroke-linecap="round" stroke-linejoin="round"/>
<path d="M84.1475 60.9734C84.1492 61.3443 84.0407 61.7072 83.8358 62.0164C83.631 62.3255 83.339 62.5669 82.9969 62.7099C82.6547 62.8529 82.2778 62.8912 81.9139 62.8198C81.55 62.7485 81.2155 62.5707 80.9527 62.3091C80.6899 62.0474 80.5107 61.7137 80.4377 61.3501C80.3648 60.9865 80.4014 60.6094 80.5429 60.2667C80.6845 59.9239 80.9245 59.6309 81.2328 59.4247C81.541 59.2185 81.9035 59.1084 82.2743 59.1084C82.7697 59.1084 83.2449 59.3046 83.596 59.6542C83.9471 60.0037 84.1454 60.478 84.1475 60.9734Z" fill="#263238"/>
<path d="M93.9229 60.9734C93.9246 61.3443 93.8161 61.7072 93.6112 62.0164C93.4064 62.3255 93.1144 62.5669 92.7723 62.7099C92.4301 62.8529 92.0532 62.8912 91.6893 62.8198C91.3254 62.7485 90.9909 62.5707 90.7281 62.3091C90.4653 62.0474 90.2861 61.7137 90.2131 61.3501C90.1402 60.9865 90.1768 60.6094 90.3183 60.2667C90.4599 59.9239 90.6999 59.6309 91.0082 59.4247C91.3164 59.2185 91.6789 59.1084 92.0497 59.1084C92.5451 59.1084 93.0203 59.3046 93.3714 59.6542C93.7225 60.0037 93.9208 60.478 93.9229 60.9734Z" fill="#263238"/>
<path d="M101.824 62.847C102.859 62.847 103.698 62.0084 103.698 60.9738C103.698 59.9393 102.859 59.1006 101.824 59.1006C100.79 59.1006 99.9512 59.9393 99.9512 60.9738C99.9512 62.0084 100.79 62.847 101.824 62.847Z" fill="#263238"/>
<path d="M130.144 74.1924H77.2439C75.5769 74.1924 74.2255 75.5438 74.2255 77.2108V102.659C74.2255 104.326 75.5769 105.677 77.2439 105.677H130.144C131.811 105.677 133.162 104.326 133.162 102.659V77.2108C133.162 75.5438 131.811 74.1924 130.144 74.1924Z" stroke="#263238" stroke-width="1.52" stroke-linecap="round" stroke-linejoin="round"/>
<path d="M77.6937 101.718H128.794" stroke="#263238" stroke-width="1.52" stroke-linecap="round" stroke-linejoin="round"/>
<path d="M87.4198 95.7061H81.4893V101.637H87.4198V95.7061Z" fill="#2F72E3" stroke="#263238" stroke-width="1.52" stroke-miterlimit="10"/>
<path d="M96.0987 87.9102H90.1682V101.718H96.0987V87.9102Z" fill="#2F72E3" stroke="#263238" stroke-width="1.52" stroke-miterlimit="10"/>
<path d="M105.874 90.2822H99.9434V101.857H105.874V90.2822Z" fill="#2F72E3" stroke="#263238" stroke-width="1.52" stroke-miterlimit="10"/>
<path d="M116.148 78.7568H110.218V101.456H116.148V78.7568Z" fill="#2F72E3" stroke="#263238" stroke-width="1.52" stroke-miterlimit="10"/>
<path d="M126.414 78.9365H120.483V101.636H126.414V78.9365Z" fill="#2F72E3" stroke="#263238" stroke-width="1.52" stroke-miterlimit="10"/>
<path d="M206.234 107.305C215.392 107.305 222.815 99.8818 222.815 90.7244C222.815 81.5671 215.392 74.1436 206.234 74.1436C197.077 74.1436 189.653 81.5671 189.653 90.7244C189.653 99.8818 197.077 107.305 206.234 107.305Z" fill="#2F72E3" stroke="#263238" stroke-width="1.52" stroke-miterlimit="10"/>
<path d="M207.592 101.063V102.765H204.811V101.063C203.669 100.787 202.659 100.121 201.954 99.1807C201.249 98.2402 200.895 97.0835 200.95 95.9097V95.1408L204.1 94.7972V95.6152C204.1 97.194 204.918 98.151 206.202 98.151C206.481 98.1741 206.761 98.1367 207.024 98.0412C207.287 97.9457 207.526 97.7945 207.725 97.5979C207.924 97.4013 208.078 97.164 208.176 96.9022C208.275 96.6404 208.316 96.3605 208.296 96.0815C208.296 94.5682 206.881 93.2676 205.212 91.8851C203.232 90.2491 201.261 88.3023 201.261 85.5538C201.261 82.8053 202.554 80.9485 204.811 80.3922V78.6826H207.592V80.3759C209.875 80.9076 211.2 82.8299 211.2 85.5702V86.1264L208.051 86.4618V85.8892C208.051 84.2532 207.404 83.3534 206.259 83.3534C205.114 83.3534 204.468 84.0651 204.468 85.4229C204.468 86.9362 205.924 88.2041 207.56 89.6193C209.507 91.2553 211.511 93.2021 211.511 95.9506C211.559 97.1265 211.193 98.282 210.477 99.2162C209.761 100.15 208.74 100.804 207.592 101.063Z" fill="#263238"/>
<path d="M72.851 121.759H77.6935" stroke="#263238" stroke-width="1.52" stroke-linecap="round" stroke-linejoin="round"/>
<path d="M72.851 131.117H77.6935" stroke="#263238" stroke-width="1.52" stroke-linecap="round" stroke-linejoin="round"/>
<path d="M72.851 140.483H77.6935" stroke="#263238" stroke-width="1.52" stroke-linecap="round" stroke-linejoin="round"/>
<path d="M72.851 149.841H77.6935" stroke="#263238" stroke-width="1.52" stroke-linecap="round" stroke-linejoin="round"/>
<path d="M88.369 156.908V153.146" stroke="#263238" stroke-width="1.52" stroke-linecap="round" stroke-linejoin="round"/>
<path d="M96.0416 156.908V153.146" stroke="#263238" stroke-width="1.52" stroke-linecap="round" stroke-linejoin="round"/>
<path d="M103.714 156.908V153.146" stroke="#263238" stroke-width="1.52" stroke-linecap="round" stroke-linejoin="round"/>
<path d="M111.396 156.908V153.146" stroke="#263238" stroke-width="1.52" stroke-linecap="round" stroke-linejoin="round"/>
<path d="M119.068 156.908V153.146" stroke="#263238" stroke-width="1.52" stroke-linecap="round" stroke-linejoin="round"/>
<path d="M126.741 156.908V153.146" stroke="#263238" stroke-width="1.52" stroke-linecap="round" stroke-linejoin="round"/>
<path d="M134.414 156.908V153.146" stroke="#263238" stroke-width="1.52" stroke-linecap="round" stroke-linejoin="round"/>
<path d="M142.095 156.908V153.146" stroke="#263238" stroke-width="1.52" stroke-linecap="round" stroke-linejoin="round"/>
<path d="M149.768 156.908V153.146" stroke="#263238" stroke-width="1.52" stroke-linecap="round" stroke-linejoin="round"/>
<path d="M157.441 156.908V153.146" stroke="#263238" stroke-width="1.52" stroke-linecap="round" stroke-linejoin="round"/>
<path d="M165.113 156.908V153.146" stroke="#263238" stroke-width="1.52" stroke-linecap="round" stroke-linejoin="round"/>
<path d="M172.795 156.908V153.146" stroke="#263238" stroke-width="1.52" stroke-linecap="round" stroke-linejoin="round"/>
<path d="M180.467 156.908V153.146" stroke="#263238" stroke-width="1.52" stroke-linecap="round" stroke-linejoin="round"/>
<path d="M188.14 156.908V153.146" stroke="#263238" stroke-width="1.52" stroke-linecap="round" stroke-linejoin="round"/>
<path d="M195.813 156.908V153.146" stroke="#263238" stroke-width="1.52" stroke-linecap="round" stroke-linejoin="round"/>
<path d="M203.199 156.908V153.146" stroke="#263238" stroke-width="1.52" stroke-linecap="round" stroke-linejoin="round"/>
<path d="M210.586 156.908V153.146" stroke="#263238" stroke-width="1.52" stroke-linecap="round" stroke-linejoin="round"/>
<path d="M217.964 156.908V153.146" stroke="#263238" stroke-width="1.52" stroke-linecap="round" stroke-linejoin="round"/>
<path d="M237.498 116.033V152.401C237.498 154.896 234.962 156.908 231.838 156.908H78.528C77.5945 156.941 76.666 156.758 75.8147 156.374C74.9634 155.989 74.2123 155.414 73.62 154.691C73.1082 154.036 72.8214 153.232 72.802 152.401V116.033C72.802 113.579 75.3378 111.525 78.4626 111.525H231.838C234.962 111.525 237.498 113.538 237.498 116.033Z" stroke="#2F72E3" stroke-width="1.52" stroke-linecap="round" stroke-linejoin="round"/>
<path d="M190.839 45.5948L141.898 111.526L123.183 136.736L102.733 123.714L77.7099 156.908H77.35C76.5654 156.909 75.7943 156.705 75.1128 156.316C74.4313 155.927 73.8632 155.367 73.4645 154.691L101.579 117.382L122.029 130.38L136.025 111.566L187.06 42.8545L190.839 45.5948Z" fill="white"/>
<path d="M178.422 46.4293L196.41 35.5254L191.437 54.3885L188.263 45.6604L178.422 46.4293Z" fill="white"/>
<path d="M348.656 254.005H60.9736L28.728 282.676" stroke="#27AE60" stroke-width="2.10526" stroke-linecap="round" stroke-linejoin="round"/>
<path d="M61.1538 233.931V178.185" stroke="#27AE60" stroke-width="2.10526" stroke-linecap="round" stroke-linejoin="round"/>
<path d="M61.1538 250.766V239.984" stroke="#27AE60" stroke-width="2.10526" stroke-linecap="round" stroke-linejoin="round"/>
<path d="M331.338 118.381C331.338 118.381 331.338 115.01 326.618 110.299C321.899 105.587 318.872 102.888 318.872 102.888C318.872 102.888 316.508 110.634 320.892 115.354C324.113 118.679 327.607 121.727 331.338 124.467V118.381Z" fill="#92E3A9"/>
<path d="M324.492 139.428C324.492 139.428 324.492 136.058 319.772 131.338C315.052 126.618 312.025 123.927 312.025 123.927C312.025 123.927 309.669 131.673 314.046 136.393C317.27 139.716 320.764 142.767 324.492 145.514V139.428Z" fill="#92E3A9"/>
<path d="M331.036 124.123C331.036 124.123 331.396 120.77 336.582 116.573C341.768 112.377 345.073 110.029 345.073 110.029C345.073 110.029 346.594 118.005 341.743 122.209C338.189 125.168 334.394 127.825 330.398 130.152L331.036 124.123Z" fill="#92E3A9"/>
<path d="M322.765 148.974C322.765 148.974 323.477 145.702 329.072 142.054C334.667 138.405 338.193 136.426 338.193 136.426C338.193 136.426 338.872 144.499 333.628 148.197C329.785 150.766 325.733 153.007 321.514 154.896L322.765 148.974Z" fill="#92E3A9"/>
<path d="M324.328 176.057C324.328 176.057 324.328 172.687 329.04 167.976C333.751 163.264 336.786 160.564 336.786 160.564C336.786 160.564 339.15 168.319 334.766 173.031C331.55 176.36 328.058 179.411 324.328 182.151V176.057Z" fill="#92E3A9"/>
<path d="M324.246 182.675C324.246 182.675 324.721 179.338 320.721 174.004C316.721 168.671 314.111 165.562 314.111 165.562C314.111 165.562 310.692 172.925 314.348 178.192C317.067 181.934 320.093 185.442 323.395 188.679L324.246 182.675Z" fill="#92E3A9"/>
<path d="M319.592 202.266C319.592 202.266 319.592 198.904 324.312 194.184C329.032 189.464 332.059 186.822 332.059 186.822C332.059 186.822 334.423 194.569 330.038 199.28C326.818 202.608 323.324 205.659 319.592 208.401V202.266Z" fill="#92E3A9"/>
<path d="M322.741 220.042C322.741 220.042 321.923 216.77 325.269 211.044C328.614 205.318 330.888 201.923 330.888 201.923C330.888 201.923 335.126 208.827 332.091 214.496C329.814 218.524 327.204 222.355 324.287 225.948L322.741 220.042Z" fill="#92E3A9"/>
<path d="M331.764 117.546C331.525 121.052 331.094 124.542 330.471 128C328.606 137.636 323.927 143.853 322.079 152.54C320.23 161.227 325.571 172.458 324.14 183.624C322.708 194.79 318.348 201.015 319.575 208.475C320.802 215.935 327.346 236.123 327.346 236.123" stroke="#263238" stroke-width="1.78978" stroke-linecap="round" stroke-linejoin="round"/>
<path d="M330.995 126.364L336.075 122.454" stroke="#263238" stroke-width="1.78978" stroke-linecap="round" stroke-linejoin="round"/>
<path d="M331.224 121.873L329.105 118.086" stroke="#263238" stroke-width="1.78978" stroke-linecap="round" stroke-linejoin="round"/>
<path d="M322.365 152.147C322.365 152.147 326.618 148.949 330.995 145.759" stroke="#263238" stroke-width="1.78978" stroke-linecap="round" stroke-linejoin="round"/>
<path d="M324.492 145.473C324.492 145.473 320.941 138.52 316.925 133.906" stroke="#263238" stroke-width="1.78978" stroke-linecap="round" stroke-linejoin="round"/>
<path d="M324.492 180.852C326.929 176.376 330.001 172.276 333.613 168.68" stroke="#263238" stroke-width="1.78978" stroke-linecap="round" stroke-linejoin="round"/>
<path d="M323.665 185.58C322.361 182.536 320.807 179.606 319.019 176.819C316.565 173.154 316.173 172.68 316.173 172.68" stroke="#263238" stroke-width="1.78978" stroke-linecap="round" stroke-linejoin="round"/>
<path d="M319.592 208.467C320.672 205.788 321.955 203.196 323.429 200.712C324.9 198.399 326.558 196.211 328.386 194.168" stroke="#263238" stroke-width="1.78978" stroke-linecap="round" stroke-linejoin="round"/>
<path d="M324.279 225.906C324.032 223.35 324.472 220.775 325.555 218.446C327.33 215.019 329.334 210.52 330.168 208.753" stroke="#263238" stroke-width="1.78978" stroke-linecap="round" stroke-linejoin="round"/>
<path d="M300.451 163.387C300.451 163.387 300.083 161.285 302.529 157.808C304.974 154.332 306.619 152.312 306.619 152.312C306.619 152.312 308.934 156.909 306.7 160.344C305.041 162.776 303.181 165.063 301.138 167.183L300.451 163.387Z" fill="#92E3A9"/>
<path d="M307.028 175.87C307.028 175.87 306.659 173.751 309.105 170.283C311.551 166.814 313.195 164.794 313.195 164.794C313.195 164.794 315.51 169.399 313.277 172.827C311.62 175.26 309.759 177.547 307.715 179.665L307.028 175.87Z" fill="#92E3A9"/>
<path d="M301.261 166.953C301.261 166.953 300.688 164.892 296.966 162.863C293.244 160.834 290.929 159.673 290.929 159.673C290.929 159.673 290.839 164.802 294.348 166.953C296.897 168.423 299.565 169.677 302.324 170.699L301.261 166.953Z" fill="#92E3A9"/>
<path d="M309.146 181.636C309.146 181.636 308.328 179.648 304.434 177.988C300.541 176.327 298.095 175.452 298.095 175.452C298.095 175.452 298.545 180.581 302.25 182.332C304.941 183.525 307.726 184.49 310.578 185.219L309.146 181.636Z" fill="#92E3A9"/>
<path d="M311.109 198.773C311.109 198.773 310.741 196.663 307.273 194.217C303.805 191.771 301.604 190.405 301.604 190.405C301.604 190.405 300.966 195.534 304.23 198.004C306.609 199.732 309.129 201.257 311.764 202.561L311.109 198.773Z" fill="#92E3A9"/>
<path d="M311.87 202.938C311.87 202.938 311.207 200.901 313.138 197.122C315.068 193.343 316.41 191.109 316.41 191.109C316.41 191.109 319.355 195.33 317.637 199.052C316.327 201.693 314.8 204.222 313.072 206.61L311.87 202.938Z" fill="#92E3A9"/>
<path d="M317.792 219.976C317.792 219.976 318.038 217.849 321.359 215.207C324.68 212.565 326.798 211.117 326.798 211.117C326.798 211.117 327.731 216.189 324.614 218.855C322.338 220.717 319.911 222.386 317.359 223.845L317.792 219.976Z" fill="#92E3A9"/>
<path d="M316.917 214.725C316.917 214.725 316.549 212.606 313.081 210.16C309.612 207.714 307.42 206.356 307.42 206.356C307.42 206.356 306.782 211.485 310.038 213.956C312.42 215.682 314.943 217.207 317.58 218.512L316.917 214.725Z" fill="#92E3A9"/>
<path d="M316.868 226.21C316.868 226.21 317.056 224.066 314.316 220.827C311.575 217.588 309.8 215.698 309.8 215.698C309.8 215.698 307.886 220.484 310.414 223.715C312.281 225.993 314.333 228.114 316.549 230.054L316.868 226.21Z" fill="#92E3A9"/>
<path d="M300.083 162.896C300.615 165.071 301.268 167.215 302.038 169.318C304.246 175.15 307.846 178.545 309.956 183.796C312.066 189.048 309.956 196.664 312.042 203.51C314.128 210.357 317.563 213.768 317.588 218.602C317.612 223.437 315.747 236.795 315.747 236.795" stroke="#263238" stroke-width="1.78978" stroke-linecap="round" stroke-linejoin="round"/>
<path d="M301.53 168.352L297.923 166.463" stroke="#263238" stroke-width="1.78978" stroke-linecap="round" stroke-linejoin="round"/>
<path d="M300.892 165.563L301.816 162.962" stroke="#263238" stroke-width="1.78978" stroke-linecap="round" stroke-linejoin="round"/>
<path d="M309.743 183.575C309.743 183.575 306.725 182.037 303.641 180.508" stroke="#263238" stroke-width="1.78978" stroke-linecap="round" stroke-linejoin="round"/>
<path d="M307.682 179.665C308.569 176.865 309.739 174.162 311.175 171.6" stroke="#263238" stroke-width="1.78978" stroke-linecap="round" stroke-linejoin="round"/>
<path d="M311.526 201.817C309.513 199.276 307.144 197.039 304.491 195.175" stroke="#263238" stroke-width="1.78978" stroke-linecap="round" stroke-linejoin="round"/>
<path d="M312.557 204.696C313.035 202.652 313.684 200.652 314.496 198.717C315.633 196.14 315.829 195.805 315.829 195.805" stroke="#263238" stroke-width="1.78978" stroke-linecap="round" stroke-linejoin="round"/>
<path d="M317.432 222.25C318.603 220.797 319.9 219.45 321.31 218.226C322.207 217.561 323.05 216.825 323.829 216.025" stroke="#263238" stroke-width="1.78978" stroke-linecap="round" stroke-linejoin="round"/>
<path d="M317.588 218.602C316.61 217.041 315.516 215.556 314.316 214.16C313.141 212.877 311.864 211.693 310.496 210.618" stroke="#263238" stroke-width="1.78978" stroke-linecap="round" stroke-linejoin="round"/>
<path d="M316.565 230.054C316.435 228.417 315.87 226.844 314.929 225.498C313.441 223.535 311.657 220.934 310.987 219.911" stroke="#263238" stroke-width="1.78978" stroke-linecap="round" stroke-linejoin="round"/>
<path d="M332.255 259.829H310.774C310.347 259.829 309.937 259.662 309.631 259.364C309.326 259.066 309.149 258.661 309.138 258.234L306.054 234.463H336.909L333.825 258.234C333.815 258.65 333.647 259.046 333.356 259.342C333.064 259.638 332.67 259.813 332.255 259.829Z" fill="#263238"/>
<path d="M336.663 238.479H306.086C305.45 238.482 304.839 238.231 304.386 237.784C303.934 237.336 303.678 236.727 303.673 236.091C303.684 235.456 303.94 234.849 304.389 234.399C304.837 233.949 305.443 233.69 306.078 233.678H336.663C336.98 233.677 337.293 233.738 337.586 233.858C337.879 233.979 338.145 234.156 338.369 234.379C338.593 234.603 338.771 234.868 338.893 235.16C339.014 235.453 339.076 235.766 339.076 236.083C339.075 236.398 339.012 236.711 338.89 237.002C338.768 237.294 338.59 237.558 338.366 237.781C338.142 238.003 337.876 238.18 337.584 238.299C337.292 238.419 336.979 238.48 336.663 238.479Z" fill="#263238"/>
<path d="M267.731 143.404C267.73 150.117 265.455 156.632 261.276 161.886C257.097 167.141 251.262 170.824 244.721 172.337H244.631C243.854 172.508 243.077 172.664 242.275 172.778C240.869 172.979 239.45 173.08 238.03 173.081C230.266 173.053 222.821 169.986 217.291 164.537C211.76 159.088 208.583 151.69 208.44 143.928C208.296 136.165 211.198 128.655 216.524 123.006C221.85 117.356 229.176 114.017 236.934 113.702C237.204 113.702 237.49 113.702 237.752 113.702C237.839 113.694 237.926 113.694 238.013 113.702C238.114 113.694 238.215 113.694 238.316 113.702C242.323 113.728 246.283 114.577 249.948 116.197C255.235 118.514 259.733 122.32 262.891 127.152C266.05 131.984 267.732 137.632 267.731 143.404Z" fill="#92E3A9"/>
<path opacity="0.4" d="M249.964 116.205C215.666 114.422 215.502 152.5 215.502 152.5C215.502 152.5 210.267 140.074 218.815 126.324C223.592 118.626 231.903 115.232 238.333 113.727C242.339 113.747 246.298 114.591 249.964 116.205Z" fill="white"/>
<path d="M267.731 143.404C267.731 150.134 265.445 156.664 261.248 161.925C257.052 167.186 251.192 170.865 244.631 172.361C242.466 172.859 240.251 173.109 238.03 173.105C230.152 173.251 222.54 170.261 216.867 164.793C211.194 159.326 207.925 151.829 207.78 143.952C207.635 136.074 210.625 128.462 216.092 122.789C221.559 117.116 229.056 113.848 236.934 113.702C237.294 113.702 237.662 113.702 238.03 113.702C245.906 113.704 253.46 116.834 259.03 122.404C264.599 127.974 267.729 135.527 267.731 143.404V143.404Z" stroke="#263238" stroke-width="1.52" stroke-linecap="round" stroke-linejoin="round"/>
<path d="M267.732 143.404C267.731 150.134 265.446 156.664 261.249 161.925C257.052 167.186 251.193 170.865 244.631 172.361C244.271 172.361 243.903 172.361 243.535 172.361C236.245 172.342 229.215 169.642 223.786 164.777C218.356 159.911 214.906 153.219 214.09 145.974C213.275 138.729 215.152 131.437 219.364 125.486C223.577 119.535 229.83 115.341 236.934 113.702C237.294 113.702 237.662 113.702 238.03 113.702C245.907 113.704 253.46 116.834 259.03 122.404C264.6 127.974 267.729 135.527 267.732 143.404V143.404Z" stroke="#263238" stroke-width="1.52" stroke-linecap="round" stroke-linejoin="round"/>
<path d="M248.263 161.964L249.032 165.105L243.895 166.357L243.126 163.224C238.529 163.224 234.84 160.238 233.662 155.445L233.31 154.021L238.979 151.968L239.339 153.449C240.05 156.361 241.972 157.76 244.369 157.171C244.895 157.089 245.397 156.894 245.841 156.599C246.284 156.304 246.658 155.917 246.938 155.464C247.217 155.01 247.394 154.502 247.458 153.973C247.521 153.444 247.47 152.908 247.306 152.402C246.619 149.604 243.412 147.854 239.698 146.046C235.306 143.919 230.774 141.22 229.531 136.14C228.32 131.183 229.842 127.052 233.76 125.007L232.991 121.866L238.12 120.614L238.889 123.747C243.347 123.682 246.668 126.618 247.887 131.69L248.14 132.721L242.48 134.774L242.193 133.637C241.441 130.553 239.854 129.252 237.743 129.768C235.633 130.283 234.758 131.894 235.371 134.398C236.058 137.195 239.306 138.88 242.979 140.762C247.322 142.962 251.903 145.588 253.146 150.659C254.398 155.543 252.402 159.895 248.263 161.964Z" stroke="#263238" stroke-width="1.52" stroke-miterlimit="10"/>
<path opacity="0.3" d="M248.263 161.964L249.032 165.105L243.895 166.357L243.126 163.224C238.529 163.224 234.84 160.238 233.662 155.445L233.31 154.021L238.979 151.968L239.339 153.449C240.05 156.361 241.972 157.76 244.369 157.171C244.895 157.089 245.397 156.894 245.841 156.599C246.284 156.304 246.658 155.917 246.938 155.464C247.217 155.01 247.394 154.502 247.458 153.973C247.521 153.444 247.47 152.908 247.306 152.402C246.619 149.604 243.412 147.854 239.698 146.046C235.306 143.919 230.774 141.22 229.531 136.14C228.32 131.183 229.842 127.052 233.76 125.007L232.991 121.866L238.12 120.614L238.889 123.747C243.347 123.682 246.668 126.618 247.887 131.69L248.14 132.721L242.48 134.774L242.193 133.637C241.441 130.553 239.854 129.252 237.743 129.768C235.633 130.283 234.758 131.894 235.371 134.398C236.058 137.195 239.306 138.88 242.979 140.762C247.322 142.962 251.903 145.588 253.146 150.659C254.398 155.543 252.402 159.895 248.263 161.964Z" fill="black"/>
<path d="M222.848 168.942L229.122 168.655" stroke="#263238" stroke-width="1.52" stroke-linecap="round" stroke-linejoin="round"/>
<path d="M219.829 166.856L225.302 166.39" stroke="#263238" stroke-width="1.52" stroke-linecap="round" stroke-linejoin="round"/>
<path d="M217.375 164.656L222.848 164.189" stroke="#263238" stroke-width="1.52" stroke-linecap="round" stroke-linejoin="round"/>
<path d="M216.623 122.807H221.31" stroke="#263238" stroke-width="1.52" stroke-linecap="round" stroke-linejoin="round"/>
<path d="M218.938 120.647L223.608 120.435" stroke="#263238" stroke-width="1.52" stroke-linecap="round" stroke-linejoin="round"/>
<path d="M221.866 118.479L226.79 118.013" stroke="#263238" stroke-width="1.52" stroke-linecap="round" stroke-linejoin="round"/>
<path opacity="0.3" d="M244.721 172.336H244.631C242.466 172.835 240.251 173.084 238.03 173.081C230.266 173.053 222.821 169.986 217.291 164.537C211.76 159.088 208.583 151.69 208.44 143.928C208.296 136.165 211.198 128.655 216.524 123.005C221.85 117.356 229.176 114.016 236.934 113.702C237.204 113.702 237.49 113.702 237.752 113.702C230.512 115.984 218.365 121.817 215.118 133.98C210.529 151.265 220.86 170.889 244.721 172.336Z" fill="black"/>
<path opacity="0.1" d="M267.732 143.404C267.73 150.117 265.455 156.632 261.276 161.886C257.097 167.14 251.262 170.824 244.721 172.336H244.631C243.854 172.508 243.077 172.664 242.275 172.778L249.965 116.181C255.251 118.501 259.748 122.311 262.903 127.146C266.058 131.981 267.736 137.63 267.732 143.404Z" fill="black"/>
<path d="M284.582 96.647C282.23 99.969 278.822 102.396 274.913 103.531C271.004 104.666 266.826 104.442 263.061 102.896L262.954 102.847C262.396 102.602 261.85 102.329 261.318 102.029C260.718 101.707 260.139 101.346 259.584 100.95C255.96 98.1824 253.522 94.1428 252.762 89.6472C252.002 85.1516 252.977 80.535 255.49 76.7304C258.002 72.9257 261.865 70.2166 266.298 69.1504C270.731 68.0842 275.404 68.7403 279.371 70.9863L279.772 71.2399C279.96 71.3462 280.14 71.4771 280.329 71.608C280.517 71.7389 280.877 72.0088 281.147 72.2215C284.722 75.0895 287.069 79.2139 287.707 83.7531C288.346 88.2922 287.228 92.9038 284.582 96.647Z" fill="#92E3A9"/>
<path opacity="0.4" d="M257.474 96.8923C257.474 96.8923 254.537 88.246 258.439 81.882C263.347 73.9065 270.864 70.2664 281.097 72.2296C281.097 72.2296 275.551 68.4831 266.267 71.1416C256.983 73.8001 252.001 86.5773 257.474 96.8923Z" fill="white"/>
<path d="M284.582 96.6556C282.228 99.9748 278.818 102.398 274.91 103.53C271.001 104.662 266.824 104.436 263.061 102.889C261.818 102.381 260.638 101.734 259.543 100.958C255.897 98.1612 253.459 94.0752 252.729 89.538C251.999 85.0009 253.033 80.3564 255.618 76.5568C258.203 72.7573 262.143 70.0906 266.631 69.1036C271.12 68.1166 275.815 68.884 279.756 71.2485C279.936 71.3549 280.124 71.4776 280.304 71.6084C284.187 74.3674 286.817 78.553 287.619 83.248C288.421 87.943 287.329 92.7644 284.582 96.6556Z" stroke="#263238" stroke-width="1.52" stroke-linecap="round" stroke-linejoin="round"/>
<path d="M284.582 96.6554C282.228 99.9746 278.818 102.398 274.909 103.53C271.001 104.662 266.824 104.436 263.06 102.889L262.512 102.529C258.958 99.9526 256.469 96.1667 255.511 91.8832C254.554 87.5997 255.195 83.114 257.314 79.2701C259.433 75.4263 262.884 72.4894 267.017 71.012C271.15 69.5346 275.68 69.6187 279.756 71.2483C279.936 71.3547 280.124 71.4774 280.304 71.6082C284.186 74.3672 286.817 78.5528 287.619 83.2478C288.421 87.9427 287.328 92.7642 284.582 96.6554Z" stroke="#263238" stroke-width="1.52" stroke-linecap="round" stroke-linejoin="round"/>
<path d="M268.476 99.044L267.764 100.86L264.787 99.6902L265.499 97.8661C264.394 97.0882 263.594 95.9505 263.236 94.6477C262.878 93.345 262.983 91.9582 263.535 90.7249L263.863 89.9069L267.38 90.864L267.045 91.7311C266.382 93.4162 266.832 94.774 268.222 95.3221C268.511 95.4657 268.828 95.5449 269.15 95.5542C269.472 95.5635 269.793 95.5026 270.089 95.3758C270.385 95.249 270.651 95.0593 270.867 94.8198C271.082 94.5803 271.244 94.2967 271.339 93.9888C271.977 92.3528 271.004 90.3814 269.801 88.1973C268.378 85.6124 267.085 82.7004 268.239 79.7556C269.392 76.8108 271.568 75.3711 274.21 75.731L274.93 73.915L277.899 75.0848L277.188 76.8926C279.413 78.414 280.026 80.9826 278.873 83.9683L278.636 84.5572L275.118 83.6002L275.38 82.9376C276.083 81.1543 275.756 79.9519 274.562 79.4693C273.368 78.9866 272.345 79.4693 271.773 80.9335C271.135 82.5695 272.157 84.5163 273.31 86.7249C274.693 89.3343 276.034 92.2301 274.881 95.1667C274.444 96.4656 273.56 97.5676 272.388 98.2773C271.216 98.9871 269.83 99.2587 268.476 99.044V99.044Z" stroke="#263238" stroke-width="1.52" stroke-miterlimit="10"/>
<path opacity="0.3" d="M268.476 99.044L267.764 100.86L264.787 99.6902L265.499 97.8661C264.394 97.0882 263.594 95.9505 263.236 94.6477C262.878 93.345 262.983 91.9582 263.535 90.7249L263.863 89.9069L267.38 90.864L267.045 91.7311C266.382 93.4162 266.832 94.774 268.222 95.3221C268.511 95.4657 268.828 95.5449 269.15 95.5542C269.472 95.5635 269.793 95.5026 270.089 95.3758C270.385 95.249 270.651 95.0593 270.867 94.8198C271.082 94.5803 271.244 94.2967 271.339 93.9888C271.977 92.3528 271.004 90.3814 269.801 88.1973C268.378 85.6124 267.085 82.7004 268.239 79.7556C269.392 76.8108 271.568 75.3711 274.21 75.731L274.93 73.915L277.899 75.0848L277.188 76.8926C279.413 78.414 280.026 80.9826 278.873 83.9683L278.636 84.5572L275.118 83.6002L275.38 82.9376C276.083 81.1543 275.756 79.9519 274.562 79.4693C273.368 78.9866 272.345 79.4693 271.773 80.9335C271.135 82.5695 272.157 84.5163 273.31 86.7249C274.693 89.3343 276.034 92.2301 274.881 95.1667C274.444 96.4656 273.56 97.5676 272.388 98.2773C271.216 98.9871 269.83 99.2587 268.476 99.044Z" fill="black"/>
<path opacity="0.3" d="M279.331 70.995C274.423 70.1197 268.206 69.6371 264.852 71.813C258.693 75.7639 254.856 80.7455 254.913 88.8192C254.971 96.8929 262.513 102.553 262.513 102.553L262.954 102.872C261.751 102.37 260.607 101.736 259.543 100.983C255.92 98.2156 253.482 94.176 252.722 89.6804C251.962 85.1848 252.936 80.5682 255.449 76.7636C257.961 72.9589 261.824 70.2498 266.257 69.1836C270.69 68.1174 275.363 68.7735 279.331 71.0195V70.995Z" fill="black"/>
<path opacity="0.1" d="M284.582 96.6468C282.23 99.9688 278.822 102.395 274.913 103.53C271.004 104.666 266.826 104.442 263.06 102.896L262.954 102.847C262.396 102.602 261.85 102.329 261.318 102.029L281.097 72.2295C284.678 75.0903 287.033 79.2098 287.681 83.7473C288.328 88.2848 287.22 92.8984 284.582 96.6468Z" fill="black"/>
<path d="M275.323 327.004C267.709 336.163 258.632 343.998 248.46 350.194C245.29 352.09 242.012 353.8 238.644 355.315C215.404 365.761 188.917 366.44 164.148 360.435C112.066 347.814 84.4341 301.842 80.9249 250.807C79.9842 237.016 77.8738 222.12 83.4607 208.999C89.0477 195.878 100.344 187.731 113.121 182.07C122.398 177.94 132.418 175.167 141.522 172.901C157.999 168.83 175.378 170.624 190.676 177.972C201.384 183.052 209.007 191.878 218.014 199.314C218.968 200.099 219.928 200.882 220.893 201.662C229.991 208.984 239.554 215.709 249.523 221.793C264.664 231.028 280.165 239.739 289.842 255.249C305.278 279.969 292.255 306.881 275.323 327.004Z" fill="#2F72E3"/>
<path opacity="0.4" d="M275.323 327.004C267.709 336.163 258.632 343.998 248.46 350.194C245.29 352.09 242.012 353.8 238.644 355.315C215.404 365.761 188.917 366.44 164.148 360.435C112.066 347.814 84.4341 301.842 80.9249 250.807C79.9842 237.016 77.8738 222.12 83.4607 208.999C89.0477 195.878 100.344 187.731 113.121 182.07C122.398 177.94 132.418 175.167 141.522 172.901C157.999 168.83 175.378 170.624 190.676 177.972C201.384 183.052 209.007 191.878 218.014 199.314C218.968 200.099 219.928 200.882 220.893 201.662C229.991 208.984 239.554 215.709 249.523 221.793C264.664 231.028 280.165 239.739 289.842 255.249C305.278 279.969 292.255 306.881 275.323 327.004Z" fill="white"/>
<path d="M220.86 201.662C219.895 200.887 218.935 200.102 217.981 199.306C208.983 191.854 201.343 183.052 190.643 177.972C175.344 170.628 157.966 168.835 141.49 172.901C119.837 178.275 92.9823 186.553 83.4117 209.007C77.8248 222.095 79.9352 237.016 80.8841 250.807C84.4342 301.842 112.066 347.814 164.148 360.436C192.484 367.307 223.044 365.425 248.46 350.194C258.632 343.999 267.709 336.163 275.323 327.004C292.255 306.881 305.278 279.969 289.859 255.249C280.19 239.707 264.689 231.028 249.539 221.793C239.554 215.711 229.974 208.986 220.86 201.662V201.662Z" stroke="#263238" stroke-width="1.52" stroke-miterlimit="10"/>
<path d="M141.964 292.664C137.628 293.976 133.42 295.679 129.392 297.752" stroke="#263238" stroke-width="1.52" stroke-linecap="round" stroke-linejoin="round"/>
<path d="M168.508 287.609C162.174 288.158 155.887 289.155 149.694 290.595" stroke="#263238" stroke-width="1.52" stroke-linecap="round" stroke-linejoin="round"/>
<path d="M162.987 286.3C162.987 286.3 138.545 272.084 109.048 283.478" stroke="#263238" stroke-width="1.52" stroke-linecap="round" stroke-linejoin="round"/>
<path opacity="0.1" d="M275.323 327.004C267.709 336.162 258.632 343.998 248.46 350.194C245.29 352.09 242.013 353.8 238.644 355.315C235.984 354.5 233.371 353.542 230.816 352.443C215.552 345.899 202.742 334.832 190.226 323.92C182.676 317.376 175.003 310.668 165.965 306.357C153.741 300.578 139.836 299.433 126.831 303.134C133.557 295.543 142.701 290.512 152.713 288.893C146.251 283.012 137.261 280.541 128.525 280.386C119.788 280.23 114.979 281.302 106.439 283.216C109.294 277.965 116.868 273.212 122.848 273.351C117.163 273.276 111.488 272.874 105.85 272.149C98.136 270.905 94.6841 261.825 93.5307 254.104C90.3405 232.836 93.5716 210.185 105.179 192.107C107.477 188.502 110.136 185.139 113.114 182.07C122.39 177.94 132.41 175.167 141.515 172.901C157.991 168.83 175.37 170.624 190.668 177.972C201.376 183.052 209 191.878 218.006 199.314C218.96 200.099 219.92 200.882 220.885 201.662C229.983 208.984 239.546 215.709 249.515 221.793C264.656 231.028 280.157 239.739 289.834 255.249C305.278 279.969 292.256 306.881 275.323 327.004Z" fill="black"/>
<path d="M283.846 326.382C288.433 330.195 293.231 333.745 298.219 337.016C307.945 337.67 303.585 349.425 303.585 349.425L295.257 354.783C295.257 354.783 281 343.454 273.212 339.781C265.425 336.108 283.846 326.382 283.846 326.382Z" fill="white"/>
<path opacity="0.3" d="M214.734 202.619C214.734 202.619 213.4 189.425 211.273 185.719L178.979 179.142V176.639C178.979 176.639 179.723 172.287 172.525 169.564C165.326 166.84 150.324 170.382 146.455 173.31C142.586 176.238 144.001 181.277 144.001 181.277C144.001 181.277 130.995 187.846 125.154 190.349C120.373 192.555 115.712 195.012 111.191 197.711C111.191 197.711 108.541 228.042 109.064 235.085C109.588 242.128 108.639 248.754 109.244 252.656C109.85 256.558 110.324 258.775 114.414 262.096C118.504 265.417 122.226 270.276 132.95 265.458L131.453 264.272L202.046 240.492L214.734 202.619Z" fill="black"/>
<path d="M214.734 202.619C214.734 202.619 213.4 189.425 211.273 185.719L178.979 179.142V176.639C178.979 176.639 179.723 172.287 172.525 169.564C165.326 166.84 150.324 170.382 146.455 173.31C142.586 176.238 144.001 181.277 144.001 181.277C144.001 181.277 130.995 187.846 125.154 190.349C120.373 192.555 115.712 195.012 111.191 197.711C111.191 197.711 108.541 228.042 109.064 235.085C109.588 242.128 108.639 248.754 109.244 252.656C109.85 256.558 110.324 258.775 114.414 262.096C118.504 265.417 122.226 270.276 132.95 265.458L131.453 264.272L202.046 240.492L214.734 202.619Z" fill="#2F72E3"/>
<path opacity="0.05" d="M214.734 202.619C214.734 202.619 213.4 189.425 211.273 185.719L178.979 179.142V176.639C178.979 176.639 179.723 172.287 172.525 169.564C165.326 166.84 150.324 170.382 146.455 173.31C142.586 176.238 144.001 181.277 144.001 181.277C144.001 181.277 130.995 187.846 125.154 190.349C120.373 192.555 115.712 195.012 111.191 197.711C111.191 197.711 108.541 228.042 109.064 235.085C109.588 242.128 108.639 248.754 109.244 252.656C109.85 256.558 110.324 258.775 114.414 262.096C118.504 265.417 122.226 270.276 132.95 265.458L131.453 264.272L202.046 240.492L214.734 202.619Z" fill="black"/>
<path opacity="0.1" d="M211.699 187.322H198.186C196.915 187.324 195.686 187.777 194.717 188.599C193.748 189.421 193.102 190.56 192.893 191.813L186.235 231.895C186.235 231.895 177.065 232.656 170.57 237.392C164.075 242.128 148.099 208.337 122.856 208.32C122.856 208.32 130.12 224.926 131.731 238.177C131.731 238.177 115.952 236.46 113.334 242.635C110.717 248.811 114.521 260.386 121.195 255.903C127.87 251.421 134.153 243.944 138.611 248.672C143.069 253.4 162.987 255.944 162.987 255.944L193.637 240.492L205.523 234.905L211.699 187.322Z" fill="black"/>
<path opacity="0.4" d="M168.795 167.453C168.795 167.453 176.468 169.58 177.711 172.157C178.954 174.733 178.823 181.253 178.823 181.253C176.961 185.61 174.14 189.491 170.57 192.607L164.844 181.253L165.359 194.128C165.359 194.128 154.496 192.32 149.883 188.852L145.277 185.375C145.277 185.375 143.29 178.832 143.576 176.615C143.862 174.398 152.148 169.899 152.148 169.899L168.795 167.453Z" fill="white"/>
<path d="M296.599 365.99C296.386 365.523 299.748 359.585 297.114 353.54C294.48 347.495 290.284 349.826 290.284 349.826C290.284 349.826 278.333 342.219 273.31 339.814C269.692 337.996 266.206 335.924 262.881 333.613L257.572 340.763L262.48 355.945L296.599 365.99Z" fill="#2F72E3"/>
<path d="M289.851 349.457L305.197 358.832C305.197 358.832 315.986 351.911 321.131 347.134C326.276 342.357 337.835 332.181 337.835 332.181L345.197 322.275C345.197 322.275 340.092 315.96 331.585 321.032C320.591 327.576 307.184 337.081 298.244 336.991C298.244 336.991 300.002 347.977 289.908 349.457" fill="#2F72E3"/>
<path d="M166.194 127.796C166.194 127.796 173.155 138.332 174.423 141.743C175.691 145.154 176.713 150.201 176.46 152.63C176.206 155.06 173.654 168.074 172.37 168.45L171.134 169.849L171.952 175.363C171.952 175.363 166.505 184.778 150.488 177.874C150.488 177.874 149.866 166.88 147.92 163.428C145.973 159.976 143.061 164.082 140.14 154.111C137.22 144.14 146.521 133.661 146.521 133.661L166.194 127.796Z" fill="white"/>
<path opacity="0.5" d="M338.513 319.2C338.513 319.2 330.62 320.574 328.059 325.245C325.499 329.916 320.583 338.595 318.906 342.791C317.229 346.988 303.364 357.123 303.364 357.123L305.204 358.832C305.204 358.832 316.493 351.855 323.307 345.221C330.121 338.587 345.147 321.9 345.147 321.9C345.147 321.9 344.067 320.828 338.513 319.2Z" fill="white"/>
<path opacity="0.5" d="M259.527 338.137L257.572 340.762L263.576 353.212L296.599 365.082L298.128 360.247C298.128 360.247 298.636 355.339 287.045 351.609C275.454 347.879 268.386 345.417 265.089 342.857C261.793 340.296 259.527 338.137 259.527 338.137Z" fill="white"/>
<path d="M150.513 245.671C150.513 245.671 140.402 244.149 135.682 252.419C130.962 260.689 131.445 264.272 131.445 264.272C131.445 264.272 138.128 270.341 147.314 269.998C156.5 269.654 169.875 259.135 174.235 255.707C178.594 252.28 189.588 242.472 197.089 244.501L197.907 237.409C197.907 237.409 197.171 234.227 190.758 235.086C184.345 235.945 181.826 239.601 179.756 239.601C177.686 239.601 175.731 237.613 171.576 244.713C171.568 244.713 156.983 247.298 150.513 245.671Z" fill="white"/>
<path d="M163.649 142.945C163.865 144.271 164.171 145.58 164.566 146.864C164.713 147.49 164.992 148.078 165.384 148.59C166.152 149.408 167.396 149.62 168.533 149.792C168.721 149.805 168.899 149.88 169.04 150.005C169.132 150.151 169.175 150.323 169.163 150.495C169.156 151.784 168.769 153.042 168.05 154.111" stroke="#263238" stroke-width="1.52" stroke-linecap="round" stroke-linejoin="round"/>
<path opacity="0.1" d="M266.308 329.654L259.527 338.104C259.527 338.104 266.971 344.984 274.676 347.536C282.382 350.088 295.871 354.898 298.129 358.603L297.261 354.194C297.261 354.194 276.165 341.254 271.323 338.161C269.891 337.222 268.694 335.967 267.825 334.492C266.955 333.017 266.436 331.362 266.308 329.654Z" fill="black"/>
<path opacity="0.1" d="M289.851 349.458L303.356 357.123C303.356 357.123 310.023 352.558 313.295 349.196C316.567 345.834 320.599 342.104 323.111 334.57C326.538 324.157 336.354 319.2 336.354 319.2C336.354 319.2 322.702 325.63 315.593 330.652C308.485 335.675 301.556 337.802 297.532 337.458C297.491 337.483 300.722 347.707 289.851 349.458Z" fill="black"/>
<path d="M158.889 155.968C158.889 155.968 164.198 160.131 169.711 158.569C169.711 158.569 164.508 168.876 158.889 155.968Z" fill="white" stroke="#263238" stroke-width="1.52" stroke-linecap="round" stroke-linejoin="round"/>
<path d="M158.692 146.97C158.848 148.116 158.496 149.105 157.923 149.187C157.351 149.269 156.754 148.369 156.598 147.248C156.443 146.128 156.786 145.113 157.367 145.032C157.948 144.95 158.57 145.825 158.692 146.97Z" fill="#263238"/>
<path d="M170.251 144.884C170.398 146.037 170.054 147.027 169.482 147.101C168.909 147.175 168.304 146.283 168.157 145.17C168.009 144.058 168.345 143.027 168.926 142.954C169.506 142.88 170.095 143.739 170.251 144.884Z" fill="#263238"/>
<path d="M157.874 142.111C157.874 142.111 154.782 140.516 152.582 143.935" stroke="#263238" stroke-width="1.52" stroke-linecap="round" stroke-linejoin="round"/>
<path d="M165.801 139.984C165.801 139.984 169.073 137.179 170.962 139.984" stroke="#263238" stroke-width="1.52" stroke-linecap="round" stroke-linejoin="round"/>
<path d="M147.371 152.639C147.371 152.639 145.383 149.702 143.281 149.792C141.179 149.882 140.345 152.827 141.097 155.673C141.85 158.52 144.983 162.496 147.355 162.119C148.693 161.947 149.914 161.268 150.766 160.222" stroke="#263238" stroke-width="1.52" stroke-linecap="round" stroke-linejoin="round"/>
<path d="M166.431 130.169C168.664 132.026 171.028 134.046 172.157 136.778C173.155 139.102 173.375 141.686 174.292 144.034C175.265 146.545 176.328 149.171 176.41 151.911C176.367 154.447 176.035 156.969 175.42 159.429C175.081 161.562 174.575 163.665 173.907 165.719C172.803 168.656 170.766 170.464 168.034 171.854C166.046 172.869 162.733 174.308 160.582 172.95C159.33 172.132 157.449 169.793 155.887 167.642" stroke="#263238" stroke-width="1.52" stroke-linecap="round" stroke-linejoin="round"/>
<path d="M147.371 162.119C147.371 162.119 150.889 170.741 150.038 176.802" stroke="#263238" stroke-width="1.52" stroke-linecap="round" stroke-linejoin="round"/>
<path d="M146.472 151.191C146.94 150.845 147.311 150.383 147.549 149.852C147.786 149.32 147.883 148.736 147.829 148.156C147.699 146.831 146.782 145.604 146.962 144.279C147.113 143.644 147.35 143.033 147.666 142.463C148.142 141.363 148.352 140.165 148.278 138.968C148.204 137.771 147.849 136.609 147.241 135.575C147.241 135.575 158.414 136.099 163.65 132.77C168.885 129.44 172.877 120.925 169.711 116.86C166.545 112.794 160.378 118.34 155.805 118.954C151.232 119.567 134.971 122.16 132.377 128.426C129.784 134.692 133.735 136.942 133.858 142.921C133.981 148.901 133.981 160.23 142.921 159.191C142.921 159.191 139.576 154.864 141.899 150.406C143.478 148.533 146.472 151.191 146.472 151.191Z" fill="#263238"/>
<path d="M168.385 123.927C169.903 125.109 171.161 126.59 172.081 128.278C173.001 129.967 173.564 131.827 173.735 133.743C174.234 138.225 182.185 146.937 176.451 151.902C176.451 151.902 175.118 146.626 174.332 144.025C173.547 141.424 172.541 136.663 171.224 135.027C169.907 133.391 162.921 127.665 162.921 127.665L168.385 123.927Z" fill="#263238"/>
<path d="M148.402 176.614C148.402 176.614 153.915 180.246 164.157 180.394L165.359 194.128C165.359 194.128 153.842 193.253 145.277 185.375C145.277 185.375 142.962 179.248 143.576 176.614C144.189 173.981 149.694 171.371 149.694 171.371" stroke="#263238" stroke-width="1.52" stroke-linecap="round" stroke-linejoin="round"/>
<path d="M171.568 170.471L171.895 175.379C169.736 177.628 167.088 179.349 164.156 180.41L170.57 192.623C170.57 192.623 178.218 186.668 178.979 180.41C178.979 180.41 179.044 174.005 177.711 172.173C176.377 170.34 171.518 169.481 171.518 169.481" stroke="#263238" stroke-width="1.52" stroke-linecap="round" stroke-linejoin="round"/>
<path opacity="0.8" d="M140.533 132.516C141.351 130.463 143.592 129.244 145.776 128.917C147.96 128.59 150.201 128.819 152.41 128.761C155.468 128.737 158.463 127.889 161.081 126.307C162.381 125.515 163.513 124.475 164.411 123.245C165.31 122.016 165.957 120.621 166.316 119.142" stroke="white" stroke-width="1.52" stroke-linecap="round" stroke-linejoin="round"/>
<path opacity="0.8" d="M135.256 132.115C136.639 127.919 141.122 125.326 145.531 124.958C147.715 124.77 149.923 125.023 152.075 124.77C154.226 124.516 156.516 123.616 157.653 121.743" stroke="white" stroke-width="1.52" stroke-linecap="round" stroke-linejoin="round"/>
<path d="M132.933 265.458C122.299 270.971 118.52 265.294 112.598 260.599C106.676 255.904 110.561 247.511 109.326 234.055C108.091 220.599 111.166 197.711 111.166 197.711C111.166 197.711 113.817 197.106 121.171 192.607C128.524 188.108 144.001 181.253 144.001 181.253" stroke="#263238" stroke-width="1.52" stroke-linecap="round" stroke-linejoin="round"/>
<path d="M143.469 245.089C143.469 245.089 141.784 239.748 137.024 239.609C132.263 239.47 124.754 241.613 119.404 251.731" stroke="#263238" stroke-width="1.52" stroke-linecap="round" stroke-linejoin="round"/>
<path d="M135.935 239.29C135.64 239.27 135.349 239.201 135.077 239.085C131.152 237.673 126.892 237.479 122.856 238.529" stroke="#263238" stroke-width="1.52" stroke-linecap="round" stroke-linejoin="round"/>
<path d="M120.115 205.016C128.778 214.586 132.999 227.249 136.999 239.519" stroke="#263238" stroke-width="1.52" stroke-linecap="round" stroke-linejoin="round"/>
<path d="M178.979 179.143C178.979 179.143 194.684 182.889 202.357 183.781C210.03 184.672 211.273 185.744 211.273 185.744L212.705 191.094" stroke="#263238" stroke-width="1.52" stroke-linecap="round" stroke-linejoin="round"/>
<path d="M252.165 188.451L198.676 190.504L194.308 245.515H203.47L249.916 235.118L255.756 189.768L252.165 188.451Z" fill="white"/>
<path d="M197.089 247.142L255.592 191.068L249.916 235.118L197.089 247.142Z" fill="#2F72E3"/>
<path opacity="0.7" d="M197.089 247.142L255.592 191.068L249.916 235.118L197.089 247.142Z" fill="white"/>
<path d="M197.089 245.67L201.768 192.606L255.756 189.768L249.916 235.117L197.089 245.67Z" stroke="#263238" stroke-width="1.52" stroke-linecap="round" stroke-linejoin="round"/>
<path d="M232.999 215.478C232.639 218.709 230.913 221.163 229.147 220.967C227.38 220.77 226.251 217.981 226.611 214.75C226.971 211.519 228.705 209.065 230.472 209.261C232.239 209.457 233.367 212.247 232.999 215.478Z" fill="#263238"/>
<path d="M249.916 235.118C249.916 235.118 274.636 234.414 282.366 239.519C290.096 244.623 294.636 270.218 293.564 283.813C292.492 297.409 283.167 328.607 283.167 328.607L265.302 308.386C265.302 308.386 256.5 276.386 261.302 263.854C261.302 263.854 237.58 265.187 228.239 262.259C228.239 262.259 219.87 248.558 205.523 244.026L249.916 235.118Z" fill="#263238"/>
<path d="M286.938 329.139C280.593 323.215 274.895 316.635 269.94 309.507C261.294 296.149 249.343 283.331 237.048 273.327C227.142 265.294 224.901 252.206 212.68 245.638C192.435 234.783 174.93 256.353 168.386 260.722C161.842 265.09 150.512 270.039 150.512 270.039C150.512 270.039 154.651 285.581 166.807 287.421C178.962 289.262 191.257 280.877 197.073 284.926C202.889 288.975 207.191 307.053 226.398 317.646C242.095 326.301 263.486 334.742 274.521 340.436C276.975 341.712 278.807 343.053 280.198 343.814C284.01 345.892 288.083 348.337 291.928 350.759L305.171 358.824C305.171 358.824 318.464 350.963 323.568 343.716C324.247 342.742 325.662 340.149 326.988 337.646C329.875 332.174 333.532 327.266 338.595 324.558C342.096 322.669 345.213 322.104 345.139 321.908C344.804 321.286 338.456 318.039 334.145 319.814C325.016 323.585 306.767 338.072 298.153 336.992C294.147 334.78 290.387 332.147 286.938 329.139V329.139Z" stroke="#263238" stroke-width="1.52" stroke-miterlimit="10"/>
<path d="M286.938 329.139C278.979 332.353 275.773 337.319 274.546 340.444C263.511 334.718 242.12 326.308 226.423 317.654C207.216 307.02 202.946 288.975 197.097 284.934C191.249 280.893 178.946 289.302 166.831 287.429C154.717 285.556 150.512 270.03 150.512 270.03C150.512 270.03 161.85 265.122 168.394 260.754C174.938 256.386 190.03 234.807 212.68 245.67C225.187 251.666 227.142 265.302 237.048 273.359C249.318 283.331 261.294 296.182 269.94 309.539C274.883 316.666 280.582 323.238 286.938 329.139Z" fill="#263238"/>
<path d="M227.126 259.789C227.126 259.789 220.999 247.339 211.175 244.926" stroke="white" stroke-width="1.52" stroke-linecap="round" stroke-linejoin="round"/>
<path d="M195.012 235.004C188.255 233.531 180.836 241 177.711 239.601C175.388 238.562 171.568 244.713 171.568 244.713C165.28 245.621 158.921 245.942 152.574 245.671C143.469 245.09 139.159 246.865 135.936 251.732L131.437 263.65C131.437 263.65 143.306 274.284 155.977 268.092C168.647 261.9 185.482 243.217 197.081 243.282" stroke="#263238" stroke-width="1.52" stroke-linecap="round" stroke-linejoin="round"/>
<path d="M289.335 349.139C289.335 349.139 300.427 350.047 297.826 336.795" stroke="#263238" stroke-width="1.52" stroke-miterlimit="10"/>
<path d="M341.605 328.607C340.787 330.243 330.62 338.897 321.859 346.464C321.859 346.349 324.313 341.728 325.327 339.756C327.658 335.405 333.679 323.47 345.139 321.899C346.767 322.881 341.605 328.607 341.605 328.607Z" fill="#263238"/>
<path d="M337.245 319.29C325.654 321.597 323.02 336.468 318.906 342.791C314.791 349.114 303.364 357.711 303.364 357.711" stroke="#263238" stroke-width="1.52" stroke-miterlimit="10"/>
<path d="M297.114 353.916C299.004 357.368 298.112 361.376 297.114 363.887C296.625 365.135 296.017 366.332 295.298 367.462C278.889 364.763 262.48 355.945 262.48 355.945L258.251 342.857L257.572 340.762L263.944 332.182" stroke="#263238" stroke-width="1.52" stroke-miterlimit="10"/>
<path d="M297.114 363.887C296.626 365.134 296.017 366.332 295.298 367.462C278.889 364.762 262.48 355.944 262.48 355.944L258.251 342.856C260.37 345.621 264.296 349.67 270.186 351.331C278.178 353.597 292.926 356.247 297.114 363.887Z" fill="#263238"/>
<path d="M194.308 243.601L198.676 190.504L252.165 188.451L255.756 189.768" stroke="#263238" stroke-width="1.52" stroke-linecap="round" stroke-linejoin="round"/>
<path d="M297.752 342.791C297.752 342.791 305.065 344.1 310.685 339.519C316.304 334.938 325.36 324.574 325.36 324.574" stroke="#263238" stroke-width="1.52" stroke-miterlimit="10"/>
<path d="M305.196 336.198C305.196 336.198 303.429 338.857 305.196 344.19" stroke="#263238" stroke-width="1.52" stroke-linecap="round" stroke-linejoin="round"/>
<path d="M310.382 333.654C309.578 336.306 309.815 339.164 311.045 341.646" stroke="#263238" stroke-width="1.52" stroke-linecap="round" stroke-linejoin="round"/>
<path d="M316.566 330.071C316.566 330.071 315.086 334.513 316.566 338.431" stroke="#263238" stroke-width="1.52" stroke-linecap="round" stroke-linejoin="round"/>
<path d="M265.392 331.077L259.527 338.136C259.527 338.136 265.433 344.591 273.768 347.274C282.104 349.957 296.991 354.513 298.227 359.364" stroke="#263238" stroke-width="1.52" stroke-miterlimit="10"/>
<path d="M228.771 213.11C228.444 213.11 228.179 213.371 228.179 213.693V217.371C228.179 217.693 228.444 217.954 228.771 217.954C229.098 217.954 229.363 217.693 229.363 217.371V213.693C229.363 213.371 229.098 213.11 228.771 213.11Z" fill="#6FCF97"/>
<path d="M230.375 214.651C230.078 214.651 229.836 214.889 229.836 215.182V216.458C229.836 216.751 230.078 216.989 230.375 216.989C230.673 216.989 230.914 216.751 230.914 216.458V215.182C230.914 214.889 230.673 214.651 230.375 214.651Z" fill="#6FCF97"/>
<path d="M229.836 213.861C229.836 213.568 230.078 213.331 230.375 213.331C230.673 213.331 230.914 213.568 230.914 213.861V213.969C230.914 214.262 230.673 214.499 230.375 214.499C230.078 214.499 229.836 214.262 229.836 213.969V213.861Z" fill="#6FCF97"/>
<path d="M231.946 214.922C231.648 214.922 231.407 215.159 231.407 215.452V215.56C231.407 215.853 231.648 216.09 231.946 216.09C232.243 216.09 232.484 215.853 232.484 215.56V215.452C232.484 215.159 232.243 214.922 231.946 214.922Z" fill="#6FCF97"/>
</svg>
