<svg width="952" height="951" viewBox="0 0 952 951" fill="none" xmlns="http://www.w3.org/2000/svg">
<path d="M285.733 2.59925C282.533 3.66591 248 28.0659 205.733 59.1326C164.8 89.1326 122.533 120.199 111.733 128.066C91.6 142.733 88 146.733 88 154.599C88 156.599 89.0667 160.066 90.4 162.066C92.6667 165.933 96.9333 168.466 141.333 192.199C152 197.933 181.067 213.533 206 226.999C253.6 252.466 258.667 255.533 258.667 258.199C258.667 260.999 251.467 266.733 209.333 298.599C158.267 336.999 98.4 382.199 67.7333 405.266C30.9333 433.133 17.7333 448.999 7.33332 478.066C-0.800014 500.733 -2.00001 526.866 3.99999 550.466C7.86665 565.533 18.1333 585.399 30.5333 601.799C43.0667 618.333 54.6667 629.666 67.4667 637.533C90.5333 651.933 172.933 697.533 178 698.866C186.133 700.866 194.267 700.733 202.4 698.333C208.667 696.466 236.933 676.333 337.333 602.199C343.6 597.666 359.733 585.666 373.333 575.666C386.933 565.666 398.667 556.199 399.6 554.599C402.267 549.799 401.733 539.933 398.667 535.933C397.2 534.066 390.267 528.999 383.333 524.866C376.4 520.599 370.667 516.466 370.667 515.666C370.667 512.333 366.133 515.799 530.267 392.333C712.267 255.399 714.133 254.066 723.467 243.933C750.133 215.266 762 175.399 755.333 137.533C752.933 123.399 748 108.999 742 98.0659C730.133 76.4659 705.067 48.7326 688.4 38.5992C656 18.8659 615.333 14.4659 579.6 26.8659C565.2 31.9326 553.867 38.9992 519.333 64.9993C490.133 86.9993 484.133 90.9993 481.333 90.3326C479.6 89.7993 442 70.0659 398 46.3326C354 22.7326 315.6 2.59925 312.667 1.79925C305.333 -0.200753 292.533 0.199247 285.733 2.59925Z" fill="white"/>
<path d="M748.666 253C743.466 255 729.2 265.133 638.666 331.666C614.8 349.133 587.866 368.866 578.8 375.533C569.733 382.2 560.266 389.4 557.866 391.4C552.133 396.2 550 402.733 552 408.866C553.866 414.466 556.8 417.266 569.733 425C582.8 432.866 584.133 435.133 578.933 440.066C576.8 442.066 542.4 468.333 502.533 498.333C462.666 528.333 419.2 561 406 571C392.8 581 352.666 611.266 316.666 638.333C280.8 665.399 247.2 690.733 242.266 694.733C201.866 726.733 185.6 784.066 202.933 833.666C208.133 848.333 212.666 856.199 227.066 875.266C255.866 913.533 291.466 931.266 336 929.266C370.133 927.799 382.933 921.933 430.666 886.333C451.2 870.999 466.666 860.333 468.4 860.333C471.466 860.333 477.2 863.399 574.933 915.933C607.066 933.133 636.133 948.066 639.6 949.266C648.266 951.933 662.933 950.999 670.133 947.266C674.666 944.999 694.4 930.599 791.733 859.133C799.333 853.533 810.533 845.399 816.533 840.999C860.133 808.999 862.533 807.133 864.133 801.799C866 795.266 864.933 790.733 860.266 785.666C858.133 783.133 833.466 769.266 796.666 749.533C707.066 701.666 694.933 694.866 694.133 692.866C693.733 691.799 693.733 690.066 694.133 688.999C694.533 687.933 719.066 668.999 748.4 646.733C777.866 624.599 808 601.933 815.333 596.333C822.666 590.733 846.666 572.599 868.666 556.066C890.666 539.533 912.4 522.066 916.8 517.4C946.666 486.333 958.133 441.4 947.2 398.466C942.133 378.066 921.333 345.133 902.266 327.533C893.733 319.533 873.466 307 818 275.266C776.8 251.8 777.066 251.933 764.666 251.4C757.6 251.133 752.266 251.666 748.666 253Z" fill="#2F72E3"/>
</svg>
