<svg width="341" height="337" viewBox="0 0 341 337" fill="none" xmlns="http://www.w3.org/2000/svg">
<g clip-path="url(#clip0_819_1037)">
<path d="M0.0234985 326.084H340.977" stroke="#263238" stroke-linecap="round" stroke-linejoin="round"/>
<path d="M207.014 150.115V22.3359H214.94" stroke="#263238" stroke-linecap="round" stroke-linejoin="round"/>
<path d="M207.014 165.321V161.935" stroke="#263238" stroke-linecap="round" stroke-linejoin="round"/>
<path d="M235.324 22.3359H317.112V177.236H207.014" stroke="#263238" stroke-linecap="round" stroke-linejoin="round"/>
<path d="M225.301 22.3359H232.488" stroke="#263238" stroke-linecap="round" stroke-linejoin="round"/>
<path d="M312.971 26.4609H211.155V173.111H312.971V26.4609Z" stroke="#263238" stroke-linecap="round" stroke-linejoin="round"/>
<path d="M308.238 34.3115V95.2139H215.888V91.2365" stroke="#263238" stroke-linecap="round" stroke-linejoin="round"/>
<path d="M215.888 81.9274V30.7861H308.238" stroke="#263238" stroke-linecap="round" stroke-linejoin="round"/>
<path d="M215.888 88.1887V84.3242" stroke="#263238" stroke-linecap="round" stroke-linejoin="round"/>
<path d="M292.639 99.7812H312.971" stroke="#263238" stroke-linecap="round" stroke-linejoin="round"/>
<path d="M285.41 99.7812H288.289" stroke="#263238" stroke-linecap="round" stroke-linejoin="round"/>
<path d="M211.155 99.7812H281.982" stroke="#263238" stroke-linecap="round" stroke-linejoin="round"/>
<path d="M256.943 95.2139V93.1123H265.46V94.302H262.068V95.2139" stroke="#263238" stroke-linecap="round" stroke-linejoin="round"/>
<path d="M211.329 154.631C211.329 154.631 212.747 155.699 213.739 162.16C213.739 162.16 215.479 151.844 217.515 151.687C219.551 151.531 219.168 158.391 219.168 158.391C219.168 158.391 219.516 155.013 221.134 155.17C222.752 155.326 221.134 162.117 221.134 162.117C221.134 162.117 223.083 156.785 224.927 156.906C226.772 157.028 223.709 166.563 223.709 166.563C223.709 166.563 228.442 163.142 230.356 164.826C232.27 166.511 229.295 170.714 229.295 170.714C229.295 170.714 236.081 169.247 237.125 173.224" stroke="#263238" stroke-linecap="round" stroke-linejoin="round"/>
<path d="M237.133 169.394C237.133 169.394 240.091 167.458 242.423 168.361C242.423 168.361 240.944 166.112 242.423 164.74C243.902 163.368 245.798 168.361 245.798 168.361C245.798 168.361 246.016 159.981 248.974 160.406C251.932 160.832 248.974 168.361 248.974 168.361C248.974 168.361 254.255 163.689 255.525 165.313C256.795 166.937 254.655 169.394 254.655 169.394C255.61 169.124 256.619 169.106 257.583 169.342C258.547 169.578 259.433 170.06 260.153 170.74C260.153 170.74 263.694 167.137 267.627 166.615C267.627 166.615 265.017 159.034 266.278 157.506C267.54 155.977 269.854 164.123 269.854 164.123C269.854 164.123 270.863 158.826 274.204 158.409C274.204 158.409 271.446 156.915 272.264 154.649C273.082 152.382 276.884 155.187 276.884 155.187C276.884 155.187 275.318 151.201 277.797 150.107C280.277 149.013 281.277 153.442 281.277 153.442C281.277 153.442 281.973 148.804 284.879 149.099C287.785 149.395 286.845 154.692 286.845 154.692C286.845 154.692 289.586 150.454 291.056 150.88C293.988 151.748 293.1 158.452 293.1 158.452C293.1 158.452 297.189 155.613 298.251 156.924C299.312 158.235 293.988 161.969 293.988 161.969C293.988 161.969 298.051 162.412 300.582 164.783" stroke="#263238" stroke-linecap="round" stroke-linejoin="round"/>
<path d="M312.971 156.194C312.971 156.194 312.501 151.939 308.238 151.713C303.975 151.487 309.413 161.048 309.413 161.048C309.413 161.048 305.889 158.139 304.628 159.034C303.366 159.928 308.238 164.861 308.238 164.861C308.238 164.861 305.898 162.698 303.436 163.367C300.974 164.036 304.837 170.888 304.837 170.888C301.194 170.159 297.414 170.603 294.04 172.156" stroke="#263238" stroke-linecap="round" stroke-linejoin="round"/>
<path d="M167.62 288.064V325.858" stroke="#263238" stroke-linecap="round" stroke-linejoin="round"/>
<path d="M167.62 275.698V283.792" stroke="#263238" stroke-linecap="round" stroke-linejoin="round"/>
<path d="M8.2363 326.083V255.654H167.62V271.112" stroke="#263238" stroke-linecap="round" stroke-linejoin="round"/>
<path d="M31.4566 263.357H17.6236V319.622" stroke="#263238" stroke-linecap="round" stroke-linejoin="round"/>
<path d="M158.233 325.858V263.357H39.4867" stroke="#263238" stroke-linecap="round" stroke-linejoin="round"/>
<path d="M151.604 248.36H147.21" stroke="#263238" stroke-linecap="round" stroke-linejoin="round"/>
<path d="M140.903 248.36H4.2778V255.603H171.579V248.36H154.405" stroke="#263238" stroke-linecap="round" stroke-linejoin="round"/>
<path d="M13.6999 201.952C13.6999 201.952 26.7499 202.986 27.3415 212.625C27.3415 212.625 14.074 218.721 13.6999 201.952Z" stroke="#263238" stroke-linecap="round" stroke-linejoin="round"/>
<path d="M39.5998 204.348C39.5998 204.348 46.9165 194.474 58.7398 199.537C58.7398 199.537 51.5188 211.469 39.5998 204.348Z" stroke="#263238" stroke-linecap="round" stroke-linejoin="round"/>
<path d="M57.7393 173.172C57.7393 173.172 59.8447 192.164 42.523 186.937C42.523 186.937 48.0214 172.972 57.7393 173.172Z" stroke="#263238" stroke-linecap="round" stroke-linejoin="round"/>
<path d="M36.4678 162.595C36.4678 162.595 50.1703 169.976 40.0957 181.162C40.0957 181.162 30.4909 173.172 36.4678 162.595Z" stroke="#263238" stroke-linecap="round" stroke-linejoin="round"/>
<path d="M19.6159 179.572C19.6159 179.572 34.5103 178.078 34.5103 191.834C34.5103 191.834 19.6159 192.425 19.6159 179.572Z" stroke="#263238" stroke-linecap="round" stroke-linejoin="round"/>
<path d="M30.778 220.397C30.5605 215.777 30.5605 209.837 33.388 203.558C39.9043 189.073 42.088 176.872 38.7037 168.274" stroke="#263238" stroke-linecap="round" stroke-linejoin="round"/>
<path d="M24.5053 183.289C24.5053 183.289 33.4315 186.832 36.4678 196.011" stroke="#263238" stroke-linecap="round" stroke-linejoin="round"/>
<path d="M53.05 180.771C53.05 180.771 47.8909 187.787 39.13 187.032" stroke="#263238" stroke-linecap="round" stroke-linejoin="round"/>
<path d="M53.05 201.526C53.05 201.526 38.7559 205.634 33.04 204.288" stroke="#263238" stroke-linecap="round" stroke-linejoin="round"/>
<path d="M17.9629 206.294C17.9629 206.294 24.3574 213.293 30.778 213.181" stroke="#263238" stroke-linecap="round" stroke-linejoin="round"/>
<path d="M47.7691 220.396H16.7188C16.518 220.396 16.3255 220.476 16.1836 220.618C16.0416 220.759 15.9619 220.952 15.9619 221.152V223.505C15.9619 223.604 15.9815 223.702 16.0197 223.793C16.0578 223.884 16.1137 223.967 16.1841 224.037C16.2545 224.106 16.338 224.161 16.4298 224.198C16.5216 224.235 16.6198 224.253 16.7188 224.252H17.5888L20.3554 248.36H44.089L46.8556 224.252H47.7691C47.8677 224.253 47.9655 224.235 48.0568 224.198C48.1481 224.161 48.231 224.106 48.3007 224.036C48.3704 223.967 48.4255 223.884 48.4627 223.793C48.4999 223.701 48.5184 223.604 48.5173 223.505V221.152C48.5184 221.053 48.4999 220.955 48.4628 220.864C48.4258 220.772 48.3708 220.689 48.3012 220.618C48.2316 220.548 48.1488 220.492 48.0574 220.454C47.9661 220.416 47.8681 220.396 47.7691 220.396Z" stroke="#263238" stroke-miterlimit="10"/>
<path d="M19.6159 224.253H37.6771" stroke="#263238" stroke-linecap="round" stroke-linejoin="round"/>
<path d="M41.0788 224.253H43.7932" stroke="#263238" stroke-linecap="round" stroke-linejoin="round"/>
<path d="M238.978 124.314L235.498 143.194L207.118 160.406L211.042 167.597C211.042 167.597 243.85 157.61 244.65 155.274C245.451 152.938 253.011 128.196 253.011 128.196L238.978 124.314Z" fill="#263238"/>
<path d="M251.41 92.3916L249.513 115.283L248.513 127.293C243.041 129.951 237.69 125.956 237.36 125.696C238.847 121.336 240.578 96.7337 251.41 92.3916Z" fill="#999999" stroke="#263238" stroke-linecap="round" stroke-linejoin="round"/>
<path d="M249.479 115.283L248.478 127.293C243.006 129.95 237.655 125.956 237.325 125.695C237.56 125.799 240.439 127.015 242.31 125.695C241.655 124.99 241.073 124.222 240.57 123.403C240.457 122.951 242.31 122.829 242.31 122.829C242.31 122.829 241.092 113.094 244.337 108.935C245.607 107.354 247.591 110.654 249.479 115.283Z" fill="#263238"/>
<path d="M271.063 304.382L271.933 306.935C270.615 309.107 269.138 311.18 267.514 313.136C267.514 313.136 266.644 312.858 265.217 314.117C264.338 314.992 263.796 316.148 263.686 317.382C263.686 317.382 257.039 325.337 248.609 325.45C240.178 325.563 242.719 321.325 242.719 321.325L271.063 304.382Z" fill="#3370FF" stroke="#263238" stroke-linecap="round" stroke-linejoin="round"/>
<path d="M263.138 284.14C263.138 284.14 251.828 279.98 249.618 288.299C249.618 288.299 251.636 297.461 250.427 302.472C249.218 307.483 243.128 317.053 242.753 318.868C242.014 322.428 242.571 322.671 242.571 322.671C242.571 322.671 246.999 325.225 252.95 322.489C258.901 319.753 269.201 307.978 270.811 305.555C272.42 303.132 265.765 293.579 265.765 293.579L263.138 284.14Z" fill="white"/>
<mask id="mask0_819_1037" style="mask-type:luminance" maskUnits="userSpaceOnUse" x="242" y="283" width="30" height="41">
<path d="M263.138 284.14C263.138 284.14 251.828 279.98 249.618 288.299C249.618 288.299 251.636 297.461 250.427 302.472C249.218 307.483 243.128 317.053 242.753 318.868C242.014 322.428 242.571 322.671 242.571 322.671C242.571 322.671 246.999 325.225 252.95 322.489C258.901 319.753 269.201 307.978 270.811 305.555C272.42 303.132 265.765 293.579 265.765 293.579L263.138 284.14Z" fill="white"/>
</mask>
<g mask="url(#mask0_819_1037)">
<path opacity="0.4" d="M263.138 284.14C263.138 284.14 251.828 279.98 249.618 288.299C249.618 288.299 251.636 297.461 250.427 302.472C249.218 307.483 243.128 317.053 242.753 318.868C242.014 322.428 242.571 322.671 242.571 322.671C242.571 322.671 246.999 325.225 252.95 322.489C258.901 319.753 269.201 307.978 270.811 305.555C272.42 303.132 265.765 293.579 265.765 293.579L263.138 284.14Z" fill="#3370FF"/>
</g>
<path d="M263.138 284.14C263.138 284.14 251.828 279.98 249.618 288.299C249.618 288.299 251.636 297.461 250.427 302.472C249.218 307.483 243.128 317.053 242.753 318.868C242.014 322.428 242.571 322.671 242.571 322.671C242.571 322.671 246.999 325.225 252.95 322.489C258.901 319.753 269.201 307.978 270.811 305.555C272.42 303.132 265.765 293.579 265.765 293.579L263.138 284.14Z" stroke="#263238" stroke-linecap="round" stroke-linejoin="round"/>
<path d="M257.352 295.906C258.336 301.511 257.337 307.283 254.525 312.233" stroke="#263238" stroke-linecap="round" stroke-linejoin="round"/>
<path d="M254.525 314.42C254.104 315.478 253.451 316.428 252.613 317.2C251.776 317.972 250.777 318.548 249.687 318.884C247.408 319.493 245.007 319.493 242.727 318.884L245.442 313.396C248.323 314.541 251.46 314.895 254.525 314.42Z" fill="#3370FF" stroke="#263238" stroke-linecap="round" stroke-linejoin="round"/>
<path d="M256.125 311.095C256.125 311.095 250.209 311.451 247.121 310.227" stroke="#263238" stroke-linecap="round" stroke-linejoin="round"/>
<path d="M257.222 307.838C257.222 307.838 251.688 308.707 248.6 306.97" stroke="#263238" stroke-linecap="round" stroke-linejoin="round"/>
<path d="M258.161 304.217C258.161 304.217 253.315 304.92 250.148 303.427" stroke="#263238" stroke-linecap="round" stroke-linejoin="round"/>
<path d="M258.701 300.117C258.701 300.117 253.307 301.802 250.757 300.117" stroke="#263238" stroke-linecap="round" stroke-linejoin="round"/>
<path d="M259.51 289.991L260.449 295.905C260.449 295.905 253.315 300.595 248.6 294.733V288.559C248.6 288.559 250.375 292.71 259.51 289.991Z" fill="#3370FF" stroke="#263238" stroke-linecap="round" stroke-linejoin="round"/>
<path d="M253.315 157.236C246.086 180.102 223.648 216.775 225.919 226.163C227.163 231.287 234.567 260.318 240.361 273.058C242.562 277.929 247.321 281.186 247.321 281.186L250.757 288.542C259.136 292.18 262.137 284.781 262.137 284.781L260.449 276.444C264.939 268.299 263.059 268.299 257.222 226.076C256.534 221.1 268.097 205.72 268.097 205.72L274.03 244.417L274.996 276.115L278.075 285.91C278.075 285.91 278.841 295.107 278.771 295.663H292.544L294.04 285.554C294.04 285.554 300.434 279.536 300.434 272.589C300.434 265.641 299.06 230.253 300.434 219.945C301.809 209.637 297.215 161.578 297.215 161.578L253.315 157.236Z" fill="#263238"/>
<path d="M159.691 136.863L178.831 138.582C179.265 138.621 179.665 138.831 179.945 139.164C180.224 139.498 180.359 139.929 180.32 140.362L179.09 153.996L156.679 151.983L157.908 138.348C157.947 137.915 158.157 137.516 158.491 137.237C158.826 136.958 159.257 136.824 159.691 136.863Z" fill="#3370FF"/>
<mask id="mask1_819_1037" style="mask-type:luminance" maskUnits="userSpaceOnUse" x="156" y="136" width="25" height="18">
<path d="M159.691 136.863L178.831 138.582C179.265 138.621 179.665 138.831 179.945 139.164C180.224 139.498 180.359 139.929 180.32 140.362L179.09 153.996L156.679 151.983L157.908 138.348C157.947 137.915 158.157 137.516 158.491 137.237C158.826 136.958 159.257 136.824 159.691 136.863Z" fill="white"/>
</mask>
<g mask="url(#mask1_819_1037)">
<path opacity="0.3" d="M159.691 136.863L178.831 138.582C179.265 138.621 179.665 138.831 179.945 139.164C180.224 139.498 180.359 139.929 180.32 140.362L179.09 153.996L156.679 151.983L157.908 138.348C157.947 137.915 158.157 137.516 158.491 137.237C158.826 136.958 159.257 136.824 159.691 136.863Z" fill="black" fill-opacity="0.7"/>
<path opacity="0.3" d="M179.132 138.346L173.645 137.875L172.702 148.829L178.189 149.299L179.132 138.346Z" fill="white" fill-opacity="0.7"/>
</g>
<path d="M159.691 136.863L178.831 138.582C179.265 138.621 179.665 138.831 179.945 139.164C180.224 139.498 180.359 139.929 180.32 140.362L179.09 153.996L156.679 151.983L157.908 138.348C157.947 137.915 158.157 137.516 158.491 137.237C158.826 136.958 159.257 136.824 159.691 136.863Z" stroke="#263238" stroke-width="1.00404" stroke-linecap="round" stroke-linejoin="round"/>
<path d="M192.728 138.069L211.797 139.705C212.23 139.742 212.629 139.949 212.909 140.28C213.188 140.611 213.324 141.04 213.287 141.471L212.118 155.055L189.789 153.141L190.958 139.556C190.995 139.125 191.203 138.726 191.534 138.447C191.866 138.168 192.295 138.032 192.728 138.069Z" fill="#3370FF"/>
<mask id="mask2_819_1037" style="mask-type:luminance" maskUnits="userSpaceOnUse" x="189" y="138" width="25" height="18">
<path d="M192.728 138.069L211.797 139.705C212.23 139.742 212.629 139.949 212.909 140.28C213.188 140.611 213.324 141.04 213.287 141.471L212.118 155.055L189.789 153.141L190.958 139.556C190.995 139.125 191.203 138.726 191.534 138.447C191.866 138.168 192.295 138.032 192.728 138.069Z" fill="white"/>
</mask>
<g mask="url(#mask2_819_1037)">
<path opacity="0.3" d="M192.728 138.069L211.797 139.705C212.23 139.742 212.629 139.949 212.909 140.28C213.188 140.611 213.324 141.04 213.287 141.471L212.118 155.055L189.789 153.141L190.958 139.556C190.995 139.125 191.203 138.726 191.534 138.447C191.866 138.168 192.295 138.032 192.728 138.069Z" fill="black" fill-opacity="0.7"/>
<path opacity="0.3" d="M211.694 141.143L208.383 140.859L207.44 151.813L210.751 152.097L211.694 141.143Z" fill="white" fill-opacity="0.7"/>
</g>
<path d="M192.728 138.069L211.797 139.705C212.23 139.742 212.629 139.949 212.909 140.28C213.188 140.611 213.324 141.04 213.287 141.471L212.118 155.055L189.789 153.141L190.958 139.556C190.995 139.125 191.203 138.726 191.534 138.447C191.866 138.168 192.295 138.032 192.728 138.069Z" stroke="#263238" stroke-linecap="round" stroke-linejoin="round"/>
<path d="M185.801 137.471L204.871 139.106C205.303 139.143 205.703 139.35 205.982 139.681C206.261 140.013 206.398 140.441 206.36 140.872L205.191 154.457L182.862 152.542L184.031 138.958C184.069 138.526 184.276 138.127 184.608 137.848C184.94 137.57 185.369 137.434 185.801 137.471Z" fill="#3370FF" stroke="#263238" stroke-linecap="round" stroke-linejoin="round"/>
<path d="M218.732 140.3L237.802 141.935C238.234 141.972 238.634 142.179 238.913 142.51C239.193 142.842 239.329 143.27 239.292 143.702L238.123 157.277L215.794 155.362L216.963 141.778C217.003 141.348 217.211 140.952 217.542 140.675C217.874 140.398 218.302 140.263 218.732 140.3Z" fill="#3370FF" stroke="#263238" stroke-linecap="round" stroke-linejoin="round"/>
<path opacity="0.3" d="M205.136 140.576L199.65 140.105L198.707 151.059L204.194 151.53L205.136 140.576Z" fill="white" fill-opacity="0.7"/>
<path opacity="0.3" d="M237.707 143.366L232.22 142.896L231.277 153.849L236.764 154.32L237.707 143.366Z" fill="white" fill-opacity="0.7"/>
<path d="M248.095 154.969L242.71 217.435L141.886 208.751L147.271 146.294C147.315 145.777 147.46 145.274 147.699 144.813C147.938 144.353 148.266 143.943 148.664 143.61C149.061 143.276 149.521 143.023 150.017 142.867C150.512 142.711 151.034 142.653 151.551 142.699L244.485 150.671C245.006 150.713 245.513 150.859 245.977 151.098C246.442 151.338 246.854 151.667 247.19 152.067C247.525 152.467 247.778 152.93 247.934 153.428C248.089 153.926 248.144 154.45 248.095 154.969Z" fill="#3370FF"/>
<mask id="mask3_819_1037" style="mask-type:luminance" maskUnits="userSpaceOnUse" x="141" y="142" width="108" height="76">
<path d="M248.095 154.969L242.71 217.435L141.886 208.751L147.271 146.294C147.315 145.777 147.46 145.274 147.699 144.813C147.938 144.353 148.266 143.943 148.664 143.61C149.061 143.276 149.521 143.023 150.017 142.867C150.512 142.711 151.034 142.653 151.551 142.699L244.485 150.671C245.006 150.713 245.513 150.859 245.977 151.098C246.442 151.338 246.854 151.667 247.19 152.067C247.525 152.467 247.778 152.93 247.934 153.428C248.089 153.926 248.144 154.45 248.095 154.969Z" fill="white"/>
</mask>
<g mask="url(#mask3_819_1037)">
<path opacity="0.3" d="M248.095 154.969L242.71 217.435L141.886 208.751L147.271 146.294C147.315 145.777 147.46 145.274 147.699 144.813C147.938 144.353 148.266 143.943 148.664 143.61C149.061 143.276 149.521 143.023 150.017 142.867C150.512 142.711 151.034 142.653 151.551 142.699L244.485 150.671C245.006 150.713 245.513 150.859 245.977 151.098C246.442 151.338 246.854 151.667 247.19 152.067C247.525 152.467 247.778 152.93 247.934 153.428C248.089 153.926 248.144 154.45 248.095 154.969Z" fill="black" fill-opacity="0.7"/>
</g>
<path d="M248.095 154.969L242.71 217.435L141.886 208.751L147.271 146.294C147.315 145.777 147.46 145.274 147.699 144.813C147.938 144.353 148.266 143.943 148.664 143.61C149.061 143.276 149.521 143.023 150.017 142.867C150.512 142.711 151.034 142.653 151.551 142.699L244.485 150.671C245.006 150.713 245.513 150.859 245.977 151.098C246.442 151.338 246.854 151.667 247.19 152.067C247.525 152.467 247.778 152.93 247.934 153.428C248.089 153.926 248.144 154.45 248.095 154.969Z" stroke="#263238" stroke-linecap="round" stroke-linejoin="round"/>
<path d="M248.095 154.97L242.71 217.436L167.89 211.01L173.284 148.553C173.328 148.036 173.473 147.533 173.712 147.072C173.951 146.611 174.279 146.202 174.677 145.868C175.074 145.534 175.534 145.282 176.03 145.126C176.525 144.969 177.047 144.912 177.564 144.957L244.493 150.698C245.011 150.741 245.515 150.887 245.977 151.125C246.438 151.364 246.848 151.691 247.183 152.088C247.517 152.485 247.77 152.944 247.927 153.438C248.083 153.933 248.141 154.454 248.095 154.97Z" fill="#3370FF" stroke="#263238" stroke-linecap="round" stroke-linejoin="round"/>
<path opacity="0.3" d="M242.84 156.758L178.887 151.27C178.46 151.232 178.066 151.029 177.788 150.704C177.51 150.38 177.37 149.959 177.399 149.533C177.437 149.107 177.64 148.713 177.965 148.436C178.291 148.158 178.712 148.019 179.139 148.048L243.093 153.536C243.519 153.574 243.914 153.777 244.192 154.101C244.47 154.426 244.609 154.847 244.58 155.273C244.543 155.699 244.339 156.092 244.014 156.37C243.689 156.648 243.267 156.787 242.84 156.758Z" fill="white" fill-opacity="0.7"/>
<path d="M292.996 296.019C292.996 296.019 288.176 292.588 278.206 293.274C278.206 293.274 277.475 305.215 276.118 308.689C274.761 312.162 267.609 318.181 266.278 319.214C264.947 320.247 264.947 323.851 264.947 323.851H295.241C294.852 318.683 294.046 313.554 292.831 308.515L292.996 296.019Z" fill="white"/>
<mask id="mask4_819_1037" style="mask-type:luminance" maskUnits="userSpaceOnUse" x="264" y="293" width="32" height="31">
<path d="M292.996 296.019C292.996 296.019 288.176 292.588 278.206 293.274C278.206 293.274 277.475 305.215 276.118 308.689C274.761 312.162 267.609 318.181 266.278 319.214C264.947 320.247 264.947 323.851 264.947 323.851H295.241C294.852 318.683 294.046 313.554 292.831 308.515L292.996 296.019Z" fill="white"/>
</mask>
<g mask="url(#mask4_819_1037)">
<path opacity="0.4" d="M292.996 296.019C292.996 296.019 288.176 292.588 278.206 293.274C278.206 293.274 277.475 305.215 276.118 308.689C274.761 312.162 267.609 318.181 266.278 319.214C264.947 320.247 264.947 323.851 264.947 323.851H295.241C294.852 318.683 294.046 313.554 292.831 308.515L292.996 296.019Z" fill="#3370FF"/>
</g>
<path d="M292.996 296.019C292.996 296.019 288.176 292.588 278.206 293.274C278.206 293.274 277.475 305.215 276.118 308.689C274.761 312.162 267.609 318.181 266.278 319.214C264.947 320.247 264.947 323.851 264.947 323.851H295.241C294.852 318.683 294.046 313.554 292.831 308.515L292.996 296.019Z" stroke="#263238" stroke-linecap="round" stroke-linejoin="round"/>
<path d="M286.741 297.564C286.741 297.564 286.027 308.559 284.313 311.459C283.398 313.053 282.268 314.514 280.955 315.801" stroke="#263238" stroke-linecap="round" stroke-linejoin="round"/>
<path d="M280.12 317.321C280.12 317.321 278.597 319.214 276.91 319.466C275.222 319.717 266.304 319.214 266.304 319.214L269.941 316.07C269.941 316.07 277.336 314.828 280.12 317.321Z" fill="#3370FF" stroke="#263238" stroke-linecap="round" stroke-linejoin="round"/>
<path d="M283.269 314.742C283.269 314.742 276.814 311.042 272.212 313.873" stroke="#263238" stroke-linecap="round" stroke-linejoin="round"/>
<path d="M284.827 312.232C284.827 312.232 280.32 308.715 275.004 310.643" stroke="#263238" stroke-linecap="round" stroke-linejoin="round"/>
<path d="M286.741 308.402C286.741 308.402 281.886 304.633 276.77 307.03" stroke="#263238" stroke-linecap="round" stroke-linejoin="round"/>
<path d="M287.402 303.617C287.402 303.617 281.512 300.456 277.232 302.853" stroke="#263238" stroke-linecap="round" stroke-linejoin="round"/>
<path d="M295.232 323.852V326.083H291.752C291.752 326.083 288.768 324.347 285.932 326.083H269.593C267.867 326.078 266.162 325.695 264.599 324.963L264.938 323.852H295.232Z" fill="#3370FF" stroke="#263238" stroke-linecap="round" stroke-linejoin="round"/>
<path d="M290.891 295.315L290.116 300.187C290.116 300.187 281.025 297.243 276.005 299.154V293.162C276.005 293.162 285.34 289.897 290.891 295.315Z" fill="#3370FF" stroke="#263238" stroke-linecap="round" stroke-linejoin="round"/>
<path d="M300.722 173.936C300.722 173.936 281.399 177.714 262.442 171.583C258.125 170.21 253.996 168.308 250.148 165.921C250.148 165.921 250.201 164.705 250.235 162.716C250.392 154.953 250.349 135.422 246.251 130.585C243.641 127.536 241.596 108.692 246.634 99.1651L262.041 86.7988C283.374 90.9586 287.88 96.5946 291.404 108.753C292.056 110.976 292.665 113.416 293.344 116.108C294.083 119.043 294.779 122.63 295.441 126.529C298.642 145.947 300.722 173.936 300.722 173.936Z" fill="#999999"/>
<mask id="mask5_819_1037" style="mask-type:luminance" maskUnits="userSpaceOnUse" x="243" y="86" width="58" height="90">
<path d="M300.722 173.936C300.722 173.936 281.399 177.714 262.442 171.583C258.125 170.21 253.996 168.308 250.148 165.921C250.148 165.921 250.201 164.705 250.235 162.716C250.392 154.953 250.349 135.422 246.251 130.585C243.641 127.536 241.596 108.692 246.634 99.1651L262.041 86.7988C283.374 90.9586 287.88 96.5946 291.404 108.753C292.056 110.976 292.665 113.416 293.344 116.108C294.083 119.043 294.779 122.63 295.441 126.529C298.642 145.947 300.722 173.936 300.722 173.936Z" fill="white"/>
</mask>
<g mask="url(#mask5_819_1037)">
<path opacity="0.2" d="M295.441 126.529L286.741 165.322C286.741 165.322 274.169 168.795 262.45 171.583C258.131 170.211 253.999 168.309 250.148 165.921C250.148 165.921 250.201 164.705 250.235 162.716C260.762 157.341 276.127 149.438 276.005 149.065C275.805 148.483 276.005 128.223 276.005 128.223C276.005 128.223 289.925 125.001 291.404 108.727C292.056 110.95 292.665 113.39 293.344 116.082C294.084 119.026 294.779 122.587 295.441 126.529Z" fill="black"/>
</g>
<path d="M300.722 173.936C300.722 173.936 281.399 177.714 262.442 171.583C258.125 170.21 253.996 168.308 250.148 165.921C250.148 165.921 250.201 164.705 250.235 162.716C250.392 154.953 250.349 135.422 246.251 130.585C243.641 127.536 241.596 108.692 246.634 99.1651L262.041 86.7988C283.374 90.9586 287.88 96.5946 291.404 108.753C292.056 110.976 292.665 113.416 293.344 116.108C294.083 119.043 294.779 122.63 295.441 126.529C298.642 145.947 300.722 173.936 300.722 173.936Z" stroke="#263238" stroke-linecap="round" stroke-linejoin="round"/>
<path d="M262.72 70.5674C262.72 70.5674 255.917 80.2937 264.965 87.8837C264.965 87.8837 253.985 100.181 250.375 98.4871C248.852 97.775 250.375 93.3374 250.375 93.3374L244.006 81.579L262.72 70.5674Z" fill="white" stroke="#263238" stroke-linecap="round" stroke-linejoin="round"/>
<path d="M260.502 75.6045C262.624 66.3385 261.606 52.5393 248.6 53.7637C239.482 54.6321 232.983 59.669 235.55 71.879C236.62 77.0287 237.499 84.3235 242.232 90.9061C243.545 92.7298 257.291 86.2774 256.456 81.0582" fill="white"/>
<path d="M260.502 75.6045C262.624 66.3385 261.606 52.5393 248.6 53.7637C239.482 54.6321 232.983 59.669 235.55 71.879C236.62 77.0287 237.499 84.3235 242.232 90.9061C243.545 92.7298 257.291 86.2774 256.456 81.0582" stroke="#263238" stroke-linecap="round" stroke-linejoin="round"/>
<path d="M241.892 69.8119C242.809 69.4574 243.797 69.3222 244.776 69.4172C245.755 69.5122 246.698 69.8347 247.53 70.359" stroke="#263238" stroke-linecap="round" stroke-linejoin="round"/>
<path d="M235.35 70.95C235.517 70.5945 235.807 70.311 236.166 70.1515C236.526 69.992 236.931 69.9672 237.307 70.0816" stroke="#263238" stroke-linecap="round" stroke-linejoin="round"/>
<path d="M238.604 72.8779C238.604 72.8779 235.924 77.7498 235.915 78.4445C235.907 79.1392 239.213 79.3737 239.213 79.3737" fill="white"/>
<path d="M238.604 72.8779C238.604 72.8779 235.924 77.7498 235.915 78.4445C235.907 79.1392 239.213 79.3737 239.213 79.3737" stroke="#263238" stroke-linecap="round" stroke-linejoin="round"/>
<path d="M244.363 73.8687C244.363 74.3984 244.128 74.8326 243.797 74.85C243.467 74.8674 243.188 74.4332 243.171 73.9034C243.154 73.3737 243.406 72.9395 243.737 72.9308C244.067 72.9221 244.346 73.3563 244.363 73.8687Z" fill="#263238"/>
<path d="M240.578 82.9167C240.578 82.9167 245.72 81.9528 246.668 80.1465" stroke="#263238" stroke-linecap="round" stroke-linejoin="round"/>
<path d="M235.315 63.4469L239.317 62.2832C239.317 62.2832 244.929 59.6779 246.12 60.0427C247.312 60.4074 249.731 64.1156 249.653 66.2345C249.653 66.2345 253.428 69.5519 253.907 74.3629L255.055 73.8419C255.055 73.8419 254.994 69.4998 257.465 69.6127C259.936 69.7256 261.05 72.6782 260.884 73.6074C260.719 74.5366 258.013 78.3924 258.013 78.3924C258.013 78.3924 264.208 77.4719 264.408 65.3661C264.608 53.2603 251.314 51.289 244.85 51.784C241.577 52.097 238.289 52.2187 235.002 52.1487L235.367 55.6224L232.757 56.3085L234.723 58.714L232.566 59.6953L235.315 63.4469Z" fill="#263238"/>
<path d="M257.726 195.447C257.726 195.447 273.473 199.607 277.736 211.313" stroke="white" stroke-linecap="round" stroke-linejoin="round"/>
<path d="M264.938 201.743C264.938 201.743 256.43 215.89 243.406 223.237" stroke="white" stroke-linecap="round" stroke-linejoin="round"/>
<path d="M252.976 281.298C252.976 281.298 257.813 280.213 259.136 278.337" stroke="white" stroke-linecap="round" stroke-linejoin="round"/>
<path d="M279.911 283.097C279.911 283.097 284.644 280.648 289.359 283.097" stroke="white" stroke-linecap="round" stroke-linejoin="round"/>
<path d="M295.232 217.235C295.232 217.235 287.289 237.774 283.269 239.675" stroke="white" stroke-linecap="round" stroke-linejoin="round"/>
<path d="M260.449 185.069C260.667 187.301 270.019 197.644 277.736 201.743" stroke="white" stroke-linecap="round" stroke-linejoin="round"/>
<path d="M268.427 176.342C269.553 179.111 269.787 182.161 269.097 185.069C268.347 187.579 268.347 190.254 269.097 192.764" stroke="white" stroke-linecap="round" stroke-linejoin="round"/>
<path d="M251.41 133.633C251.41 133.633 266.052 152.547 281.79 158.756" stroke="#263238" stroke-linecap="round" stroke-linejoin="round"/>
<path d="M266.565 103.056C266.565 103.056 266.513 115.917 275.805 121.718" stroke="#263238" stroke-linecap="round" stroke-linejoin="round"/>
<path d="M271.794 121.822C269.828 123.75 271.968 147.944 271.968 147.944C271.968 147.944 260.545 152.408 256.969 155.282C253.394 158.157 236.455 164.757 236.455 164.757C236.455 164.757 233.845 173.632 237.098 173.936C240.352 174.24 274.047 162.777 281.756 158.756C281.756 158.756 286.775 129.23 286.741 121.718" fill="white"/>
<path d="M271.794 121.822C269.828 123.75 271.968 147.944 271.968 147.944C271.968 147.944 260.545 152.408 256.969 155.282C253.394 158.157 236.455 164.757 236.455 164.757C236.455 164.757 233.845 173.632 237.098 173.936C240.352 174.24 274.047 162.777 281.756 158.756C281.756 158.756 286.775 129.23 286.741 121.718" stroke="#263238" stroke-linecap="round" stroke-linejoin="round"/>
<path d="M237.795 164.227C236.229 163.932 233.445 162.907 231.983 163.246C230.521 163.584 227.85 165.191 225.101 165.851C222.352 166.511 223.492 167.588 225.101 167.909C226.279 168.105 227.482 168.105 228.66 167.909L226.424 170.089C225.143 170.78 223.821 171.392 222.465 171.921C221.656 171.921 218.794 172.694 218.985 173.91C219.177 175.126 220.821 174.987 222.657 175.056C222.657 175.056 219.733 175.638 220.047 177.297C220.238 178.434 223.527 177.41 225.206 177.41C225.206 177.41 223.831 178.903 224.858 179.363C225.884 179.824 228.164 178.677 228.164 178.677C228.164 178.677 228.077 179.911 229.103 180.032C230.13 180.154 232.714 179.164 234.471 178.104C236.202 176.991 237.858 175.767 239.43 174.44C240.095 173.832 240.857 173.339 241.683 172.981" fill="white"/>
<path d="M237.795 164.227C236.229 163.932 233.445 162.907 231.983 163.246C230.521 163.584 227.85 165.191 225.101 165.851C222.352 166.511 223.492 167.588 225.101 167.909C226.279 168.105 227.482 168.105 228.66 167.909L226.424 170.089C225.143 170.78 223.821 171.392 222.465 171.921C221.656 171.921 218.794 172.694 218.985 173.91C219.177 175.126 220.821 174.987 222.657 175.056C222.657 175.056 219.733 175.638 220.047 177.297C220.238 178.434 223.527 177.41 225.206 177.41C225.206 177.41 223.831 178.903 224.858 179.363C225.884 179.824 228.164 178.677 228.164 178.677C228.164 178.677 228.077 179.911 229.103 180.032C230.13 180.154 232.714 179.164 234.471 178.104C236.202 176.991 237.858 175.767 239.43 174.44C240.095 173.832 240.857 173.339 241.683 172.981" stroke="#263238" stroke-linecap="round" stroke-linejoin="round"/>
<path d="M222.7 175.09C223.508 175.047 224.313 174.954 225.11 174.813C225.797 174.639 226.485 174.413 226.485 174.413" stroke="#263238" stroke-linecap="round" stroke-linejoin="round"/>
<path d="M225.214 177.445C226.266 177.297 227.279 176.949 228.198 176.42" stroke="#263238" stroke-linecap="round" stroke-linejoin="round"/>
<path d="M228.172 178.712C228.95 178.614 229.695 178.338 230.347 177.904" stroke="#263238" stroke-linecap="round" stroke-linejoin="round"/>
<path d="M226.702 170.749C226.702 170.749 226.076 172.182 226.702 172.981C227.328 173.78 228.085 173.849 228.198 174.718C228.312 175.586 229.808 175.586 230.347 176.151C230.887 176.715 231.296 177.801 233.018 177.887" stroke="#263238" stroke-linecap="round" stroke-linejoin="round"/>
<path d="M271.063 96.7334C265.139 110.116 271.063 128.683 271.063 128.683C271.063 128.683 285.401 133.546 286.723 131.453C288.046 129.36 290.464 119.095 290.873 114.354" fill="#999999"/>
<path d="M271.063 96.7334C265.139 110.116 271.063 128.683 271.063 128.683C271.063 128.683 285.401 133.546 286.723 131.453C288.046 129.36 290.464 119.095 290.873 114.354" stroke="#263238" stroke-linecap="round" stroke-linejoin="round"/>
<path d="M286.741 115.839C286.741 115.839 280.651 124.202 275.805 124.315" stroke="#263238" stroke-linecap="round" stroke-linejoin="round"/>
<path d="M69.0667 326.083C69.0667 326.083 67.579 320.412 69.319 318.31C72.4336 314.541 68.9362 311.363 72.0682 310.069L73.3819 311.589C73.6342 310.052 72.9034 305.354 78.715 304.746C85.7446 304.007 85.8751 309.088 86.2579 310.825L86.1361 308.471C89.1376 308.471 87.5803 311.459 92.1217 316.339C93.3123 317.657 94.2186 319.205 94.7843 320.887C95.3501 322.569 95.5631 324.35 95.4103 326.117L69.0667 326.083Z" fill="#263238"/>
<path d="M122.65 326.084C119.822 324.824 122.415 314.178 122.415 314.178C122.415 314.178 118.613 311.633 122.415 308.967C123.886 310.211 125.668 311.03 127.571 311.336C129.474 311.642 131.424 311.424 133.212 310.704C133.212 310.704 133.951 303.583 138.432 304.495C138.432 304.495 139.58 309.01 142.199 311.59C149.289 318.537 158.45 319.405 159.982 322.74C160.443 323.748 159.886 326.049 159.886 326.049L122.65 326.084Z" fill="#263238"/>
<path d="M110.566 156.29L114.046 163.654C114.046 163.654 128.435 193.336 137.249 227.326C137.457 228.134 142.016 244.235 138.362 284.33L140.45 291.364L138.171 302.983C138.171 302.983 141.599 307.925 141.477 309.54C141.477 309.54 133.02 311.112 130.167 312.623C127.974 313.804 121.388 320.291 121.388 320.291C119.518 319.909 119.353 312.371 119.353 312.371C119.353 312.371 115.446 245.442 114.324 242.559C113.202 239.675 106.346 227.24 95.6452 198.781C95.6452 198.781 95.4016 238.529 92.548 248.585C89.9989 257.53 93.0178 282.567 93.0178 282.567L91.2778 310.434C91.2778 310.434 97.2982 316.678 92.4175 318.354C92.4175 318.354 89.155 312.093 79.8634 310.669C75.1393 309.939 69.2581 318.311 69.2581 318.311C67.1875 317.651 70.1281 307.134 70.1281 307.134C63.5422 257.53 68.3881 266.51 67.0831 242.263C66.2131 226.701 61.8196 160.128 67.0048 154.718L110.566 156.29Z" fill="#BFBFBF"/>
<mask id="mask6_819_1037" style="mask-type:luminance" maskUnits="userSpaceOnUse" x="64" y="154" width="78" height="167">
<path d="M110.566 156.29L114.046 163.654C114.046 163.654 128.435 193.336 137.249 227.326C137.457 228.134 142.016 244.235 138.362 284.33L140.45 291.364L138.171 302.983C138.171 302.983 141.599 307.925 141.477 309.54C141.477 309.54 133.02 311.112 130.167 312.623C127.974 313.804 121.388 320.291 121.388 320.291C119.518 319.909 119.353 312.371 119.353 312.371C119.353 312.371 115.446 245.442 114.324 242.559C113.202 239.675 106.346 227.24 95.6452 198.781C95.6452 198.781 95.4016 238.529 92.548 248.585C89.9989 257.53 93.0178 282.567 93.0178 282.567L91.2778 310.434C91.2778 310.434 97.2982 316.678 92.4175 318.354C92.4175 318.354 89.155 312.093 79.8634 310.669C75.1393 309.939 69.2581 318.311 69.2581 318.311C67.1875 317.651 70.1281 307.134 70.1281 307.134C63.5422 257.53 68.3881 266.51 67.0831 242.263C66.2131 226.701 61.8196 160.128 67.0048 154.718L110.566 156.29Z" fill="white"/>
</mask>
<g mask="url(#mask6_819_1037)">
<path opacity="0.2" d="M64.5862 179.216C87.85 181.04 107.99 173.441 116.734 169.472C115.072 165.755 114.054 163.654 114.054 163.654L110.574 156.298L67.0744 154.718C65.23 156.672 64.5775 166.598 64.5862 179.216Z" fill="black"/>
<path opacity="0.2" d="M95.8801 199.294C106.468 227.387 113.28 239.684 114.376 242.55C115.011 244.217 116.569 266.944 117.787 286.014C119.179 268.646 120.614 250.348 120.736 246.762C120.997 239.606 115.82 229.801 115.046 227.266C114.272 224.73 116.021 221.986 116.021 221.986L106.712 210.262C107.025 206.285 102.092 188.925 102.092 188.925C99.16 191.695 96.55 197.592 95.8801 199.294Z" fill="black"/>
</g>
<path d="M110.566 156.29L114.046 163.654C114.046 163.654 128.435 193.336 137.249 227.326C137.457 228.134 142.016 244.235 138.362 284.33L140.45 291.364L138.171 302.983C138.171 302.983 141.599 307.925 141.477 309.54C141.477 309.54 133.02 311.112 130.167 312.623C127.974 313.804 121.388 320.291 121.388 320.291C119.518 319.909 119.353 312.371 119.353 312.371C119.353 312.371 115.446 245.442 114.324 242.559C113.202 239.675 106.346 227.24 95.6452 198.781C95.6452 198.781 95.4016 238.529 92.548 248.585C89.9989 257.53 93.0178 282.567 93.0178 282.567L91.2778 310.434C91.2778 310.434 97.2982 316.678 92.4175 318.354C92.4175 318.354 89.155 312.093 79.8634 310.669C75.1393 309.939 69.2581 318.311 69.2581 318.311C67.1875 317.651 70.1281 307.134 70.1281 307.134C63.5422 257.53 68.3881 266.51 67.0831 242.263C66.2131 226.701 61.8196 160.128 67.0048 154.718L110.566 156.29Z" stroke="#263238" stroke-linecap="round" stroke-linejoin="round"/>
<path d="M95.68 198.781C95.68 198.781 100.996 188.543 105.528 185.686" stroke="#263238" stroke-linecap="round" stroke-linejoin="round"/>
<path d="M107.529 182.368C107.529 182.368 91.3822 187.275 85.7794 188.221" stroke="#263238" stroke-linecap="round" stroke-linejoin="round"/>
<path d="M99.2644 165.921C99.9604 179.338 104.702 181.622 100.134 184.549C100.134 184.549 100.265 190.827 97.9855 194.805" stroke="#263238" stroke-linecap="round" stroke-linejoin="round"/>
<path d="M70.972 160.788C70.972 160.788 72.8773 181.413 66.5176 185.295" stroke="#263238" stroke-linecap="round" stroke-linejoin="round"/>
<path d="M66.5176 167.44C66.5176 167.44 66.0391 181.17 66.5176 192.234C66.5176 192.234 68.1097 238.998 69.7018 244.869C71.2939 250.739 67.2484 259.632 67.5964 285.007" stroke="#263238" stroke-linecap="round" stroke-linejoin="round"/>
<path d="M81.76 304.867C80.2545 304.541 78.6818 304.749 77.3143 305.458" stroke="#263238" stroke-linecap="round" stroke-linejoin="round"/>
<path d="M91.33 310.435C89.3348 308.497 87.022 306.913 84.4918 305.754" stroke="#263238" stroke-linecap="round" stroke-linejoin="round"/>
<path d="M88.72 202.021C85.153 206.015 79.498 213.544 73.7038 214.178" stroke="#263238" stroke-linecap="round" stroke-linejoin="round"/>
<path d="M94.1749 195.525C93.0787 196.906 91.9477 198.261 90.7993 199.607" stroke="#263238" stroke-linecap="round" stroke-linejoin="round"/>
<path d="M89.0941 242.263C89.0941 242.263 80.9857 253.283 76.54 253.917" stroke="#263238" stroke-linecap="round" stroke-linejoin="round"/>
<path d="M98.6293 196.793C98.6293 196.793 113.071 236.94 118.091 240.9C118.091 240.9 118.657 270.426 118.822 280.735C118.987 291.043 121.362 304.746 121.362 304.746" stroke="#263238" stroke-linecap="round" stroke-linejoin="round"/>
<path d="M136.779 304.451C136.779 304.451 131.219 306.37 128.514 307.595C126.852 308.404 125.551 309.8 124.86 311.511" stroke="#263238" stroke-linecap="round" stroke-linejoin="round"/>
<path d="M122.711 226.423C114.959 221.569 104.737 215.498 100.613 206.944" stroke="#263238" stroke-linecap="round" stroke-linejoin="round"/>
<path d="M129.471 230.427C128 229.619 126.556 228.777 125.121 227.908" stroke="#263238" stroke-linecap="round" stroke-linejoin="round"/>
<path d="M105.041 171.348C100.874 171.287 96.3412 170.74 92.7481 168.387" stroke="#263238" stroke-linecap="round" stroke-linejoin="round"/>
<path d="M111.662 170.958C110.47 171.123 109.269 171.227 108.069 171.288" stroke="#263238" stroke-linecap="round" stroke-linejoin="round"/>
<path d="M119.396 78.7659C116.212 73.9549 99.9865 72.7304 89.5726 72.7304C79.1587 72.7304 66.5176 70.9935 60.8104 82.7172C56.4604 91.6707 66.4828 139.017 66.4828 139.017L64.0294 159.46C82.891 165.365 115.203 164.062 115.203 164.062L110.853 145.582C110.853 145.582 122.58 83.5683 119.396 78.7659Z" fill="#263238"/>
<path d="M83.3869 60.8418C83.3869 60.8418 84.7876 71.9836 80.542 74.3892C80.542 74.3892 82.6648 82.561 90.112 83.0734C97.5592 83.5858 100.848 75.605 100.848 75.605L83.3869 60.8418Z" fill="white" stroke="#263238" stroke-linecap="round" stroke-linejoin="round"/>
<path d="M122.853 32.2341L141.913 30.4793C142.344 30.4395 142.775 30.5727 143.108 30.8494C143.442 31.1262 143.652 31.5239 143.691 31.9551L144.946 45.5316L122.664 47.5832L121.41 34.0066C121.37 33.5814 121.499 33.1576 121.769 32.8263C122.039 32.495 122.428 32.2824 122.853 32.2341Z" fill="#3370FF"/>
<mask id="mask7_819_1037" style="mask-type:luminance" maskUnits="userSpaceOnUse" x="121" y="30" width="24" height="18">
<path d="M122.853 32.2341L141.913 30.4793C142.344 30.4395 142.775 30.5727 143.108 30.8494C143.442 31.1262 143.652 31.5239 143.691 31.9551L144.946 45.5316L122.664 47.5832L121.41 34.0066C121.37 33.5814 121.499 33.1576 121.769 32.8263C122.039 32.495 122.428 32.2824 122.853 32.2341Z" fill="white"/>
</mask>
<g mask="url(#mask7_819_1037)">
<path opacity="0.3" d="M122.853 32.2341L141.913 30.4793C142.344 30.4395 142.775 30.5727 143.108 30.8494C143.442 31.1262 143.652 31.5239 143.691 31.9551L144.946 45.5316L122.664 47.5832L121.41 34.0066C121.37 33.5814 121.499 33.1576 121.769 32.8263C122.039 32.495 122.428 32.2824 122.853 32.2341Z" fill="black" fill-opacity="0.7"/>
<path opacity="0.3" d="M142.468 31.8525L136.984 32.3574L137.996 43.3052L143.479 42.8003L142.468 31.8525Z" fill="white" fill-opacity="0.7"/>
</g>
<path d="M122.853 32.2341L141.913 30.4793C142.344 30.4395 142.775 30.5727 143.108 30.8494C143.442 31.1262 143.652 31.5239 143.691 31.9551L144.946 45.5316L122.664 47.5832L121.41 34.0066C121.37 33.5814 121.499 33.1576 121.769 32.8263C122.039 32.495 122.428 32.2824 122.853 32.2341Z" stroke="#263238" stroke-linecap="round" stroke-linejoin="round"/>
<path d="M155.807 29.1821L174.866 27.4273C175.298 27.3875 175.728 27.5206 176.062 27.7974C176.395 28.0742 176.605 28.4719 176.645 28.903L177.899 42.4796L155.583 44.5343L154.328 30.9578C154.289 30.5266 154.422 30.0973 154.699 29.7643C154.976 29.4313 155.375 29.2218 155.807 29.1821Z" fill="#3370FF"/>
<mask id="mask8_819_1037" style="mask-type:luminance" maskUnits="userSpaceOnUse" x="154" y="27" width="24" height="18">
<path d="M155.807 29.1821L174.866 27.4273C175.298 27.3875 175.728 27.5206 176.062 27.7974C176.395 28.0742 176.605 28.4719 176.645 28.903L177.899 42.4796L155.583 44.5343L154.328 30.9578C154.289 30.5266 154.422 30.0973 154.699 29.7643C154.976 29.4313 155.375 29.2218 155.807 29.1821Z" fill="white"/>
</mask>
<g mask="url(#mask8_819_1037)">
<path opacity="0.3" d="M155.807 29.1821L174.866 27.4273C175.298 27.3875 175.728 27.5206 176.062 27.7974C176.395 28.0742 176.605 28.4719 176.645 28.903L177.899 42.4796L155.583 44.5343L154.328 30.9578C154.289 30.5266 154.422 30.0973 154.699 29.7643C154.976 29.4313 155.375 29.2218 155.807 29.1821Z" fill="black" fill-opacity="0.7"/>
<path opacity="0.3" d="M175.027 28.8642L171.718 29.1689L172.73 40.1167L176.039 39.812L175.027 28.8642Z" fill="white" fill-opacity="0.7"/>
</g>
<path d="M155.807 29.1821L174.866 27.4273C175.298 27.3875 175.728 27.5206 176.062 27.7974C176.395 28.0742 176.605 28.4719 176.645 28.903L177.899 42.4796L155.583 44.5343L154.328 30.9578C154.289 30.5266 154.422 30.0973 154.699 29.7643C154.976 29.4313 155.375 29.2218 155.807 29.1821Z" stroke="#263238" stroke-linecap="round" stroke-linejoin="round"/>
<path d="M148.882 29.814L167.941 28.0592C168.373 28.0194 168.803 28.1526 169.137 28.4293C169.471 28.7061 169.68 29.1038 169.72 29.535L170.975 43.1116L148.624 45.1695L147.369 31.5929C147.349 31.3765 147.373 31.1582 147.438 30.9509C147.504 30.7437 147.61 30.5516 147.751 30.3859C147.892 30.2202 148.065 30.0843 148.259 29.9861C148.453 29.8879 148.665 29.8294 148.882 29.814Z" fill="#3370FF" stroke="#263238" stroke-linecap="round" stroke-linejoin="round"/>
<path d="M181.803 26.7827L200.862 25.0279C201.294 24.9881 201.724 25.1212 202.057 25.398C202.391 25.6747 202.601 26.0725 202.641 26.5036L203.895 40.0802L181.579 42.1349L180.324 28.5583C180.284 28.1272 180.418 27.6979 180.695 27.3649C180.972 27.0319 181.371 26.8224 181.803 26.7827Z" fill="#3370FF" stroke="#263238" stroke-linecap="round" stroke-linejoin="round"/>
<path opacity="0.3" d="M168.464 29.4619L162.981 29.9668L163.992 40.9145L169.476 40.4096L168.464 29.4619Z" fill="white" fill-opacity="0.7"/>
<path opacity="0.3" d="M201.023 26.4551L195.539 26.96L196.551 37.9077L202.035 37.4028L201.023 26.4551Z" fill="white" fill-opacity="0.7"/>
<path d="M213.313 36.0223L219.089 98.4445L118.3 107.737L112.558 45.2971C112.461 44.2538 112.784 43.2148 113.454 42.4087C114.125 41.6025 115.088 41.0953 116.134 40.9984L209.015 32.4445C209.533 32.3967 210.055 32.4515 210.551 32.6056C211.048 32.7597 211.509 33.0101 211.908 33.3426C212.307 33.675 212.637 34.0828 212.878 34.5427C213.119 35.0025 213.267 35.5054 213.313 36.0223Z" fill="#3370FF"/>
<mask id="mask9_819_1037" style="mask-type:luminance" maskUnits="userSpaceOnUse" x="112" y="32" width="108" height="76">
<path d="M213.313 36.0223L219.089 98.4445L118.3 107.737L112.558 45.2971C112.461 44.2538 112.784 43.2148 113.454 42.4087C114.125 41.6025 115.088 41.0953 116.134 40.9984L209.015 32.4445C209.533 32.3967 210.055 32.4515 210.551 32.6056C211.048 32.7597 211.509 33.0101 211.908 33.3426C212.307 33.675 212.637 34.0828 212.878 34.5427C213.119 35.0025 213.267 35.5054 213.313 36.0223Z" fill="white"/>
</mask>
<g mask="url(#mask9_819_1037)">
<path opacity="0.3" d="M213.313 36.0223L219.089 98.4445L118.3 107.737L112.558 45.2971C112.461 44.2538 112.784 43.2148 113.454 42.4087C114.125 41.6025 115.088 41.0953 116.134 40.9984L209.015 32.4445C209.533 32.3967 210.055 32.4515 210.551 32.6056C211.048 32.7597 211.509 33.0101 211.908 33.3426C212.307 33.675 212.637 34.0828 212.878 34.5427C213.119 35.0025 213.267 35.5054 213.313 36.0223Z" fill="black" fill-opacity="0.7"/>
</g>
<path d="M213.313 36.0223L219.089 98.4445L118.3 107.737L112.558 45.2971C112.461 44.2538 112.784 43.2148 113.454 42.4087C114.125 41.6025 115.088 41.0953 116.134 40.9984L209.015 32.4445C209.533 32.3967 210.055 32.4515 210.551 32.6056C211.048 32.7597 211.509 33.0101 211.908 33.3426C212.307 33.675 212.637 34.0828 212.878 34.5427C213.119 35.0025 213.267 35.5054 213.313 36.0223Z" stroke="#263238" stroke-linecap="round" stroke-linejoin="round"/>
<path d="M213.313 36.0217L219.09 98.4438L144.27 105.33L138.501 42.9083C138.405 41.8649 138.727 40.826 139.397 40.0198C140.068 39.2137 141.032 38.7064 142.077 38.6096L208.971 32.4438C209.493 32.39 210.019 32.4402 210.521 32.5915C211.022 32.7428 211.489 32.9922 211.893 33.3252C212.297 33.6582 212.63 34.0681 212.874 34.531C213.118 34.994 213.267 35.5007 213.313 36.0217Z" fill="#3370FF" stroke="#263238" stroke-linecap="round" stroke-linejoin="round"/>
<path opacity="0.3" d="M208.467 38.7052L144.548 44.5931C144.122 44.6222 143.702 44.4841 143.377 44.2083C143.052 43.9325 142.848 43.5408 142.808 43.1168C142.776 42.6928 142.913 42.2734 143.188 41.9487C143.463 41.6239 143.854 41.4197 144.278 41.38L208.197 35.4921C208.623 35.463 209.043 35.6011 209.368 35.8769C209.693 36.1528 209.897 36.5444 209.937 36.9684C209.964 37.3914 209.826 37.8084 209.552 38.1321C209.278 38.4559 208.889 38.6613 208.467 38.7052Z" fill="white" fill-opacity="0.7"/>
<path d="M96.1498 38.7488C96.1498 38.7488 81.4033 35.7961 79.7503 45.2706C78.0973 54.7451 83.5 58.7746 83.5 58.7746L96.1498 38.7488Z" fill="#263238"/>
<path d="M83.5 63.9762C81.8149 59.2663 81.5518 54.1663 82.7431 49.3085C84.1873 43.2296 91.4431 34.8667 102.449 42.4654C108.112 46.382 108.46 54.8838 106.694 62.6649C106.277 64.5233 106.59 66.3383 105.972 68.0491C103.797 74.0412 99.8212 78.6525 97.6462 78.7567C94.0183 78.9391 86.7625 74.5535 87.0583 70.7325" fill="white"/>
<path d="M83.5 63.9762C81.8149 59.2663 81.5518 54.1663 82.7431 49.3085C84.1873 43.2296 91.4431 34.8667 102.449 42.4654C108.112 46.382 108.46 54.8838 106.694 62.6649C106.277 64.5233 106.59 66.3383 105.972 68.0491C103.797 74.0412 99.8212 78.6525 97.6462 78.7567C94.0183 78.9391 86.7625 74.5535 87.0583 70.7325" stroke="#263238" stroke-linecap="round" stroke-linejoin="round"/>
<path d="M98.1943 61.2233C98.1943 61.2233 95.2624 59.1043 92.4436 60.8412" stroke="#263238" stroke-linecap="round" stroke-linejoin="round"/>
<path d="M103.727 60.8414C103.727 60.8414 105.946 58.8093 107.39 59.1045" stroke="#263238" stroke-linecap="round" stroke-linejoin="round"/>
<path d="M94.0531 64.4717C94.0531 65.0101 94.3228 65.453 94.6621 65.453C95.0014 65.453 95.2798 65.0101 95.2798 64.4717C95.2798 63.9332 95.0014 63.499 94.6621 63.499C94.3228 63.499 94.0531 63.9332 94.0531 64.4717Z" fill="#263238"/>
<path d="M103.727 64.9062C104.069 64.9062 104.345 64.4707 104.345 63.9336C104.345 63.3964 104.069 62.9609 103.727 62.9609C103.386 62.9609 103.11 63.3964 103.11 63.9336C103.11 64.4707 103.386 64.9062 103.727 64.9062Z" fill="#263238"/>
<path d="M102.483 62.8906C101.405 64.2975 102.918 69.6556 102.483 70.0377C102.048 70.4198 99.2818 69.3343 99.2818 69.3343C99.2818 69.3343 98.638 68.518 99.9865 68.0838" stroke="#263238" stroke-linecap="round" stroke-linejoin="round"/>
<path d="M100.03 72.7307C100.03 72.7307 96.3151 72.7307 95.3233 71.376" stroke="#263238" stroke-linecap="round" stroke-linejoin="round"/>
<path d="M91.1386 52.6608L90.8515 57.1419C90.8515 57.1419 87.6673 58.7832 86.8669 60.4506C86.3906 61.5426 86.2163 62.7421 86.3623 63.9243C86.3623 63.9243 84.4309 60.5548 83.3869 60.8327C83.0128 60.9282 83.0128 62.3437 83.0128 62.3437C83.0128 62.3437 78.6628 52.6521 82.5952 47.5285C86.5276 42.4048 91.1386 52.6608 91.1386 52.6608Z" fill="#757575" stroke="#263238" stroke-linecap="round" stroke-linejoin="round"/>
<path d="M85.0051 62.9606C85.0051 62.9606 84.1351 59.704 81.2032 58.8443C78.2713 57.9846 80.281 65.7917 82.7779 66.8077C85.2748 67.8238 85.9012 68.5446 86.0491 67.6154" fill="white"/>
<path d="M85.0051 62.9606C85.0051 62.9606 84.1351 59.704 81.2032 58.8443C78.2713 57.9846 80.281 65.7917 82.7779 66.8077C85.2748 67.8238 85.9012 68.5446 86.0491 67.6154" stroke="#263238" stroke-linecap="round" stroke-linejoin="round"/>
<path d="M81.0118 52.0961C80.7682 51.7661 79.6894 43.4119 85.2139 39.6604C90.7384 35.9088 100.074 36.3082 106.016 41.5014C111.958 46.6946 110.27 55.7001 106.016 58.7743V55.014C106.016 55.014 104.058 58.783 98.1856 59.0956L99.9778 56.334C99.9778 56.334 97.0894 58.0709 91.9999 57.9232C91.9999 57.9232 94.3924 56.0214 94.0444 54.328C94.0531 54.328 85.9708 58.8698 81.0118 52.0961Z" fill="#263238"/>
<path d="M82.0471 82.2129C77.9755 82.6992 72.1813 88.0053 75.9571 97.4276C78.367 103.402 98.1682 99.8505 98.1682 99.8505C105.511 96.8284 116.238 85.9558 124.112 80.9103C124.112 80.9103 122.45 70.4892 120.536 71.9655C111.636 78.7653 104.319 79.2342 91.9042 85.1916C91.9303 85.1568 84.6049 81.9089 82.0471 82.2129Z" fill="white" stroke="#263238" stroke-linecap="round" stroke-linejoin="round"/>
<path d="M91.1386 93.7803C91.0168 97.6708 92.6176 98.3569 95.3146 99.2774Z" fill="white"/>
<path d="M91.1386 93.7803C91.0168 97.6708 92.6176 98.3569 95.3146 99.2774" stroke="#263238" stroke-linecap="round" stroke-linejoin="round"/>
<path d="M119.944 72.7299C120.127 72.1654 123.424 66.3818 124.355 64.9141C125.286 63.4465 129.445 62.1178 131.054 61.232C132.664 60.3462 132.794 59.0002 133.664 59.9641C134.534 60.9281 133.664 63.1252 128.844 65.4612C130.557 65.5557 132.273 65.5557 133.986 65.4612C135.274 65.2702 136.422 64.1065 136.996 64.9141C137.57 65.7218 137.684 67.172 134.813 68.0578C133.447 68.5519 132.017 68.8444 130.567 68.9262C131.972 69.2258 133.353 69.6263 134.699 70.1247C135.161 70.4633 135.848 71.2536 136.535 71.3752C137.222 71.4968 137.971 72.2436 136.709 73.112C136.262 73.3589 135.761 73.4927 135.25 73.5017C134.739 73.5108 134.233 73.3949 133.777 73.1641C133.777 73.1641 137.109 74.7707 136.074 75.7694C135.039 76.7681 131.724 76.5683 131.724 76.5683C131.724 76.5683 126.809 82.5518 122.65 81.3012" fill="white"/>
<path d="M119.944 72.7299C120.127 72.1654 123.424 66.3818 124.355 64.9141C125.286 63.4465 129.445 62.1178 131.054 61.232C132.664 60.3462 132.794 59.0002 133.664 59.9641C134.534 60.9281 133.664 63.1252 128.844 65.4612C130.557 65.5557 132.273 65.5557 133.986 65.4612C135.274 65.2702 136.422 64.1065 136.996 64.9141C137.57 65.7218 137.684 67.172 134.813 68.0578C133.447 68.5519 132.017 68.8444 130.567 68.9262C131.972 69.2258 133.353 69.6263 134.699 70.1247C135.161 70.4633 135.848 71.2536 136.535 71.3752C137.222 71.4968 137.971 72.2436 136.709 73.112C136.262 73.3589 135.761 73.4927 135.25 73.5017C134.739 73.5108 134.233 73.3949 133.777 73.1641C133.777 73.1641 137.109 74.7707 136.074 75.7694C135.039 76.7681 131.724 76.5683 131.724 76.5683C131.724 76.5683 126.809 82.5518 122.65 81.3012" stroke="#263238" stroke-linecap="round" stroke-linejoin="round"/>
<path d="M125.834 64.9053C126.116 64.9705 126.373 65.112 126.579 65.3143C126.785 65.5166 126.93 65.7718 127 66.0516C127.287 67.0763 128.131 67.1371 128.644 68.2834C129.158 69.4298 129.01 71.2013 129.514 71.8092C130.019 72.4171 129.514 74.979 129.514 74.979" stroke="#263238" stroke-linecap="round" stroke-linejoin="round"/>
<path d="M82.8997 81.4748C80.7682 78.7654 75.9832 79.9898 75.9832 79.9898" stroke="white" stroke-linecap="round" stroke-linejoin="round"/>
<path d="M73.3732 74.9971C73.3732 74.9971 78.2974 75.7179 79.7503 79.8081" stroke="white" stroke-linecap="round" stroke-linejoin="round"/>
<path d="M82.0471 100.893C82.0471 100.893 77.2447 104.601 69.9367 99.2773" stroke="white" stroke-linecap="round" stroke-linejoin="round"/>
<path d="M75.9832 102.013C75.9832 102.013 73.5472 105.373 67.6138 105.33" stroke="white" stroke-linecap="round" stroke-linejoin="round"/>
<path d="M106.503 144.297C106.503 144.297 93.94 154.292 81.1771 152.981" stroke="white" stroke-linecap="round" stroke-linejoin="round"/>
<path d="M72.5467 122.334C72.5467 122.334 92.0434 136.611 106.477 137.523" stroke="white" stroke-linecap="round" stroke-linejoin="round"/>
<path d="M73.06 228.021C76.4139 226.164 80.357 225.673 84.0655 226.649C90.4252 228.247 106.947 251.833 109.243 254.135C111.54 256.436 115.838 257.608 119.796 261.768C126.06 268.29 135.169 274.056 136.092 274.056C137.014 274.056 137.753 273.483 138.902 273.257C140.05 273.032 148.941 272.224 148.941 272.224C148.941 272.224 151.926 272.884 148.941 274.161C145.957 275.437 146.184 276.575 146.184 276.575C146.184 276.575 145.583 277.539 146.784 278.459C147.984 279.38 148.689 278.876 150.403 281.299C152.117 283.722 147.984 282.35 147.984 282.35C147.984 282.35 148.898 284.955 147.062 284.695C145.227 284.434 146.836 287.239 143.852 286.857C140.868 286.475 134.482 282.454 132.881 278.242C132.881 278.242 106.833 265.815 102.936 262.611C99.0382 259.406 82.63 242.22 81.5077 241.994" fill="#263238"/>
<path d="M141.207 251.296H160.347C160.781 251.296 161.197 251.468 161.504 251.774C161.81 252.08 161.983 252.496 161.983 252.929V266.563H139.572V252.929C139.572 252.496 139.744 252.08 140.051 251.774C140.357 251.468 140.773 251.296 141.207 251.296Z" fill="#3370FF"/>
<mask id="mask10_819_1037" style="mask-type:luminance" maskUnits="userSpaceOnUse" x="139" y="251" width="23" height="16">
<path d="M141.207 251.296H160.347C160.781 251.296 161.197 251.468 161.504 251.774C161.81 252.08 161.983 252.496 161.983 252.929V266.563H139.572V252.929C139.572 252.496 139.744 252.08 140.051 251.774C140.357 251.468 140.773 251.296 141.207 251.296Z" fill="white"/>
</mask>
<g mask="url(#mask10_819_1037)">
<path opacity="0.3" d="M141.207 251.296H160.347C160.781 251.296 161.197 251.468 161.504 251.774C161.81 252.08 161.983 252.496 161.983 252.929V266.563H139.572V252.929C139.572 252.496 139.744 252.08 140.051 251.774C140.357 251.468 140.773 251.296 141.207 251.296Z" fill="black" fill-opacity="0.7"/>
<path opacity="0.3" d="M160.739 252.737H155.232V263.732H160.739V252.737Z" fill="white" fill-opacity="0.7"/>
</g>
<path d="M141.207 251.296H160.347C160.781 251.296 161.197 251.468 161.504 251.774C161.81 252.08 161.983 252.496 161.983 252.929V266.563H139.572V252.929C139.572 252.496 139.744 252.08 140.051 251.774C140.357 251.468 140.773 251.296 141.207 251.296Z" stroke="#263238" stroke-linecap="round" stroke-linejoin="round"/>
<path d="M174.267 251.296H193.407C193.841 251.296 194.257 251.468 194.564 251.774C194.87 252.08 195.043 252.496 195.043 252.929V266.563H172.632V252.929C172.632 252.714 172.674 252.502 172.756 252.304C172.838 252.106 172.959 251.926 173.111 251.774C173.262 251.622 173.443 251.502 173.641 251.42C173.84 251.338 174.052 251.296 174.267 251.296Z" fill="#3370FF"/>
<mask id="mask11_819_1037" style="mask-type:luminance" maskUnits="userSpaceOnUse" x="172" y="251" width="24" height="16">
<path d="M174.267 251.296H193.407C193.841 251.296 194.257 251.468 194.564 251.774C194.87 252.08 195.043 252.496 195.043 252.929V266.563H172.632V252.929C172.632 252.714 172.674 252.502 172.756 252.304C172.838 252.106 172.959 251.926 173.111 251.774C173.262 251.622 173.443 251.502 173.641 251.42C173.84 251.338 174.052 251.296 174.267 251.296Z" fill="white"/>
</mask>
<g mask="url(#mask11_819_1037)">
<path opacity="0.3" d="M174.267 251.296H193.407C193.841 251.296 194.257 251.468 194.564 251.774C194.87 252.08 195.043 252.496 195.043 252.929V266.563H172.632V252.929C172.632 252.714 172.674 252.502 172.756 252.304C172.838 252.106 172.959 251.926 173.111 251.774C173.262 251.622 173.443 251.502 173.641 251.42C173.84 251.338 174.052 251.296 174.267 251.296Z" fill="black" fill-opacity="0.7"/>
<path opacity="0.3" d="M193.433 252.737H190.11V263.732H193.433V252.737Z" fill="white" fill-opacity="0.7"/>
</g>
<path d="M174.267 251.296H193.407C193.841 251.296 194.257 251.468 194.564 251.774C194.87 252.08 195.043 252.496 195.043 252.929V266.563H172.632V252.929C172.632 252.714 172.674 252.502 172.756 252.304C172.838 252.106 172.959 251.926 173.111 251.774C173.262 251.622 173.443 251.502 173.641 251.42C173.84 251.338 174.052 251.296 174.267 251.296Z" stroke="#263238" stroke-linecap="round" stroke-linejoin="round"/>
<path d="M167.307 251.296H186.447C186.881 251.296 187.297 251.468 187.604 251.774C187.91 252.08 188.083 252.496 188.083 252.929V266.563H165.672V252.929C165.672 252.714 165.714 252.502 165.796 252.304C165.878 252.106 165.999 251.926 166.151 251.774C166.302 251.622 166.483 251.502 166.681 251.42C166.88 251.338 167.092 251.296 167.307 251.296Z" fill="#3370FF" stroke="#263238" stroke-linecap="round" stroke-linejoin="round"/>
<path d="M200.367 251.296H219.507C219.941 251.296 220.357 251.468 220.664 251.774C220.97 252.08 221.143 252.496 221.143 252.929V266.563H198.732V252.929C198.732 252.496 198.904 252.08 199.211 251.774C199.517 251.468 199.933 251.296 200.367 251.296Z" fill="#3370FF" stroke="#263238" stroke-linecap="round" stroke-linejoin="round"/>
<path opacity="0.3" d="M186.839 252.737H181.332V263.732H186.839V252.737Z" fill="white" fill-opacity="0.7"/>
<path opacity="0.3" d="M219.533 252.737H214.026V263.732H219.533V252.737Z" fill="white" fill-opacity="0.7"/>
<path d="M230.895 263.384V326.075H129.706V263.384C129.706 262.336 130.123 261.331 130.865 260.59C131.607 259.849 132.614 259.433 133.664 259.433H226.937C227.987 259.433 228.994 259.849 229.736 260.59C230.478 261.331 230.895 262.336 230.895 263.384Z" fill="#3370FF"/>
<mask id="mask12_819_1037" style="mask-type:luminance" maskUnits="userSpaceOnUse" x="129" y="259" width="102" height="68">
<path d="M230.895 263.384V326.075H129.706V263.384C129.706 262.336 130.123 261.331 130.865 260.59C131.607 259.849 132.614 259.433 133.664 259.433H226.937C227.987 259.433 228.994 259.849 229.736 260.59C230.478 261.331 230.895 262.336 230.895 263.384Z" fill="white"/>
</mask>
<g mask="url(#mask12_819_1037)">
<path opacity="0.3" d="M230.895 263.384V326.075H129.706V263.384C129.706 262.336 130.123 261.331 130.865 260.59C131.607 259.849 132.614 259.433 133.664 259.433H226.937C227.987 259.433 228.994 259.849 229.736 260.59C230.478 261.331 230.895 262.336 230.895 263.384Z" fill="black" fill-opacity="0.7"/>
</g>
<path d="M230.895 263.384V326.075H129.706V263.384C129.706 262.336 130.123 261.331 130.865 260.59C131.607 259.849 132.614 259.433 133.664 259.433H226.937C227.987 259.433 228.994 259.849 229.736 260.59C230.478 261.331 230.895 262.336 230.895 263.384Z" stroke="#263238" stroke-linecap="round" stroke-linejoin="round"/>
<path d="M230.895 263.384V326.075H155.806V263.384C155.806 262.336 156.223 261.331 156.965 260.59C157.707 259.849 158.714 259.433 159.764 259.433H226.937C227.987 259.433 228.994 259.849 229.736 260.59C230.478 261.331 230.895 262.336 230.895 263.384Z" fill="#3370FF" stroke="#263238" stroke-linecap="round" stroke-linejoin="round"/>
<path opacity="0.3" d="M225.815 265.615H161.626C161.192 265.615 160.776 265.443 160.469 265.137C160.163 264.831 159.99 264.416 159.99 263.983C159.986 263.766 160.025 263.549 160.105 263.347C160.185 263.145 160.305 262.961 160.457 262.806C160.609 262.651 160.791 262.527 160.992 262.443C161.193 262.359 161.408 262.315 161.626 262.315H225.815C226.248 262.315 226.664 262.487 226.971 262.794C227.278 263.1 227.45 263.515 227.45 263.948C227.455 264.165 227.416 264.381 227.336 264.584C227.256 264.786 227.136 264.97 226.984 265.125C226.831 265.28 226.649 265.404 226.449 265.488C226.248 265.572 226.032 265.615 225.815 265.615Z" fill="white" fill-opacity="0.7"/>
<path d="M106.99 326.075C101.77 326.075 94.4359 322.723 85.9882 319.18C77.2273 315.497 67.2484 311.607 57.1216 311.025C53.3458 310.808 55.6339 326.075 55.6339 326.075H47.3689C47.3689 326.075 39.2083 315.202 38.26 305.467C38.26 305.467 44.9242 301.36 46.525 301.125C47.077 301.067 47.6318 301.041 48.1867 301.047C49.9789 301.047 52.3714 301.125 52.3714 301.125C51.9886 300.899 45.8899 297.235 42.523 293.509C39.7477 290.435 38.4775 285.58 38.3818 282.68C38.4894 280.759 38.7014 278.846 39.0169 276.948L82.4473 277.669C82.4473 277.669 82.9171 277.999 83.7523 278.616C88.7896 282.28 107.199 295.932 116.403 306.223C119.379 309.549 121.389 312.519 121.684 314.69C123.068 324.703 114.864 326.075 106.99 326.075Z" fill="#757575" stroke="#263238" stroke-linecap="round" stroke-linejoin="round"/>
<path d="M116.412 306.206L95.2885 311.025C91.6669 313.093 88.4984 315.866 85.9708 319.18C77.2099 315.498 67.231 311.607 57.1042 311.025C53.3284 310.808 55.6165 326.075 55.6165 326.075H47.3515C47.3515 326.075 39.2083 315.203 38.26 305.468C38.26 305.468 45.9508 316.41 47.83 321.968C47.83 321.968 50.8141 311.685 55.66 307.56C53.4713 305.1 50.9843 302.921 48.2563 301.073C50.0485 301.073 52.441 301.151 52.441 301.151C52.0582 300.926 45.9595 297.261 42.5926 293.535C39.8173 290.461 38.695 285.598 38.4514 282.706C38.3296 281.282 38.5036 276.975 38.5036 276.975C38.5036 276.975 70.8937 281.586 83.8219 278.642C88.7983 282.289 107.208 295.915 116.412 306.206Z" fill="#263238"/>
<path d="M82.456 305.468C82.456 305.468 99.6646 314.074 104.258 317.443C108.852 320.813 110.218 319.901 110.218 319.901" stroke="#263238" stroke-linecap="round" stroke-linejoin="round"/>
<path d="M42.5317 304.556C42.5317 304.556 46.6642 310.852 46.8817 312.736" stroke="#263238" stroke-linecap="round" stroke-linejoin="round"/>
<path d="M111.749 183.707C111.749 183.707 120.91 179.729 120.04 196.646C119.17 213.563 122.276 214.431 122.276 214.431C122.276 214.431 99.2209 223.88 93.3658 215.803C87.5107 207.727 93.07 185.626 111.749 183.707Z" fill="#263238"/>
<path d="M110.47 214.431C110.47 214.431 100.987 218.895 100.126 223.02C99.2644 227.145 87.3889 220.936 87.3889 220.936L95.9932 208.587L110.47 214.431Z" fill="white" stroke="#263238" stroke-linecap="round" stroke-linejoin="round"/>
<path d="M48.2911 259.71C26.5411 287.361 44.1934 300.7 68.8492 298.494L63.9076 306.31L76.3138 308.455C76.3138 308.455 85.8229 302.254 98.7859 295.628C120.849 284.339 129.767 285.016 127.496 273.718C125.225 262.42 98.1856 255.09 71.0764 266.996C71.0503 266.988 56.3299 249.532 48.2911 259.71Z" fill="#757575" stroke="#263238" stroke-linecap="round" stroke-linejoin="round"/>
<path d="M55.8775 319.901C55.8775 319.901 61.5412 304.269 63.9076 303.401C66.274 302.532 75.2176 305.919 76.3138 308.437C76.3138 308.437 79.3327 303.817 80.5681 305.78C81.8035 307.743 80.02 310.991 80.5681 313.474C81.1162 315.958 87.2323 319.432 89.677 319.892C92.1217 320.352 93.5137 321.724 93.5137 323.096V326.075H55.8775C55.4599 325.099 55.2446 324.049 55.2446 322.988C55.2446 321.927 55.4599 320.877 55.8775 319.901Z" fill="white" stroke="#263238" stroke-linecap="round" stroke-linejoin="round"/>
<path d="M80.5681 311.025C80.5681 311.025 75.583 313.483 73.7647 312.762C71.9464 312.041 74.6956 316.887 75.3829 317.347C76.0702 317.808 80.6029 315.741 80.6029 315.741" stroke="#263238" stroke-linecap="round" stroke-linejoin="round"/>
<path d="M60.5842 308.446C60.5842 308.446 67.3528 308.577 69.4147 311.052" stroke="#263238" stroke-linecap="round" stroke-linejoin="round"/>
<path d="M55.8775 319.9C55.8775 319.9 66.6655 322.419 67.579 322.419C69.0626 322.125 70.5181 321.704 71.929 321.16C71.929 321.16 74.887 322.645 76.8532 323.565C78.8194 324.486 91.6432 323.565 91.6432 323.565" stroke="#263238" stroke-linecap="round" stroke-linejoin="round"/>
<path d="M68.8492 298.511C79.15 297.399 99.16 284.729 106.12 280.326C113.08 275.923 114.82 277.078 114.82 277.078" stroke="#263238" stroke-linecap="round" stroke-linejoin="round"/>
<path d="M38.4427 276.931L40.087 264.469L44.0542 261.482C50.4835 245.911 79.6111 216.828 87.5542 216.923C99.4819 217.062 101.587 229.559 103.058 243.236C104.528 256.914 85.9447 254.856 85.9447 254.856V258.286L75.3742 263.748L81.7774 263.549C81.7774 263.549 63.3595 281.421 38.4427 276.931Z" fill="#3370FF" stroke="#263238" stroke-linecap="round" stroke-linejoin="round"/>
<path d="M90.0685 192.842C92.5654 185.027 103.989 182.942 108.095 184.219C111.466 185.533 114.228 188.049 115.847 191.279C116.891 193.528 114.707 197.506 116.264 199.825C118.491 203.151 118.3 210.167 117.5 214.588C117.065 216.932 107.295 218.322 99.3079 212.851C90.7297 206.928 87.6499 200.363 90.0685 192.842Z" fill="white" stroke="#263238" stroke-linecap="round" stroke-linejoin="round"/>
<path d="M101.613 181.883C101.613 181.883 111.671 180.25 111.74 182.829C112.184 199.963 101.892 203.558 101.892 203.558C101.892 203.558 97.6897 200.215 96.7501 202.508C95.8105 204.8 98.2291 211.14 101.205 211.27C100.519 212.333 100.144 213.566 100.123 214.831C100.101 216.095 100.434 217.34 101.083 218.426C101.083 218.426 84.0481 221.266 82.6387 213.389C83.2972 210.651 83.7681 207.871 84.0481 205.069C85.153 194.032 82.5691 186.607 101.613 181.883Z" fill="#263238"/>
<path d="M115.046 199.347C117.143 201.231 118.648 201.231 118.622 201.909C118.544 204.019 116.012 205.07 116.012 205.07" fill="white"/>
<path d="M115.046 199.347C117.143 201.231 118.648 201.231 118.622 201.909C118.544 204.019 116.012 205.07 116.012 205.07" stroke="#263238" stroke-linecap="round" stroke-linejoin="round"/>
<path d="M115.96 208.587C114.478 209.087 112.879 209.127 111.375 208.7" stroke="#263238" stroke-linecap="round" stroke-linejoin="round"/>
<path d="M110.383 188.83C110.383 188.83 117.073 186.894 115.847 197.732C115.847 197.732 118.631 193.954 118.622 189.707C118.622 182.352 108.765 183.828 108.765 183.828L110.052 189.039" fill="#263238"/>
<path d="M116.464 194.136C116.211 193.968 115.926 193.853 115.627 193.797C115.328 193.742 115.021 193.748 114.724 193.814" stroke="#263238" stroke-linecap="round" stroke-linejoin="round"/>
<path d="M111.958 194.015C111.958 194.015 108.365 194.223 106.807 196.62" stroke="#263238" stroke-linecap="round" stroke-linejoin="round"/>
<path d="M111.096 199.72C111.149 200.293 110.905 200.788 110.548 200.822C110.192 200.857 109.861 200.414 109.8 199.841C109.739 199.268 109.992 198.773 110.348 198.738C110.705 198.704 111.044 199.146 111.096 199.72Z" fill="#263238"/>
<path d="M69.4147 301.117C69.4147 301.117 77.4187 301.986 79.1587 305.459" stroke="#263238" stroke-linecap="round" stroke-linejoin="round"/>
<path d="M89.677 222.785C93.0309 220.928 96.974 220.436 100.683 221.413C107.051 223.02 123.564 246.597 125.86 248.898C128.157 251.2 132.455 252.372 136.413 256.532C142.677 263.054 151.786 268.82 152.709 268.82C153.631 268.82 154.37 268.247 155.519 268.021C156.667 267.795 165.558 266.988 165.558 266.988C165.558 266.988 168.543 267.656 165.558 268.924C162.574 270.192 162.801 271.347 162.801 271.347C162.801 271.347 162.209 272.302 163.401 273.223C164.593 274.143 165.306 273.64 167.02 276.063C168.734 278.486 164.601 277.113 164.601 277.113C164.601 277.113 165.515 279.719 163.679 279.458C161.844 279.198 163.453 282.003 160.469 281.621C157.485 281.238 151.099 277.218 149.498 273.006C149.498 273.006 123.45 260.579 119.553 257.374C115.655 254.17 99.2644 236.984 98.1073 236.758" fill="white"/>
<path d="M89.677 222.785C93.0309 220.928 96.974 220.436 100.683 221.413C107.051 223.02 123.564 246.597 125.86 248.898C128.157 251.2 132.455 252.372 136.413 256.532C142.677 263.054 151.786 268.82 152.709 268.82C153.631 268.82 154.37 268.247 155.519 268.021C156.667 267.795 165.558 266.988 165.558 266.988C165.558 266.988 168.543 267.656 165.558 268.924C162.574 270.192 162.801 271.347 162.801 271.347C162.801 271.347 162.209 272.302 163.401 273.223C164.593 274.143 165.306 273.64 167.02 276.063C168.734 278.486 164.601 277.113 164.601 277.113C164.601 277.113 165.515 279.719 163.679 279.458C161.844 279.198 163.453 282.003 160.469 281.621C157.485 281.238 151.099 277.218 149.498 273.006C149.498 273.006 123.45 260.579 119.553 257.374C115.655 254.17 99.2644 236.984 98.1073 236.758" stroke="#263238" stroke-linecap="round" stroke-linejoin="round"/>
<path d="M85.936 220.266C85.936 220.266 98.7772 216.836 103.258 219.354C107.738 221.873 116.229 233.553 116.229 233.553C116.229 233.553 105.876 242.802 102.675 241.959C99.4732 241.117 89.677 239.736 89.677 239.736" fill="#3370FF"/>
<path d="M85.936 220.266C85.936 220.266 98.7772 216.836 103.258 219.354C107.738 221.873 116.229 233.553 116.229 233.553C116.229 233.553 105.876 242.802 102.675 241.959C99.4732 241.117 89.677 239.736 89.677 239.736" stroke="#263238" stroke-linecap="round" stroke-linejoin="round"/>
<path d="M97.072 240.866C97.072 240.866 92.4175 243.419 90.7036 243.419" stroke="#263238" stroke-linecap="round" stroke-linejoin="round"/>
<path d="M89.677 228.057C90.0685 228.743 89.938 236.255 98.1073 238.591" stroke="#263238" stroke-linecap="round" stroke-linejoin="round"/>
<path d="M46.0117 261.725C46.0117 261.725 63.4117 264.704 69.4147 259.433" stroke="#263238" stroke-linecap="round" stroke-linejoin="round"/>
<path d="M75.3655 263.748C75.3655 263.748 71.0155 262.984 69.4147 265.216C67.8139 267.448 59.0965 269.558 59.0965 269.558" stroke="#263238" stroke-linecap="round" stroke-linejoin="round"/>
<path d="M40.3915 280.327C40.3915 280.327 37.8772 291.148 48.6043 295.959" stroke="#263238" stroke-linecap="round" stroke-linejoin="round"/>
<path d="M46.0117 281.073C46.0117 281.073 46.0726 286.405 47.7517 289.323L53.0848 291.06L59.053 287.743C59.053 287.743 57.7828 280.926 57.6697 279.545" stroke="#263238" stroke-linecap="round" stroke-linejoin="round"/>
</g>
<defs>
<clipPath id="clip0_819_1037">
<rect width="341" height="337" fill="white"/>
</clipPath>
</defs>
</svg>
