<svg width="330" height="37" viewBox="0 0 330 37" fill="none" xmlns="http://www.w3.org/2000/svg">
<g filter="url(#filter0_d_352_992)">
<path fill-rule="evenodd" clip-rule="evenodd" d="M196.707 13.2455C153.854 13.7605 110.981 15.8038 68.315 19.4562C48.0304 21.1929 24.4738 20.9758 4.80017 26.897C3.81989 27.195 4.00658 28.0889 4.0278 28.1783C4.07024 28.3614 4.24852 28.9701 5.02935 28.9998C5.11422 29.0041 5.71254 28.919 5.94169 28.8892C11.7513 28.1229 17.5396 27.2291 23.3534 26.5054C43.426 23.9982 63.5579 22.1039 83.7195 20.4438C110.48 18.2387 137.47 17.0638 164.302 16.1444C178.99 15.6421 194.029 16.3104 208.763 15.2717C214.174 15.2419 219.585 15.2377 224.995 15.2548C247.614 15.3356 270.207 16.1955 292.788 17.3746C300.049 17.7535 305.587 18.1621 312.695 18.4388C315.394 18.5452 319.675 18.6176 322.654 18.6645C323.092 18.673 324.208 18.6814 324.67 18.6857C324.717 18.6942 324.764 18.6942 324.815 18.6942C324.993 18.6942 325.078 18.6814 325.095 18.6814C326.105 18.5324 326.011 17.5746 325.986 17.4299C325.982 17.4001 325.829 16.5913 324.959 16.5615C324.751 16.553 323.261 16.5446 322.688 16.5361C319.726 16.4892 315.462 16.4169 312.775 16.3147C305.68 16.038 300.146 15.6294 292.898 15.2505C270.284 14.0714 247.656 13.2072 225.004 13.1264C222.237 13.1178 219.466 13.1136 216.699 13.1178C216.605 12.8752 216.398 12.6028 215.939 12.4836C215.511 12.3729 212.442 12.275 211.258 12.1771C202.495 11.4535 202.754 11.4875 193.113 10.8958C178.51 9.99763 176.286 9.7932 161.098 9.41435C133.51 8.72475 105.91 8.78016 78.3173 8.84827C64.6952 8.88658 50.1097 9.81029 36.2796 8.08629C40.8373 7.54993 45.412 7.15831 49.9782 6.71135C65.5694 5.18742 81.1733 4.24237 96.8282 3.57831C134.38 1.98627 171.992 1.35206 209.531 3.52302C201.54 3.59964 193.554 3.77837 185.563 3.89331C153.035 4.37007 120.194 4.01253 87.734 6.48573C87.1526 6.53255 86.7155 7.04334 86.758 7.62652C86.8004 8.21396 87.3139 8.65243 87.8953 8.60986C120.313 6.13667 153.108 6.49846 185.593 6.0217C197.662 5.84717 209.726 5.5322 221.795 5.62585C225.937 5.6599 230.079 5.81317 234.221 5.86425C235.04 5.87702 237.149 6.03878 237.45 5.97067C238.117 5.82169 238.261 5.32787 238.303 5.08523C238.324 4.9405 238.392 4.10617 237.374 3.80819C230.423 1.77345 217.594 1.86709 210.838 1.46696C172.836 -0.789143 134.758 -0.159154 96.7391 1.44991C81.046 2.11823 65.4039 3.06755 49.7702 4.59574C44.3086 5.12784 38.8343 5.58757 33.394 6.29419C32.5155 6.40913 30.5422 6.57517 29.5874 6.7497C29.1885 6.82206 28.8999 6.92416 28.7726 6.99652C28.2761 7.27747 28.187 7.68613 28.187 7.96282C28.1827 8.17566 28.2719 8.92485 29.3116 9.12918C45.1531 12.2409 62.3909 11.0192 78.3216 10.9767C105.897 10.9086 133.476 10.8531 161.047 11.5427C176.197 11.9216 178.413 12.1218 192.985 13.0199C194.424 13.1051 195.642 13.1816 196.707 13.2455Z" fill="#7371FF"/>
</g>
<defs>
<filter id="filter0_d_352_992" x="0" y="0" width="330" height="37" filterUnits="userSpaceOnUse" color-interpolation-filters="sRGB">
<feFlood flood-opacity="0" result="BackgroundImageFix"/>
<feColorMatrix in="SourceAlpha" type="matrix" values="0 0 0 0 0 0 0 0 0 0 0 0 0 0 0 0 0 0 127 0" result="hardAlpha"/>
<feOffset dy="4"/>
<feGaussianBlur stdDeviation="2"/>
<feComposite in2="hardAlpha" operator="out"/>
<feColorMatrix type="matrix" values="0 0 0 0 0 0 0 0 0 0 0 0 0 0 0 0 0 0 0.25 0"/>
<feBlend mode="normal" in2="BackgroundImageFix" result="effect1_dropShadow_352_992"/>
<feBlend mode="normal" in="SourceGraphic" in2="effect1_dropShadow_352_992" result="shape"/>
</filter>
</defs>
</svg>
